<mxfile host="app.diagrams.net" modified="2021-11-15T04:17:21.307Z" agent="5.0 (Macintosh)" etag="RcQm1cPoIKc04HsEdNfa" version="15.7.3" type="github">
  <diagram id="6qLNTp2R2TmVB-MqfDeE" name="第 1 页">
    <mxGraphModel dx="1186" dy="676" grid="0" gridSize="10" guides="1" tooltips="1" connect="1" arrows="1" fold="1" page="1" pageScale="1" pageWidth="827" pageHeight="1169" math="0" shadow="0">
      <root>
        <mxCell id="0" />
        <mxCell id="1" parent="0" />
        <mxCell id="6W5GAz7soycN4FFiyWhJ-2" value="CTC" style="shape=cube;whiteSpace=wrap;html=1;boundedLbl=1;backgroundOutline=1;darkOpacity=0.05;darkOpacity2=0.1;fontSize=20;flipH=1;fillColor=#FFB366;" vertex="1" parent="1">
          <mxGeometry x="205" y="128" width="213.51" height="41" as="geometry" />
        </mxCell>
        <mxCell id="6W5GAz7soycN4FFiyWhJ-3" value="RNN" style="shape=cube;whiteSpace=wrap;html=1;boundedLbl=1;backgroundOutline=1;darkOpacity=0.05;darkOpacity2=0.1;fontSize=20;flipH=1;fillColor=#FFB366;" vertex="1" parent="1">
          <mxGeometry x="205" y="280" width="213.51" height="41" as="geometry" />
        </mxCell>
        <mxCell id="6W5GAz7soycN4FFiyWhJ-4" value="CNN" style="shape=cube;whiteSpace=wrap;html=1;boundedLbl=1;backgroundOutline=1;darkOpacity=0.05;darkOpacity2=0.1;fontSize=20;flipH=1;fillColor=#FFB366;" vertex="1" parent="1">
          <mxGeometry x="205" y="431" width="213.51" height="41" as="geometry" />
        </mxCell>
        <mxCell id="6W5GAz7soycN4FFiyWhJ-5" value="STN" style="shape=cube;whiteSpace=wrap;html=1;boundedLbl=1;backgroundOutline=1;darkOpacity=0.05;darkOpacity2=0.1;fontSize=20;direction=east;flipH=1;fillColor=#FFB366;" vertex="1" parent="1">
          <mxGeometry x="205" y="583" width="213.51" height="41" as="geometry" />
        </mxCell>
        <mxCell id="6W5GAz7soycN4FFiyWhJ-6" value="" style="shape=image;verticalLabelPosition=bottom;labelBackgroundColor=#ffffff;verticalAlign=top;aspect=fixed;imageAspect=0;image=data:image/png,iVBORw0KGgoAAAANSUhEUgAAAPgAAABPCAYAAADGHgjGAAAgAElEQVR4nOy8y49tWXLe94tYa+29zyPf912PrqpuNpstsfWwTAmWJVOyJXtgyYAlwDA8sw14bsDwxH+ChhrYBji0B9bMlgHJD5qSKBOm2BSbZFPNblZXV1fde+s+Mm/mee+91orwYJ0qauChAdrgDeDiJhLnZObee0XEF9/3xYG38Tbextt4G2/jbbyNt/E23sbbeBtv4228jbfxNt7G23gbb+NtvI238Tb+2IV8+96/0b4yUE+oBNwmXAvFDasBjQOhCwTNdJIxFYr0OBEbnY5EEsGt4CKMZWLKmeTCbOiIwRnHPd+9+ZU/0ot9G2/jj1tEARy+DpyArICtwwbYAwaCCCciciFwoaqXLnqiogtDenGSIA5S3VmBr6v7yt03brLC2ZlZAM7+3IO/dkLoT6dsZ+626GJcBsuplDGucg0m8RBM9x5tI528qbVusbALddr2cdQYLE4TAZt1RQ+DhBqs1FkeEa9wsF2oSFa6sSPmPizWSYdpGGZT6GS/L1ucKo5lF9dcdroft1MuRdUxJ49GlUScvvCfjn+UD+ZtvI3/N0I+mP8FgurfE/Rvd2FAJYBPuBSI7C2HfSnss9dseV3wnUwQTWa9hmEWPCznqQ9dEIIKsesoODh0ouTDyLTfU828Sjx46CdHiireBQ9DKCl2DAyzOCwWYEbohDBLOILXSKiFzgswMh4gxRNC77XUsXSxs8X8VObzRSRa7LoZMfagGauOm4AbKSVcBREhSEA0EJJyshzoh4EhJZt1nc/ngwaNkvMeVeHkdLFTkXGslVzKxoxcKFTqXerEuj4So7whKBLVjHqXc2a7G8s47tauTghhLKXsqhU6SXspepg2B7T69uLkZHp475LLy9l6NovFvbAbD7eb3c4PU/H1frzdrPdsdod6GKdVLhn3kq2WDW6IyOG/+jt/Z/9HfZDexv83Q/7qz/+njNPh71nVv53iwDRN5HqgyoSGjvnJkmE5pz+NDCFxlk65uLgiDj3VC4tBmXeClQPTtCNXB4/EKEiYmJ0ETpbOIJlY4N7igsXsnJpnjAaTQhajeCX28aviUpOhKRHinCHNcYdSMjUKGnu8RtarFYfDjmgdfafEWHEzEFAphOCkFOk6oUuJGJcgSowBDYlqMI4FmzI1T5ScqXYgiDEfOqIEoFLNmKphAjlPaKd0Q0TVSJ1gwOGwZ9yPbPc7Vus1r18bd6sRs0zsA12KIECFujcsGzEI875nPh84Oek5mfcIznbc8Pz1C9arLSkMaEggCu6EEEkdmGfcHHByMcZDJU++q8boUnFsg3uWAKnrV90w1BAEVX8TNIC7mXGnCiF2BfV1qY5VmySwJQmm7KXaQQCcraCTioD72syLREWD3rlh5tWDxNsgHe5WzeqqVidXyfvDtJnGDWXajn/37/63uz/KA//HLeR3/ulTDofpH5yeXPzby9MFQ6dIKkgwYjIcOOTIvkzcXF9z/fqacSqUyQhBuX//nIuzGbMuMaRECj3igVq27PevUUZCmNhtXjONO0JSQlRKNoxKGgbmixP6fk4/G4gurFZbblZbblYjt7cj69WeN9e3bLZbDpYZ5jMuTs/ou4C5MY2V1XaLW6YfLgihQxVi6hAXrFawjIiSc6bUiuOoBlLXkWJAVei7nqCB8ZDZbvesVxvevL5mtbplP+7JpZBiYjbrmZ10dEGJ0dEuEDSQUiKkiLtQvFCsoEAIAUTIeWK3m8ijoQiKUKdMrZmglXkfGYaO0M/o5ieEkHAcolBrpZYKUgkaEBXwihUHV9QDEkL7GkfFKV4pVpEQEQkUqxhGUAUXvBrujoiDGdWsfQ/HVDAVsArm7bAg7fUqx+ICqoq74w4i8fgaBTEsF7abDavVXSvEgeP9Tsxms93lxf3x3r37nC6Xm2qWb1d37HfblZnV29s3PHv2xe1qtfHl/MQeP3n3bnF6RoypaNR1q5Y+uWy2xXZY1YPqfC+SyKVszXwSTbixdvcSgtD3cjcMal0sQH1j5ohrhbAaaybnmoW4MRdytvG//C/+8//fFyPxvUPk126vX/6FL56t2W4L293Ixz/6lKefv+SwK2xWK+52rylm5FqxOqFmxBg5OV8gyZktlLMFPH5wysXJKePuhm99+C5fe/8Jy3kChdgl5GRJFWe9XrHb3zJ4ZbmcITGwX6948ewpr7/Ys9kqr1cHNts946TcvDkwToGrdx7wzW99k4vZBVARMd7cbPj1f/bPePbipxhLLq8esDiZM5tfEMOcqKBqxE4QYLVasz8cAMi5MI6ZWjKb9Yb13Yrtek8hk1JkMZsTYwSFlBLLk1NmfWKYRWZ9B1SciqoCYOY4QmFCghME3I0YIl3XOrGhaDwmQ3U0CF0ALRlxZ/KAkTAvVKs4hqgTY2zH2gVEMHPMjZZ6IOqAglXEHBfhmIbgUNvb8GIIoBqOCWngdswZxwH3L5M1Y1+hIgBDvvq5jhz/jhAiIcRj4iuqkWm/Z/XiKZu7O3KthKAM8xkn5+dcXl0xzJY4Ti2FlDpiF7A6UWtmtzuw2Ry4vVlx+2ZNCAPzs3t0/YyYIvP5jMV8IPV7im2pJYB11COqQbXda5N2/aoIsZ16rfjxZYLiLkxlwmxCRQl6vCdAQMF9X3M+HKbMfl82437MORdyLqtsVt1ARG5Nqjvig9ntRR95cP+0nF8t1ikJfc90eXm2ffj4PldXl4fZcLZHIm5h5y4jprjperdelWefP+Unn356d/3m2g6Hwvowvnm9WrE7TCamd1GVEEI+OZlv3nvvEQ8eXI7/wX/8H/0/FqP43/3S/8bZ2dnyf/r7/5inn71iKhNRjS4KZTfh1i62sOJms2W9naiHPfMUSZ2SUkfoO07PBx49jCy+teev/Xvf4Nnnz5iVT1k9fc1vffIZj977kG/9uT9PODnBKCwXM+abGXG/I3UdmDDlkXGjPP/pji9uEnfjgd24JW9WPHp4jyfvfw3XBYcv1qz6CQ1QPTNNwkwj4o64E0Q4HHbkyVBuqbYnT4UpwzhlVrcr9rsDU87kcUIjxC4CFbMJ89q6mra5PfQz+r5jmCdCHPF4gDBQvSAK0vBAO0TakjaItkSxiptQrTKaoBqpLlTJiAiiQrCA1UC0BF4pNP5BNaFBQCZAqLWAR1wFaqSa49jxpE54NUSgBsfUUSIgmJWWhK4Ea11XJFCtvdfFcOWYGEdEUAPqrdOLO4Hjdbq3OiBg7sf/M2BYGfFaSalr3y97Ut7QT1vElSiJrhTY7dhWYepH+llHNyRiV7FpYhy3jScxI7kQpSPvjOfXLyjhFo8JK87Qz7h3dcm9RwvOzxbEdMZmozx7dsPzL16ynzJuPUaHaI9oAD8WYDFElSiGegYEJIAopUApTnVwi18Wx5kjMyxixoWZE6Sj65UQBTDwTJVKrUYYK10VUqhItyLnicNU0PiKfvaUrh9QTVSvCE4fvOWTOu5bDvs3TGVCo+JB2OeJ9WHkUIyaK3V/oI4TQYWLy8958u4Dvvu7n9PPHPHD/vb6+eE3f/M3efr0+XfjL/0PfwdVPb2723L14H3Ozs/ZbVdsN1vmZ4mZdghK3yXeD/fpPFBtIqkQ0ozqiX2FKY/sNhtefaGsr6/48cePuL1bUf2A6RU3pacOK752NyfOBJeRNy8/58XTH7Pb7Xlw8iEf/Mw7zPorVodrPn255vnNLfuaSbonncFJHonAtK3k8wtcKuaZ1d2OXT0w5syDB1e8/+57mGRyVsb9xHp1YL/bc3O75ubVDbv9HqsQNdCl7giWHZeI1fbwuyExdD0pKSkFZsPA0PeEJKQQCCEhGlCR1kE1oEFBBFHH2ZPEsaoNqosiGIIdkxZEtcFlKhyTDXdEW5cUEYIrbgkBkIC7U6vgx8GYYzESUVxq0z0qiBsqhhCR6qgrQkIMvDpoQCR81ewQAXGMiiCINEQiCKotkY+/lNb/A4SG3s0UXFvCKziKO0weOZRTNlOBKE1WLTDtRvbZiVOmn3qGMrDUJTEoxRTMid0cDjvGvGKqGUcRG9jdVVarDeYrbm92rHenPHznHstF4vpN5ocff8rzp18wVUAXiCxx6TEPiERM45dQ5HglBTBUhSDSUFOejohGAaeUikpAQ8ChEbQxEaZWABxrRdQNMyPmSl+dqAW0UstEqRMxKKhx2B1Yb/fUYoQU6LuOWTcnxg7zitWCBEe7RPVCrhnDiF0iilD3hWm9IecdL64zL6+fcnv3Dk/eueTsdJgV85lrIPZDiMN8Bu6L+08eYHrG3XTOzk6hNw6jEzwRNEA2xJ0hRTp1BnWGvidqooqT1OmAN7Xwd//7X2G93rM3wUPCuoT/6JryD14zCwPBFCFQvHLwguXCh+ef8df+nQveXG/57u++4bPnhS9u7pgs8/hhx34rvHq14ew04Ajb/YZp2jLMEk6h2oR7BSDNBmJ3gkri1cuXrA9rXr5acXe347CvhNAT9EtE6pSaqcf3Og0BVBPGDKnrcZ8hOkO1I4XYEpl24M0FVcFFKNW+gs4hCNUAUmP1RVFNEAIcC4McIXE7aI5ZwWsl1wxRETPicVoHWmHwpgK4CBIcs8ZDYILS4zgdAcMatPc2q4MSJKFaj7xAbPDa2z1oI3VAMfDjDC6At3QGaclrhtCuQdRQr4gKMQRMGqwVFUjgZc5WT9mUCTCiCmqFUJ1kE5HK5JWRzKFmUtc1tBADoQ9UiUwlI0lYnp7h9T5ni4H3Hgbmp0vOrs6RmXC9ueazT+54+UXm+nqgyodojLjPgRlGxcRwAQ/gmnH3Y9duzwaRhsJw6CpmUN1x9WNx/RK9OBoa72B1wiyj2s6ASCIgeFSsPRLQjtANxJSY3HGDeGlcSUWt8R0AYop7wA28tDNQa8VwPAoqQpXjPV/eofEG2d8So3MAPn+ZWR9e8eTRgi4WTHrScHodUy+ALLSb8XIFq5sDFuZQHa8K9JgrHiMSQfeQpEcNgtIYXdkTOyHFyKABxoILZAUza0klAUbhtlaoifFQGWtg8o5qC374/JbP8sd89O4V6/Eem9UNh9selzm+PKXsz7GTnus3B8xHLsMpMYHVypA6+q5HELo043YzghrmlVdvRl6OsPVTariPDFtCzHTRmCUhhkIaIKgQQqvSIi1hXSLqka4b0DhQvWOc2muUQBBthUHBdcJlInURk8qsJsZcUfzYHY+EVKnk6q2XG2CKiNBJh3iPI0jMxKJ4TXgVpEiD4sFxRgqHBsNp12gm1NK6qHvABSozXJQiQv1yVPCGANwKSRVxI7rh4kgtKBOqtDEFJ2jErGLmRO1xlHEqmCfQSC6RqcwawRaU4plqUytUWrFxIt85m7uEy4phME7PAmdDRxgSoWuFKk+VPimdJORYPPOu8QiniyXiQowd52dnPLj3iNPTx3g6YTMWnl+/4LNXr3j2xYqb64JLR1z2VBOmXCl1j0jAVTFXDKfWIzGoCT+qE3jjUhqvUI9cSiuTfuQr2mgjmCuiAY89Yq2oi9DOjTuTT4gfUZsAtRx5jobmpdlGWgm2I0GJIhrx2GNBqSVTpgNWjsiOilullhGRqRnTNFDqAcmZcYL9XrhbG12sTLlgIq+jdpOC9GPdk/2MXVniNqPvZkgU3CNuUAOYZPoQyRbRqHT9jK4XZvMO0wZBYoyUqVLrCs0jYh2y2zFWQ7qeXBwC1FCQ4iQXpBQsLfn48+fMBuPf+st/EfmLG37/+9/n05+8YNzsKPstURLpJDNNmavFjH4Wcavsd848znl0/31u3xQ++fwPCMPAdhQOpVJ9hoWEnAUGPWVIPTEEuhgZJDDlPcUrVdoT8JoxSuvnOZBKYD81jcsdolrjcNzJxXFTKgHXGanvMKuU0XGLbc7/lzq7uFFsRN1wyUQVokAXAykqGgIhGCkoXp1IpNNEjEpIAVEl07GfCrspUyvUCmWq5Gmk1MpYMrU6RRprXsW/GgdijEfo34i5JEqKgShKLwENgpnh2rB+KRPjtMfMyJOz3W8ZJ8glkIuzz63zp9TjMTYsYk6ujpeK1ILXjKTC2YlSu0C3jMxSoht6htBg53xYMAw9KSU0KCU71Yxh6I9EXsXqit0Bqjh328hPnt3w2cuX3O2dg83RocNFqWLU7FStZCtNVdAEAlYbWhGORCYdzafVElnkD1UCoxyR3ZFrUEVDS3JVbcjtiGqqO1THimFSUTVCjAQZqDEhCMG9jWQihFAaijA/Ik+hFGHM7f1IRftAiIqXgnghYpCE4ks89HiYYX6L6EhOma1nujHTlZGMITG8il0f5+4iZZwh5QTlAeZzptEIqXWONO9IScjVkKBIbnArpNBmjtTjllAPlENB4gwsUuxArIFFOqeYsR73lOgU2syn2QlVm4QVnL6P3LzaUc35d//mX+U/+c/+Jt//3mv+6//mlzhs7nj2+pZzFsxmS96UEdkcKOPIfg27UYD7PP9iy2oTsU4Zy4wwb/qzd40UUjfcA/Oup6iwLQUnUoo3WOUR857iDghRA+QGkcQNkYACSiJYo7jkKCs5TsqGAdOhzWObsbAfjZyVafIjadUQkEgiitIFIaXEbB7ph4754JwvE0Mf6ARiaPNiGoQYI4eaOZQDOSv7rTOOzrhXcgHzgGlAgOwF3LDQRgaPE25KoJJCJCZhCIE+BgZtBa+LCRNF+3AkDFs3y1Q2qwNJV4wzZyyRzdapVskOmQGbnFqaXyFXw21L5JYgE0Kl5kDZw7hxcgQNkcWsR9zpTJhrIpDIu9rw7RTodYakwPVN5uMXlWxviGmPhIEJQzVwcaYsFpHNVtntKmPNR75QEVOyBcQFoSkYpoJ4AgLyJZ3OEYoDFEeoravaUaEQRyQQPRCcpswgiGWoBaph1TAvhH6im0FMENQR2llwMyKBJIJKwawc7Q2KG0xqiBWq6xE1KCEpHgNeBa8j5gXx42QnRnAaJ6SNsMt1AsuYO6mL1/Hs9HzppihXxHACXgldJYTK6dC1ztEpU58aG523eGf0dUFQZTZbIF3rCH1U8mgURtwrqpXCSGXAxIjBCS4ET43B7TIWFF0MEIzHcsLQwS//6o/40YtrvvG197BD5sX1FopTg5D2Ee0TvocYIru9U0rg7gDXK2dde2R5jlskxCUSjoyuRAhCSJXQK5IETYbUCS+Z1DkhJEIccBfGqTY8ZRX9knA6SjAiAfU2b8lRejJxkEI3KDpEDvue5y+vWY3XTDVRLbRi4E4SQQJEj6gopk4NHTUMEOaYDIy5x3WL9JXZUJFkpD418mu7JNc1+wxTUXI1KgUouELV0LpVG++QYKgISiIJhNB2BProRBGGLrGczRj67nhY9DjiNBRjXhjzRBQjhBl32xE7FFJX6c0QOqpXSlFAqB5RAXOlSkIk43bHdr/nxcuJMlWkQLKOZErXKaUeQAMpOfuxtGs7QLUZr68nPnu+ZzUu0Bi5GE45Wc5Z9gbhwFgOrHYNYeROqVlwD2Q78hwNlzWC0fU4goWj3PgllShf8SrNiKmIC2rHRNKjc8EcEcOyg2cCRhQhoaQ+oCniuiOmkb5z+iTE2ORIVAjSCo9V53AwpmJAoE6BEJRFShg9U3GmPOLeEAiqZA8NybhQasRIBE1UjFqdoAbmiDYfRIpyHed9Wrop27WQa8bTAL0yny3pY+Vs2SCEx4Fgj7gbt+ymDTYZ2lVmp4aGipKJsafkwnq9JR8UCYYEo1htWnCKYBAsEMQIfSDMBrq+o4+F5eq2ERjDfX7rD0b+z9/8PnMXdjenFDswnzrejDPOd87JWSKmSKlCrs5qF3hzqOhJgy+x9sfHZo1LoSNIpMoGF6dYQWoi+ICmHttPqGUO0wpEqF9aUTxjR210ECUGQTQTQjPLeK1EKqVucK306QKrZ+T1lsONs9stmKTinWHRkcnJHogoUTJBmgQFtMotAVMgVDQY2/UNu/WWcTpgIXB2/pBxP+f1dWU7DozZKe6UI5ooBSZpcDyoEoISghO1dZMUWnfqYqRLyqxLnJ7OGbqemkd2hzU1T803EKHrO1KCqJVZp83We9Kx3hhxfeBuY0jumWoAjY3sSyMTTqmJWmbkOiGSmMqOw2HDflcZdx3TvmN6vOTspCX2+o0T+xGJge2+5/XNlhdPt7x+tWZnmf7C6JMyu3/Fg4dXzIYJ9RW1FkQGtivjs5+84pPnd2yqQu6wkqg24DnhIhC/yulGCkpDagpHVuzYy49eg6auCdUK2ESfhNQJ0QyVkU4qXRACMOsTy0XPyfyK2QJm8zn90CTWEBQNoCFg1dgfdhzGHevVlvV6z2FXGQ9QJgUGYkwoME2F0ZxqTXXRmBALiBtOBjm6P631o5K9qSkoquFltPFw4t5Rc6WU3DwBIngp9DN49+GCagf2+8rrFxs6O2WzLajvUDFmZN55dEoattyuJp5+9orVlKge6GIgfinPUHCaa8qOcEeD0IfEoJG5w+NH58zmI6ITV1m4vZ2z23WsunO2uy27w5YpbNhYz1WeETuhFCUIjLVHtNJ1izaHWSK4IggxHmUcjBgTjccRdndbzuYznjw85eE3F/Rhh8YJDYoGwb3NbK6N7U61I6hSvTRYFSJd6gjupGAcpgMvbkd+8IPXfPrJDZvDDKOnBmM8NMNIFCFqhxHIWglAkg7xSCAwl8iByqxz3nvnksQC94oReb3e8JNPXvDZJ09xXdD3F4w2kdPYDB6qHByKTCg9wTqSCTGDaWToJypCioboQOw6UkqUUrnbX1PLmpSc5fmCy6t7XFyeMp/1aCh0gzGfzyAGxmnkbrXjzWrH82cv+fgnn7FaZVbrEeqCw64nj4m9RtZ9pe4LIXXNbReV/bTh2Zsdq8Oe19uRy7M5i8WCUgqb3Z4pO5Ml1ofM3a2x2wdCN+esE8QKj87P+DPf/hnOz6HmNyCRYXbK+s74bv/7fP7qDYxtH0I0okQcPVJo7Z8eCTHkS4ceRxdQQyEckVkz9TTzjtX2DGsJ1DLSh8qwiFyezjk5mXHv7IRHlwveedBzcRboB6UfOlJSNDhVMq5KFhhLy7e7uz03r/esViOvX+54/WLH5s3IatPWC7quxzVwOKILq811qA5eC2gkaCLpQAeUccNkGSsw67ubePf65sStZ789RTglSIMmwYwPnzzgP/xbf4mpbPjH//i3+c1f/2d0w9cpXumDU3Ol145f+M63OL+65vd+5ym/+j8/R7pvEh4KroFahYjCUbttQkMlhgZXfcrk/cTysudf/8vf4f59Y7fdsJkS/9d3P+d//eXvgT3EDWbLc9JiAGCXO5IrSNf2wxD6WcI1YKWZD+woa4hVquyIMTXGE4Ei7Fd78mbNX//FP8e3f+4xandI2B6daU0WsVJBDA1O9IBbbdAsJjxEkgTqaDiVEJW7fWK7/V1+63s/ZiwDpHC0xvbgE6aOuRJMcRJWhVIC1QLSB6xmFmp8+M6Cv/xvfsT5WWa/XxHTwKvrzP/yD/Z8+snnHA5QdWC0PVUNlYAZlGpUr0ct2tGj9/64GEhQ6FKklkqeJiYvjOOaLk08ebLgyTsXXNw/4+TirBUvoJSRnLfUukc8MJsFFidXPH7yiA8/+IDv/Nk/xeuXK374w4/54vmKV88ObMaJ0TI1gGrEtWM/GYQBmV9Sbc++bPni00wqd3RpSzfEpkVXKDFTgcqceDrQB7DDHrOJpVceLYTTE2G1aTyD2GuoKzQ/pas72AqxPiSFUzLNyFPd8CNBZvCVD4Dj6HRk2RAPuNiRL1HUnVxHIpVFdIZYUN1yMjjvPznnow8ueP/JfR7eP+f0rGM2gxgaFyMayCWT64gAZoUuBBbDAsS4f7YkP3QOh8LdzYZnL2/44sU1H//kNZ99sWYqCdVLZmnJ4TDipWFLAnhtf6MS6YLT9cY0SrMjJ6WfDa+jynBS6cF7Ouvpq9EjLELhMuw5m73kzd1LUrhmd7ghzr6Ju5LrxJgNcuB8Hrl3pgydU8aJro8MSQmho47WPNQGKcWjtiiEFAkYZEe9cO/eBfffWXCxWDHvhNMS+eidc1IUVvsJ6py6g0UfmPUDtQoS5ShVla+cX8091swSbV4CC46T25xcO4J3SFXUB3y8Yz4Uel0xTZ9j5Q6x2jbimvCGpogQGCejliMj7geQGbE60YUsmWqZQ50TB2NXJmosdLHDLDYd1iKihplSHaSmZjqhFUO8MeeWRxbzM7oAq9U1uezw3Yqcex4/vuL0dMbq+QFsokRhMkE94LQkh0Ycuh2NtALFCkWnZuuIHbGPDZ3ivPPOQz54/4rHj2bMlwZpouqaqRQAogjuBfdMsIhkYb+7xqyiSTmdd5x9M/HkvW/y+Scbvv/9L/jxD2/Y3VS62tjeagIpN2a+GqLz5lcYQK0hpW0puCViFxuCKoJZAEu4TLgfcDemUtmOIzo6h1rQ2HYIaujJIbCvsDdjEsPCl2ShH+25X1pYj+aVo+ml5XMTr/3Yyb15WduwFgJDN7BcwMWy4/z8Ph+9e8433r/k8cMl95aR2czwsCPXLYdxwkwoCLU6ohBSxKxQq0A5kFIiBiUlYVBl3i05vUi8++E5l4/OWfzwOT99es2bmy1WepI3ht0wLDRpMuQ5UhIxHRhSQ6ijdYhk4oxXMWp3pjojdImCYDJnqoFUGrkkZUTqAZu2iFe8KlIDGiam3ZpgTh33lHFF3m9ZzE+JiwWz/ihJAJSKurTtc2lQ0lxRSVAmtIPzR6cgldVqjeVCijMeX/W8/7jjn//BDf1wRoiRWAfcKzU5ybvjQ2gGC/NjJ5PaqrrQHF7meEhUb+gEs8aEp0Q/nDOWOaOfU5hQzlFxrNCSWCt1rEczSQN4ISriUHIhScAsU2yPaMKlksvUfN8qSAxQpCEXDeCh+a8R1BS1Nu+JDASUaBMLDdw/PcFlw5RfkXpnygEROD0ZODtb8PSLG6oXzCNFhOBztCbwggdHPDabsSjVtN2P0KyVvUEIicU88eTJCT/3rce8+/xjOYgAACAASURBVHhBiHfs982nb1FIIYJ1TLkVJ2ygmpD6juUcDtOOKe8QJqIq8y7y/vvnzIaeFITN7zxju6p46qF0TMWbNKUGMmF5Ql3bs3Cjemi68OSNCCU1aFyEQqDT5pBz0aZrUxjdwCe0Jg6hMiYYBUaFEgJEIIOJgkk7Kup4aSYWP7Jw1Y/uPAGvQjjaF2IIBHHUKvPkXJ4PPHm04N1H53z9/ft87fGSk4UgPrI7jOQ6oSmgYQ4quAVC7IixQzXSRaFWo5ZCqWA141aAjITKyblwnk5Zni1YnJyyWHzOv/j9G65vbolhwDSQc+N+vFaCGykFhiExmyXG2lHGgFMOv/z3//42ljqexjQndpEKFFUIHbkUQjenlgHxE8ZDQOjAhcVi4Ox8xA5b7j1eM5sXqD2zvufewxklZhbdjLu7AzJJM0wUp4xGnHeYtiUAlQ5sInaB5cmcPigaBiYmJASWywVX5wsOu5fMzkM7qCb41LzDlpRAs2mGIM04UBXo0FDbp0A0sI7XtqShEo5arbFarciHNb/+G9/jixdn5OkNXjJKQBmoVig2MVUjm9OFtlxydpr4xgfv8PjRJTJtQfdEd2qammwkq5bg7kw6UY4zHU32/MpBBgUVIRBIoR4JMOPs5JSrq0d4zeSyaI40OhbdwOWp8eDBCT/4+AuyT1TpgQje4TVSvDYTh7S6p0pDCzTfe4qxGTm88uTJu/zpP/MBDx/0WH3NflrhWoCe0YT9KNy9Hlnf7NnvJmQyhj5xcXHG1f05J2dL5jPhMN2Qpz0SKsPQ8/57V2ALbneBmx/8lNVuBWFJkI5cpSWbQqk0W6oKoRuwLlKKMXkliBJEIDTVIWhESJTaNPEvt+xCUFTDEZ3Vf2mRplkVm/TZbL8IzV1o1gq/Q82tOVTkD9l0N8Sb+QnRowQlBDEuT0/4mW+8zzc/esjDi45O98Ce6iMuU7MspzmlVNbrHavVnt2+UGs7iTEqXR9ZzGecLhLDEAjRQQVRo1IZpwN91/P+B5cMw4Dqp/ze7/2UV6/fYHXO0M3ZlfyVpVa7QN9FhhgYR2PcH6i2vwaI5HImoWl4LoJJaDDaCxrAJBC7ObkIIfaIONW2vPfekm9940/w3qPAfLlDLPP1j674G39j4nc/vuOzz531rVFFCBqIktrHx9RmkonaaH6rzsli4PKkRz3jX4p8bvQpcH56wmw+cJgmOp1RvBJi15Yu7GiPVqPWY/VFEI2A46VQPbc5xQNe/WhcyORiSFhSxPg//ukPjxbOCa+lLWR4I6AQ4ZArRKHTQNnf8e47c4a/fsKTxw8YTgf22wOlRCqJL15P/MGPC1Nd0HdDW/M0aJsx8Q9dbaGi3pBEUAgRVBoVtJwPnJ+dA9eYgeqXH8QRWSwi52cLRCqVCkeNtOaKmGAiQMT8uNLpjolhEuhlwALEIXD16Jx3Przk8v6Mqjt2+zUBo+971nvn45+84ZMfPOPzT+64fVOZdkY+TNQCJ8slX/vwIT//nff55jefcHr+CI9rcl2RQmJYBr720cCfnS64m17zez98wz4bXbzCNHLYj3gpdCkSju4+y5XihtNsrypt5dQxVCMpBSgRkQRfSl3H8i20e5dSIITQzpAo5ta28aoiUf9wMQc9rrk2nsZpqABrm2VtJofgRqTSh0zqK/cvEx+8u+Tr75zy6NJJcU3Ju7YpqY52Sj0UXr80nj6749NPn/Ps+TXPXqw5bB00YtVZnsx48PCKJw8u+egbj/nga5fcvzen+Gt2u1eU4mg0TpcDlz/7AKszVrcjd7efsR9HQr9oZzEoWmprcubkaWS/2bK521D88BKah+K0C4J7IwGWfSL2iXRw+i6ARCT0TOZgiRgj1dacn1/yr/4rH3G6PCC2Rs1Znix48sGfYn5xy/d++3s8f1U4e/AANWceYtNw3Y8dMlGrN9vp8oQHpz2BPeUIraGwPBm4d3HCYujZFMOSU3A6T9Spsdci3jy9Ks03rO3h1aNjqRr4l/O4g1Vrbq+pUjwxTqest/tm+u8bI9/YUifvRzCjSwtO0wmnizmLy4mf+/Y53/iZbzBbJPLhDqTS9XM+fvaSX/5Hv8uPfnRLShcQEiXXowG6uacURY52xaAt71MfSVFQMt1g3H93QZEDPk3M5qdM0wHFSDISusLZWUdKldW0oZ+f0dySbU88ajp2rAqxdULBG3HKQB87TpbC48dn3H80UPyWvF9T3ZCw4G5T+J1/8ZR/+E9+l9//3k/xccYw3ENqoE89QZzNFyuePX/K7//gt/n5P/U+v/Cv/Uk+/OCSlAZyKZTNHSEq77w759vfuOT69S2fv1hhzBlCj8RIyY5OflyKaUaU4m3PoBm8mmU0ylGW6hQrChKQkJoffpqQaqQAboGZRYaipKKkDE6gSCS7QFUK2jbJRI478Q3t1C97d2iqS6Mm2j0TcWIQzk9mfPTBA77x9Xd59OCELmZy3WOeEe0wlN3O+Mmnr/nt33nBjz95w93tjt0hs9sbViNBmn99fzC225FnP/2MZ8//gOtX7/Ltn/uA+08Ss2GGWyvQ6hXVzJNHp3z7Z7/Gfr3hhz94zer1K1KnBM+oF4J1BBxVx8woueLurYN3SU/PT+dspsRMJ/pBuDqZc3ZReHgB6itKN3L+UPnmh6ekIbPb7Rh8jx+2MNhRxnFqztxtbjjsCrUa2azpd1Gpx71bOUoUglDLhFC4ujhhuZhh7DDz5gc3o+szl/cCy5jZvlmRzpaUkBgtMjvu+kqpx00lBwsIbeYuZpgdWXsTMKXWQi4TUy4cJmeaAiaR2M8pVljvJlQrKSZEFTojqXPv6oLL5YKzPvGdP/ERf/YX7nPvYSXzghomanKePl/xj371Kb/2a1verJfMTq8wixQveNBjknct+ZgwEcyEGAX1xJAGghjdAIuzOTEaEipOAWkHkdAxmycu7y25ODvl5lmFfHS0yEQ2I9gSaFtJSvlS6yGG2BYicM7OTnn/a49ZLAJTfkMKTowDb25u+Rff/wm/8us/5gc/XFPlXfrTB7icYNaxVQPZ4zIS3Xg17vjff/Ulr+4+5t//W494990z+v4N+8NzVCNnyznv3L/iYv6Uz8q+JY8ZURIhKF6+NAkZmDZfUXOZHNe529KMjda2w6qw6PqvFmREm8MQh/BVcnozhriiEhv5BsfGEY5IyI/GlmaEceerrxsyOPI04kQKQ6pcnA88vlpw/zwwGya6WME5ujKd7X7i409e8Bu/+WN+658/Z33bM1tc0s8XnHZLphoYpwxWseCsdpn9ZsWrV5WnT5/zox/v+Uu/+C1+9mefEFOm2IFpHCllz2K55Osfvcftmy3PPt+zur0lphlB22cJhKBoOlp1jpSUud0AxD7I6TCPoIHd6g0ffhD5xb/ygMf3ZlzOAl01FtX4Sz//Lr/w0dd4+SLwP/7DT/iN72746dPX/Pm/8A3+9J+8x3x+xrNXL/nn333G935/y2QwW56QCbhGhqPDwL00broLrA8Hejeuzi6JqadIw6rJm7/XyVxeLTg/GXj5ciLRiJdqE1OsDVaJHY0JR1xlfvwQEkf8uICBUjxRcTJCJWA0w8lEYIK2cBE7io8YTvJmXLi8WnBxMmPQyrvvnPOd7zzh3XcG1vvPmXJlvrjgbj3yK7/2A/7Jb9yxs/dIy8Bkzezo2h39xt5+a20rDKKCobgpMczouznULcN84PLqlK6H/WHEQ2nbWhqPH+hg3Lu65OHDx3z64hW10NxwHFcyK8j/zdeb/diVXWl+vz2d6Q5xb9wYOSdzqJyUkqyqald1N6pgAwW00YZhww3D9oP/OgN+tRtwo10qd1W3pFRJylKOynkgk0ySMUfc8Zw9+WGdINUvZoJAgiCDwXvvPnutb33fbwX1vF2JWUlMUWlS0qxXivlF4vRoxWwypa5uoHQmxsDF2ZqPPjzh40+Podxne+uQ1Vqx2XTyOoeAdQFrRbwsbEXILd9//5SPP/6a6fQthuMKpSwaTWEte7OKw9mQr79f0IZE10mPr7UVdTsrUuyel91S3aT+s9LPfnPC54AlU1onr2eKFK7AxxLfJQod6cKGzaaFpNFZRM6sQWWDURafQl+ii99eP3ewJUDMIWJ6kerKopDsbaCuHTt7W4xGhXi/e7BHUTSA4fj0kvc/esBHHz9i1dVUw12KakzICu8zbScPYK0zKiqcq2i2S3JYcXVxxldfndOMPM4F7t3dF0dc6rBWUTWQJo6D2Zjtcc1ZeYFJLdG3qKhRddWnA+k//5lMfgZgh1v1xBWOLgryeLg15uadWxzuXKK6ubTDPrE3m7H18i2OjzT/9ufv8eVXV/zhG40dtbzy+ohhPeLdD9/jf/8/fsPxxSGDw1voBmxuGUQBCXQ2UxjIPhJUJrSR2VbNdL/G6lacRKpB48m6I7Fha2vMZLpF7TqSjxirUEaRCaIQ59xXBv1blSQvTRbaSI7yId8QxRKqNJ6eBachlkmC+kS54aLrP3wFg2nNeOLQesnt2zP+7Ke3uHFD026OiSmibcGjH8751W8+4Ze/fp/T8x1UUQAan0RPMMrKQ00pyWfrSAqBnBTGVaSoULkia4uPa4bjsXyIzApDRCWLcXJAu9BhjWI4atjd28aZUzbBg2tIff+aohF7pdHPHdYqQddmUuhYzTuWy2OePH3AZGrYP9hnd28HVxQcPbvi+yOHZxdd7LCOA9bZ422fmNKGZIQBR0xoVVJUYy6vTvnm62e8/ebLNI3F6AqiwhYlW8OW6XbDqGloryIY1YdjTf//US6BnEl9man7ElplMNheiPTiLNQKpTVRZXwORABjyUaRlHyNqCApRe5HYtcuVN337c9v7F5QE3pLFNgFYFA4rVBEgveE4KlKzWRcU5WRGJckxDZstGW9Cjx+fMaDh2dczRVFPcOUEzrl6Hwiaoi1AWUIUWJMrVJYFK4cgjas/ZqnTzMPv1+zO0vM9hxaOXIWxd26xHjimEwG1GXBZrWAlNGukErGySW18QIsKQorN/imy8Puasn5IuGabZ5dXPDZl9/ijGO7Bh/XlHXFyekF337/Nc/ODCdXa5pqhtIjCkq6sKQDnFWMm9sU5Ta2LllTksKSqANKJ3JIoC1BBrTEOGe6PWYw1mS9xKZEipWoTjoS04at2Q0mWzOsekTQC7JKuLwFuiPT4tGY1GfWU+9OIhF6U74KBVkFlGohxT75I7NoetCD0fLUS12kxFEXllFj2Bk5Ktuyv1fx5396m/t3CyKP6LoNUdeczeFvf/kZf/t373G6ALaGxD6Mo6IFnKinOqO1R8KKoGyCYGUOqwQe0foNWmd2drdxzpFCFMUbsShugicmKAqNrRJbU0dZtKzWClUOQTUEn0lYsUMm4a0R5V/pUsbkAD6wWHRcXSQefL/BfPqMqqlwZUVOistlwDVTuqBZ5k5EApXE2tsTSCwKHRVEQ1UN0eGK9XrJ1WLOYdxG6wEpdaLoa0lqqdz7+qHPshtSEA+1qFpCjqEHXWij0Kn/qSzWQA72ecUWsqLNAa8kYWUKR6oavHV4k2i1IShNyqqX1q79aL1LLYMik/qwSVbSFui+Csz0TrEYMVrT1DVVU6Bch5BtE1oVZG84OV3y6NEFlxcJbYfooiZpsVHnrIjE3kqsei1GHrwSXe0DSBHWbWC5aFkuPZMoL33wia7dkLNnMAxMpwVVqbg6X+KKClcVGKtwThMidJ0np0RROOnBHzxcbU0OJszXFW0a89nnp3z5xYf8r//Tz/iX/+w1BnVBFxP/z88/4nfvX7LJUxarA3amhyzmZ/LG6YBRGaWknNwdNdjRmIuNZdV2KFq04INltmg1IXaQW3Z3hlSFJrMhqkTWEYNkbr2P1KPEjZsjjPX4rIlB40LoRRKHVrYPk/QfaJV7H3EkIodcXtQAOZPjdQrDYpUhKk8y/bw4g8sVW4Vhb8vQqA07k5Kf/fgV7t3eJoYzsoo45zi9vORX7z3gHz/8luN2B1Xu4dQYmzWRKCmhEEi6H6hiCSqj8FiVMYWBrCiqgqJuWLenbE8127sjysr2qbdMTIocA9kCTpNNQhWZremQZmQ57wQ5VdAQkidZKWdTkD+fUegoCT6VE7awJD0h4cBnUvSch4jPLcl0KG1FOwgZZQLGSjBC9dbdGDKlstQDR20LXBGp7Ijt7W0Gg5qiKFBmSExrIgKuyLo3luSEQUIoEr8UplzuD5mRNMjz0jlrQ6IiYkk299bhINCJ/hamp8fQp+7EnaYBEXWV/EZxUfb/z/NbnN6S2gMbtHrhaEti8DHWopXkuVPy/d9jycqhTUH2jtUycH7asl6BUg3ZlM9z+FErPIqgIlElFAqdVR8X7gMtoSRERJDbZDZdZuMDzgiRRyK0hqZuaJqGqihQgO9a2q5lMHDYQhE7JZeXPNJERV8s1MjOLZEJGz+iqHbJnYVwC5ihVCIkzVffdfxwskVbzJiNp7xyvyF3x7z6cmQ2BL2Zc2M04rX7V5QleBzxoiGwIMSWjEfriqwkdLJYt2g69ve3KRopY0PwaF2TkozrRDALHN7YZzod8mSpST6TXEfIWjLNSd6NbER9TylDNCgHpETSa1IyororI/isEISEgibniDEywjMYhs4xGVnKYsPOfs1Pf3yT1+6VDJsFy6sLMJb5IvLbf/qSv/sPH/L41GDMTbQZiOE/y5uYslhcnRZ/gfDTDIVWKN/2QYaIqxWYSDc/Z9SU3NweUruWlhZPIHiFTiWlFz6bDhIaOdgbsL094Gy5IKbEJgh3TWklEIK+CKUXonIEpUV81OnFwVBYApEuZ7oU+gTVNT01Qi/yaSs3qfGSHxgUJQMLdRWYjIa8dH+LySSj9JKcNxilSdqQssEH8R84Y8XFlxTRC7HGZNsz8OK1fs11sitnIetoo+Ww50jos9fKaJSx6CSKvDD3vAhw2oipSGmyykRyL7j2T3stnbbqcUu5/y/l/Lx/10oL1AMNeYP3iU0bCDFhLPTgQ6LKxCzQTgGRCnEn9Dw7rqW/3BshQCpNeI69Bo3S/WNNGcy1IKoSOht5+GkoSstwWNNUBUZpQhZXWzZiYgpJhO2sEpkgN3hZ5WGgJdCSaEnaU2jDoB5SuEwIC5ydEHymHht0lTDFGT/7830Op68w2aoZm4BeR/7i9de4ezjmeL7iP/zjOc++ekQuMzlmKlfKmK0wbLpACgWFqrl1uEfpgjxdNRyfLkhRsb83wdkO5wy7OyPKOpPnqmePdcRk+1mpkhK8J2Zcs8RiSsSYSDhySiSdEPNhAtP7nKMEYsCQgmdcFmyPG8pizWRseOed2/z4rRmVOkZlqAaw2MDHXz7j3//8Q+bnlt3qNvgxy1VkqURQVK4T7JexJCD14xiV03MvfEoJ7TRaaULXEmPLbPuA4bDCdxs2oQMF80vP8uKCm3u3GA4bum5B1ZTs7864cWPKF9+eoAhixbz+cCIzXMFRJYLOBOdAyb91HTIuL7Hq2nYrN71SQ+lVi4jtXy2VxGxgg8AOCmMYD2pm44aBy4yHhhsHFS/fP2QyGZKU4KuVsWxi4vQq8uRoRQgGoypUVGgPylpMNnQpoJOS5KHNfRUm+KSYDbG/iVOWLIPqoQtagY4Rm2XcpYNCe42NhhJLkWROnKMYjq7V+tx78pXVqCzW3hRl3NojH7BKBD+yfD+r1YrFckHXtShdiJmpW1OWGudqmqamaQYYZVFonC0gVbRZJiU6C0NA3ntR/LUSF6PuW57KOaZTx3Rri+GgobJJRL+cIWRyLqBL6FygjQFjMFicqyiLiqqC9Vr+fjKkFPsDXhaDpDK+x8oYBVVhGA1qSgOtb8nZ07ZXVJXBDVfY0PHSS3vcP3yJ7AMpHIGJuMpya/sVtiP84sN/5OLyhOF0htEFpJJMSQyJEOX2GDZjdmbbaHMiAYNs+ftfvE/bZv63//l/RJmIbwOjacvW1JCfaFRREnQmmUwwCUc/QkIehkZpTDYQMlpZQtDyNEXElNRjjiX4oskpyXIE6xiPxgwrR9PAj96+xduv32ZYnWFDZL1uSdZiCodzcOfWLoc7Q4If40zD5dGaJ6sV8yh88qgMSZUSwc3ITDMCJpJVln5Pg44JQ0dVG/b2J1RFAhXQusT7wK/+0wf8/jfv8W/+h/+eP/uzP0XnJTFEikIcZZn8AjeVxCfQW7lE6dYSfeV6tpwSKsqHTUiq/W2vLIq6n893WAXJd9KDKkNjDVrJZGE2GrIzransip1JzRuv3+X27W2qumUdWrJpwSSulonHRxsePZkzX2uUGhFVQ7ARjO/73E4MO2RMcgJENDLD1tmJtn09vooa7TSmLMXMlNp+nKUoraXVTh5ySWOVJes+E86LH88BHf3hBchGDrUW1JCIgLkPSKWMV5pNm/EpoguDzpY2ejIe5xzTrZrZ9hBnM8u4RmePNgN00gKDoL94JJaItlrGeymRkoAlBoOSnVnD9mxMVZUYvZHfryBFIJf4ZcfiaslytcRHiWdb6xgMh4zGirYbUDUV3htSjFKiT2aT5mQl/Y1RCqMyTaXZ3R5BvBITgc785V/+iGXa4bzt+Oi93/Plp484fyQbQ5y5kD+rFWtriSjmK48tBhjlIGowErD3nWTDQwzszCZMxw1FadgsFBcXKz765FtWi8B/999EtnccXbekrktuHM743YcbbAUpFGQTe7ihE6dayv2sM0B7SlN1GGM47zIpD0A7vFbEDJhAThGlO4xpcAlGg4pRYbCc8/qrB/zlz+6IiSdcosOGLiRCUgyGip+8c5+X793l628vefDtAqsGXEzW+O9PcZ1j0W7ouowncF0V5oSUv0pSTUplDBlHxuSOrWnD/t6ErFbkCMN6j+PFivPjhs+/WPFPH5zwxps1yll6rZLd/YLdvQGnl2tSN5SeU/PCjfVHH2x13Xgm+R7si4IRncQ+mhFPOAESgRQzrrcBmwLqwjHbapiOoNSXbDWJuzemvPrSlGaY2LRrstfkoiJmx8W84+sHV1wsMqvOSO9qXF+lissuqx5j3D9wyX10M4kkqZWAI3WGnEQwi0b3UEjdV35JVGQbaE3CF5loBQ2tHajYTxiuW5Mot/c1yCMq1XvcpY0hSuGujMFoAWvO50uOT05YLCKDQSEc+GsTzHSLO7dvcuvmU77+4Zx2Pcc2Q1RyqCA9t7WFFOs5yOgvJoheWsNCMd6qONyfsTsbUBWeFDsMCYMjImdotVpzdXlOt1mj0VhjSTkTo/D2lDI4W1AUDmuV3OCT7W3niwBnJaApyIxcwWxUoJKncOLz/Rd/cZuiHvLDGXzz/m/59//2PXKKDGqDsZdYZ8kaLrzBxxWXK1Bpj/YqUxSK7HSP+xWssE6em7cnVJWsA8pYLs43rFYa31qePjljZ7fBWI0ncfvWbVz5NcFvMEX1vNyNQUGQ9JhxhtytGBQbtketCCQ2c7kIrLsB2CFdAgkxOIw32FQSU2Tj4HS9Im+uuH15SEoVlkAKJcoHjK1QWpM2C6aNZn+kubk35PytGd99+pAv10947WbBt8eekCJtlBJVmwIdlQAUciDlQEKQzUoprFb4ds54q2ZnZ0JZRlIKdK3n0cMn/PD4mLIYsF4Fui5SFko2lVjY3R+zPRtxfLaRca3ryxhka8t1YWOippcqIEcJ3KBQmF6gzDKhRHpPydFrnIJCZYw2DMqC8aBm2BSQO5xNvHr/Hj/50R2qsmW5OiUET1FUJO25mG/4/vszPvv8O9pWg6pI/aGVmsEIiyxr6KnrSgv6QiWQUI5+3tLEkHoIpKftPDGEfh4u5hZxcAXhGgjOVmy6KYPR6J7vrpSW6iAaVJSvLxgnCRRp03+uiCTtKBJs1pGjK88Px4qnR1MO90qa0pNSx9VFi9XwystD2s0dwq87Hjy+wsSComiwWirIpA0+yYPeWEhBfOmTUcmoKbh3d8xLL22xs1NRln1yXQn0sQuZbhU4Pr3i/OySECKlK7G2oO0C88WC5dyyXgsXwDm3/OKzDzcAdrY9JDjZvKGU7OS4cThhXBnQYBRE1uxtD6hry2iw5kdvzHj3H9bkXOF2LbXbYrGKLIPhybHiYq0w1YicSlTucNoRfXw+/3TJYN2KW3eH5HxKt1oAA+aLgvNzKFTDyZHHqBFRnZLWLdNZTVkmQtsRNomcwRWGHMT6qrLG5A2VW3FzL7C3c4WxBTfdhG8eBr5/vGSde3y/EksqSv58SJH5KrDMnrhc8O67H5LaZ/zrv3mdw2lNqUssFm1LINOtV7RxQdaOvcmU4Rt3GRUlv3j/KfnJOTkGqnLMZuN6xV71hE2x0CrlsMbilBUGl5+zNdxnNJAYausDStVcXTrOLwzO7XF6vOL49IpX9wasuzld6JhOR4xHFb69ElMHsbet0ivCzwXhvruUu1xwzerFr2gRhtBa3FvZoDNYFXBawh5blWU2LKlsYGcr8NorM37yxojD3TPmizW5XYCJoIdcXAY++MMJ7773Pd89WGPzCGu3iMnSdYGkE1bp3jfffw/9eCznF8sVNDLL1qr31SsJjgjtt+9jcw9y6PWGGHMfDRVia8qSikxZHF8oSybJbre+ndH6+uBLJRujwmmLwaI0OFdzdXnON998y82bAw527lGWBb5LpBBQ2jOZOt5+5wbrNmLNUy6uFiS9RDU1KZf46Gh9JgaPsQrjNIPGsLObOdgpePVlw+07LcPRUi6SrEhGqo55DBydXfLZt0/46uE561Zj6yHKQdu2rH2gDRUxdVityJjj68rNbg8qTi7WOF9gUySnBS/fe4V6YFi0AhMMWGpT49sWpwM//vFt3n/vS5pqzNvv3OCv/voOR2dL3v/sGx79uz8w2P6x3MrKUxMwOhJTIGqDigUxZ8aTmhs3ZiQWUtpvAs+ONrStRtuK7x+dk8JdMIqyrNnf0wyna06+CwzHMwnx50KcUNqjlaYLV+zMIrf2Ezf3FrS+g+GG5dpxPxB3IgAAIABJREFUdlaJoYKaNkRMkChizBFPYBVbrKoom5uczpf83c+POD9Z8Df/8kfMhg3P1mdgDdvTyGRqGTVTIHB1eY5VhrfeeoVQ3+Z4+SFnXz4W1LDV+GXsOeoi9OjeuJGU6lleEFLH/u6EqpRxEijaEDk+O2XRrjFVwflyyQ9Pj3jlzVsYZ6HbUDrDzmxEYX4ghA0WR9vfwjGl50QahQiSyhh07pPufwQ4uBa19PV8OEfZspEyzmhG44amKSidYTxUvPbKTX72k3tMhi0Xl9+TksJYTTkYsVp7vvjyB9797Rf84YsFyU8xbkxmiO+pOkppYhaYf85KbvFs+5/IQ1FL7y2amzD5Vb8xpnAF1ji0amWDjOrZ8VkRgoiroPrVTEHU9Hz9awpZ55YRFLEIbCKqiaVZGVk2ETpDJJH8EEXk6Djw6acn7EwOKItdqqKkKCWXjwoMBtv89GdjJjv7fPPNE45Pr8BWxFxyebVms+7IOeMKAVzubg+5fXPCzcMtDvctTd2hciuVjpZHXFKWdfA8fHrMt4+OuLgKaOWwThGjF5uv0yTkjOUc0MqcPD/gTTWgLJDDW5TMtgfcvTMj0eFKS6sC7Trzzeefc3Cwxe5Nw517M2azh5wfXdCU93nzzV1uLvf4+ocfePLklO07C1JKGC1pHp2z5KJj6hG2MB2PmG4NyHmOVtB1kZOjc1LUuLrk+wffsly9SjGSkqsZTdg72OGTT75mON4lK0vM/ayzV8ZD5+lipC4HjIZT/Pk5PmVcOUaVA/TGCv85BlJshc6iFVZlrIN2vSSokqayLPOQ33zmeXz0JbXJrOKSFFsms5J7L+3x+it3ePNPbrA19HTtMZ054c7dHd768TbfPfiC9jIwNLtcKBlzxCwmDxntJJyyaG1BdzgX2d/bEgpIShhjubpY8OTpMcvViu3ZmFW74tGT70nqZn/Tyi2zsztjPBxxeSk021UKojpHLyROZfpqVVTZ3N+WKOnfpBHv+d1ZimWDRudIzpHKKUaVYWAT04Hi1Zd2eeXejGHZARekuCKECK4kesU3D5/wm3/6jO8eXJLYoSi2+9SgHEBTiGstpE60iefDsV4rUJBV6ne99XPplKW1UFpY/E4WGOqcQStivh5naXJIwhLP9DpHHxeVQbhk5ZVMGpK61r2u3XXXGp+0TzFH+cwaqIohq+UFH37wBU2haaq3uX93B2NKFJEUPEplbh6MmG2X3Lwx4PjkglWbuJp3nJx0+FBTlAVVWdFUI/ZnUw73h4yHBWXZkpQndZ0M9HVBiIbVKnJ0fMV3D3/g9OxKCMZZ4b3w+F1RU5cOTZR1XF1LrdXZ8wM+Go0py0j057hmyN7BmMPDbYyOtDGAySyvFvynX37AK68e8K9f/0sG6pSdgwGPHj7GaFi1J8xXkS4tUMaC8mgdsCahbEGkwGRN2UPah1XFjcGUkgUZT1CedXKcXMyRpR4Vi/may8sFt7Zr2vUSnzpu3JqR0lfMF2t0M8RkGfGgZPTgygHLyzmLs0CcZnJwXF1kji9aVm1B8pYQxOmTc8//TpZ1avFRMr8xeSJCYF22li8eLihcxljZvvng+Jz3P3vG/uwb/tt/9Rf813/9Nsa2rPKGrK94540J771bcXR8jnVjClvRZU/OkU6BU0rcZUlTlgVRrdi/OWZnUlK6xKYTweRq3fL46JikHa5uWKyXPHl2RdcJFQZlqOqG3ekWw4FifrXBuAnahz6MIVlo2Zem/7NjdG0Lve7YldTpyL4ZMMpg8BRFZthYGhcYlIr7L23x2uu7TLcznjO62GLqATlEgpnwzYMr/v5XD/jkiwWbdhvrDghePpAk6WtJuRfGJBSE7gWuF9/di58KWcqSE8ooXFGhlcdYwVBZY/E5yaacDCpolLIS+5SdSgKH6H0BINWBZMHF8mqek1XpjUHS01xP5LOCnC1KVSgs69UpH33yA86U5Ji5c2PMuCl7sOcGzZqmSty60bCzU9J1mU2bWG32UdrijARgGtdQOovWHTluUKrDaUMygDFsguZq2fLg0QWf/OERX3z5PWdnK6zZorROZu+AdY6ycmjTCUQidCSTjp4f8OGoxporCpvRJjEcF0x3B6w2j1BFS6kd0QeOV7D8vOCVL/b47cff8PlXK3wcEnVNYkDgiqQWaBchlVhTYpWXsYyWsrDVBuci1gUO9y11qYlhjVKK+Srw6OiCpAxdB4GS87PIndsjdIayTtyaXrF/eMEmHpLygM4nnI5UNqCSrDzeuCG/fxo42khm+rKb8+RSMV9L8iaaREhS0pNtD2dUWB/IaDFT9C0FFpKtoB7hVCD6BZUbYvA8PXnG//l//5ytHcN/+ac3aNslpc1MRgU//vGbfP7lbzi9uEAP9wFx38aUZC7qrKTVCGgNO3s7fUhDjBKtj8wv1pxfbFB2wGqdSblkvkzM557JqITcorJiUFsGjSKnBSlucErjEyj6/Wm9aSKy6eejPJ81Xx8nDcJO0WB60KizhuHAMR469vZq7t+Z8eabdzg4HJLDKSG0kP1zpPI3P3zHf/zlZ/zu99+yWNXoeoSPcrhzb+yQeXtAq97plyU0opSRgyhPGtDXD6Ak68GSgDu0tUCQRYZGst+dl51i18EiaxxGGTGXpAhZFj/mrEkpCNVFWZR2sjgwQ+6Z5gZxQqbecai1+NKNNeSYsKWhqre4ODvik48+ZVQFxs3rNMWI2snMuuuuyHiU1gzqilFjAUNShbRCUYGPEJfI6FY+axqNM47sDGufOD2+4stvnvHR54/5+tsjzk46ch7gXI2zDqIhpkjIhpREUE1ATIEutafPD7gpNWUpos+6M6Rcs+oy42oom00UhKTYePjokweczd/l0dE3xKVmWI1BBXIwEo4PilIrxlXGqwxKBDWlFZsYxWzReVAbtmcFdWNp12Kqvzpb8fTpBdmMaVXiatPy4OkJb/5ohK0SMQV2JltslUNOni5oJntofS28iFmgS4lQlDxalPxwWgqSJ496B5XnjIBxJRhR0DOWpAR8SJQ31fQYXWUaPBIQWPkeshTAK02ta4rRHZ5dHfH3v/6Ke6+/xN7WFnr1kMoOuHt7xvbEcnS0oNC7EhggE5XCtpJS0k52fmcTGQ1LdqZDfDiVZXNB8ejxMxarFq2nkn/WJeu24/GTU3am+6xWF3iVGIyG7OzM+PLLh3SbBbrcRisodEFWTkapSurR1N+YpH4u28MnTJZwhwWsyRRGUZlMU2ZmU8XLdwe88fqQw0OPcs+49BcokyiKAZdXii8fXPCLdx/w/keXnC0PcMUumYFANa7nyVlUYcULVPG1kUScqoZsnj93yH3RrLWRPXL5jw1DPQ5bibdBKY02tieoyhdROiMxW3GHkXr7q1KQTZ9B1/330CfCVUZb+d4SklswSva+K4IszjA1W5M9miaSoqLbgO8ihQoYE/rWwonvPEqZH683n/QudGIiB/G4l4WjcgOUhtgjpHJOzC/WfPX5Az7+4CvO54Hx8CZlOZHXkkxIEGImJc9q5VmslrShRamEUbw44K6uMc6hDCRt+cNnD3j311P+q39xnxSWmF4Idq5k2W749sEzhsMBr/7kNtOx5uZNBXlJYROz6ZC337pDNRzz9KzFh0jctMQukrQhECBEBqOa7VlDzB0kR0gFx8cnrFcBV5R0KbHYBE7P52Tt0MEQUmJUjzjY3eObJy2hbSVZVljp6eiIyuDbVswjIZCVUGliKvFoSI7cyrxfJ98v0hMHk7KGnATeGFHEfrQhunuHpsMUcih8dJhssT7QPVNwnDFVyUYVFNpRucxW00Cc4xI4NJsUnjuoUpYNpj4nShPZP9iiKWG+8WSTWYXI0ck566WlKrcIHqLXnJ91PPzuiHfeuitcu5gYDypeemmXDz94xHqxRvcagzz4/ogs2/feImz1wpKW9aC6L89VihgNVaEZ1JnJVsWdmzu89fo99g8KEktC20qv7hp8Knl0dMK7v/2Y9z/6jmU3oGh2SWmE78Qa+sI33gt7vTcgX7/yfdor69jvL5eDKz8cydAjtnqbatJ92Zx6wU5MPsY4jJYd5c7I/NmHQGwVuin6xQWSNCNrKQriNVykN55oGU/pcG2cymAkcKLoqCvL7s6Qve0ht2+MefXelN3diqr0KL0hJMlIyOojQVJdL1dQSmK7mkzSQay/OaFT15tplNCBcwm5ZjjcZrq1w6g5Zb3aUOoKqx0+JrogRKKUbJ+s9HgfiT4LQtnwQkV31YCYJbTXtpGLK88vf/0plV3z1ptTtndHKLVk3UJWNbYcUDRLXn9jxJ/99JC6PCWHOZWK/Ozt+0wmr/H+R+d89/0JGw9W9W+ycZAsqMjW2DKd1LLv2jiWy44ffjiFZLFFCcqyCR2nZwtWm8SgdKiQmI232Z1MiOE7ShXJyj4H/pv+YErZnUiUaBIxeUjIIgNdoBDxSMWEUYmkEjFltHUk4wjKkJOhU2uCWqGTRaFwOoAyYmlUYKxBdZr5xRVnx2fcfWnCupW90k1VMtkaUxQn5JCwqsLJxUkyiqhlRLTpPLvbJXs3D7jKHq88KnoWFxsuLldENKFHS2MVbdtyfnZFipnaDViuNmRgd2+L0aTk+DLQFzVSDvd2XW0y1mS5tfrXS6iuud+0kdFR8ERFkWiGnp2J47V7+7z9+gE3diuMm+PTpeytdkNaXfPdwyX/8TcP+O0HTzg5sbh6RsojcQj2KCXVW0NlQ0h+7h7M9MAG7PMbOyP9NqR+e29fYseEJ8q9qhCVu8+UKKVxxuB6i2lprtuf679D/OrJmP6g9cDF693oWXO9flkp3fM7eyin0djekFPVjtnOhDs393np7pT7dybcOqgYDTpUOKPbtPgk1ZnSiZAMIZTEYEmpXweljaDBFDidMVpUb5USIa3JRLQJaJfY3Znw05+8TTYNH3/ykJOnS1abBdZW0ldFGaEVzuKsACwUSiAQmhcqetaObCLaedZtB2GHL75oac+/ZNz8hINbJdl0srEyGzYBhtmwM6t59dUBy/kRbDpMUtzamXDr9haPnj5gvnhMZJ/BYCQ3R8oURFzYsNPUTEcjYj4jq8TFYsWjx4/IMTAZN1hXcv5sxcmzOefnC8a3QbVLmqbiYL9mu9GQWrrsCDmJOyw5eVO1JSIL2g2QY0QlAc6THUYVWNVRGFHSU15RVQVdu5GRta7JugQViVGyygLws4DCZogkuthijWcZlpycH2PyhCFDUirAGFxToQ34sCZZB7q4trMJzC8HjPLszCaMJzWeFVEpCjTn53NOzxdkVRCQkk3FjqQ3tIsl64uWndmYYAKRzHjUMBoWZD9Hl14WHOaAosKgkMwzKJNRqZ890TffyOFT/ey5rBWzvYKXbh/w1mv3uXdnjLUXbNZrcKC0o42G776/4he//JL3fvcdl5cFuIagS0KKKP3iwSGEFHmPxLjRj6Pok31cJ8dkGWMm9at+xb1mkhHiakxE7ckUGGuwRj936vVfrX+wKLwP5OwoypJoSoIXM2wykuDLyPeYk7ReOYtdlChWV5XBKkORDVZFNEu2KsPhLHHrMHDzIDCbrClcB8oT6XpSrKFTmuW84/TkgtOzNRenLWfnS+bLFUpFisIynQ453Jlw+84uB4d7TIcjfFiwWF9Ju6GBwnCwv82PvTyIP+q+4umzDTkZtMlgPCDpwJwjm43HhyhLIvmjHlx2D2tMYVDOknQJdoBPa/Ewk9B2TZfP6BiSbUG3Mnz8+1NyuOLl+wX7syGdX/H00YIOxfFJhw9JBC1tsVqDD5jUMrCag9kEV0p/bwvH1XxBu56zt9twa28o3vVFQeg2rJZrlN4CYynLktn2iElTcbZswTZiVUVKthwUUXtxJkUxPqgke5iT0yjVe9BjIkSoioqBqwVb28g2y6X3rKMoTjEUdMmCcn0fKzej1hqs4IiTg00O+JBxtsAjDG9sQDsk5qgUKYjBRiuwyaDZUBZrDvYOGTeKMgXWwbFOikdPljx7tkLZoYAv4wSnDaQRR8cVT4/WbO+OsIXse9saavZ2Kpw7g7SUSUaGUikUjoT4pgnSA1fKQbDETvz89B57HT1V0XFzv+DtN7e5f6ugqVu69RLvN7JOxyjOTq94//df897vPuPyomQ0vs2qVbRKS3mdemx1zqgssEi5PTUqxd77Y1BKwJk9rakfevcKtoKs+zlWT2G93vSprtfyXh9wJbnrnPshXx8UEQeHpUXhg5eHWc9B18qQdCbnjiTKo7QOQUvuXRuyM1itKYqC6WTI3bu3eOXVPXamhqoM5NTifUuOgtdeb5Y8enbKt99d8uDbcx5/f8mTZy3rVYnSpSyAJKLyMwaDmpdf2eNHb13x6is3uHljROkGsnk2dYTs0UZz49YWytwnBE/rH3Ny0tED0mSbbz+18iHgu47QdSQbX9zgsuGwhNxAqiVfnVtQK1yV8DGicYQQCIgNc7NK/OoXn/K73x3xb/6Xf8bOX72KbSK///Un/OrXT/jy4RxlCoqyxIdeCEkJ7QPjrZqDG7vYUtGliLKOne1d/vqv/pLl3FCWYzofubXfMGgSTV3IWCdBF1rG44bRsOR8LmuANiFcr5HiGtYnIL1eJAkRk+TmzDkRdcZpxXi0zXRaURSZ1K3owpqiLNDa8fhozpPzFpsLopY1Rlr1Mcx+xCQ5go61F1Ru6s0VKWeM0VRVIYklLTe2TtJ7E6AoS0zqKFxidzamdIoYA1Y7Nm3m7GzOcr4EN0LpjIoaZ0tczpyeLTk6OedNNyJ0nhw76oFltrNFM3zGfLNB2zGDoiGsZSmEMPFMT0iRhJXOSdRnDYqAMZqtseb2jYa3Xpny+sslo+pIyCE20LiGZbfFD6ctv/7gO/7211/w3dGKYTMlR0cXCyIRr6IIV4g3WjzmSgI2Sg5hJkNvh0Xl3r4sLptEkgx9L7xpYyWg4zNd5wnJ9n8m9uKcfP30R4fduYLcZrpNh89atrlqAS6KsabPjfVPkt4qILvYlZZ2orexOpOYNZpbO4Y7+4HdyYLCBaCTfL8qQJUsF/DVt3N+8/HXfPfgjMVlYrOG1Vpj3YC63iL1sdKUIps28/VXD3ny+Cs++LDhn//zN3jnnXsM6oKUO5L3GGdoBkPKYkDoDjg+OuP4+CGbtSdlS1UO0CkQu5YQPJtNIIRI1PFFDx6jbKMMfc+SgtBIU0rETno662pSKEhYNnFNmSBuDBfLksV6h00aUhZrPvjiMb/98BRX7WHKTMwGlTRdCpR9mTbaqpjtW1y5JvmITpnbN8bc3N8lRU0MqZ/jWpQKlFWma6/3NNXs7ieaYkUMCcVE1uUiXmN543IfFRXbZdZZEkU5ySrYftvEqgtsN5o3X9/llXuOuk6MRyO++voZ/9e/e8wz79FuiMVgjNhhjUvoGOR7w9BlBdainCNkjU2WTMbYDSku8F2LtxHleA4xKJSh0BYdAjvbDQd7Y0xu8WGDcTWXVy0nRxuKNKSsRxSDGtoxpAq/zpxdrHj07IrTy7nEK1Pq2WcTxqOCq1ZY2cHL/rSk5fdkJRnm6AM5JCrn0NYQVQcmMRpW3L834s9+eoM335hSVxvm81YqHVejdM1i2fHb3/2en//Drzk6jWxPbmL0kOXSE4NBlxJXzX2WPz0ffWWujcrZZVKQdUCicvfCU8+zt0BWEa2sVCJJtoIqtCjhSRYlqD7qKvQfpITnus8XgVFqdwFY0K9g5noU16/ohdj37FLtGKVBRa7NBMZpRtsjbtw8ZGd3i7LIGBMxRqGNbPJcLju+/Pwx//j+V3zw7TEXlxpnp3KwZ2O0GsnZaVcEAsYonNF0acPm6oJFu2Q4uqBuWl6+v0XTOJRZYwyEtMYWlpu3d3jttds8O17x8OEzvFcY6ySRFjpyCOjc+wNK+8LoknLEe/qSRv6RSmtUXNPYIaRICJmYFcop2qxZJMekqqlDiTID1l6hXE2bG9BTQtxG2x/EGqkbQl4Anhg3zPZvMNoPaNtShkxFApYks6RuSnC5j1iKGORDJoRMU1qM6phMSmaHA+zDS3zekKgFDhHot1b0SR00JmcSkWCRhfYRilhgM3QhcnV2wq2Du/z5nx5AWkNO+M0YFdbEzgs0z0d01n2jimy8SIHalBhrGBUFW3WN03LoUWtU6vA+ETvxFDvbj2DIVKUgblPomE2nTLYaclxjtELpyHr9A0odc+8lmO0mytqzWpywXEc2qzV+MycyYNPNGFS5v3EyN3eHbE8d35+tBfXTBYIWIZJk0NoSAENB4RSGCGGJKwKDQeDuDctP3xnzs3e2mY4U3WZJyhFbiLD67Nmad//pG373+284Ok3EMESlEUoPMWhiVqQYwHYYpdGp7Pep575Dltpb5f88vvn8R37xqwbX56W1lPqAVSKWldliYiLHDmWDsP6IJAumzigr2orJBdaWZGXpepuqUgqud7mqnsiK2IavJ3coUA5cUPL3+CUqbxjWM4blOYUNgMRajTXEoHj6dMX7Hz3m4z+ccbEZou0IYytStmQUbbsiePrlBuJFiJFe+S9Yrc744KNPQXWU1X/Bn7y6Tz20+G7BZjPHWBhMKm69NOTWg4ajR56ua8muJGXNJm6IIaDQOOcuP/n0g+75Ae/CmtwlSm1xSgs3TAW63NKlwDpmCmdQyVO7MaUtqAqNyxu6xSnwFKNGGBxqecagrIi6JMWKNoMqWjIJYomKjoOdCU2VsQY6oG0jzpQoZWlXkK2GHqsbQ5DUkFY4rfGdp2wadvYmWDdn4TckK2kwmXD0c9UkdseckgQQtOrHKXLT55RJKbKcz1nNL2nXJYaWqrQMKs1wMAC1RutKxJioSEF6SttjfUyObA1Kbu4O2Z2NUSnShRY7MIRV4Op8DslgtIDzyLIpo3Dii7aFYXe2y3DYgF5hrCXmyP7eLv/qb/6a+dxwtfJ4D6Fz+D5q6nTkpVdHVHVGK/mAGxUZjQomsxHFo0hMGqMcPgeJUkrMDFmRdN3SyutTFXBjb8Sbf3LAG6/NGFUtfrOiCwllCqxtWHZDPvziB/7hV1/z6BkMh/dZdpp2o7FORlVOZ5IKZFq5HbMCXD/y6jHF6fqm1M9vUq1fcPRyzmSte8Y9hCx9c9lTZaM2GG36zZo9TVfLYoesNcpCoiMRZdGGKfo8eZBdZ/1yg5Sfm+6lCED0gdxbYo0CbQ05ZdrOE7zBaEtVVxTO03lZvOmsoWsjjx+d8t2DMy4uC3R9D1dOSGTWfk0MHSG0ZDKFlh1q4i1JKAxO76BSzcXpM774bMHh/jmHhzcZDIZscsvGe0qtqAeO/b0Z+3szqrrg9GxOlTxVWZOzIQWN1RqNft5/A1jfKshrQnuJabdxylLYClt2uOEYkIVnm66jMpamiNzcbdiuImHTsLvdiEoeNVuzfXZ2lhSFZR0UF5uKq3WLLQw2aMpUcWN3SlNAaFuygkfH53z+2aVA+V1BXTicUxirKGoYT0smkzFd9FitqAaO/cMZunhCt4rgIpgCFbTMK3sBJsYkNwq9HRI5+DFGrDKYwnG1WHJ8eonvJrimZbU8Znu2w1vv7PPw6FvmXUtharqkCSGRcwfGU5WGkW2pc8vLBzvsjx2lXbHp1qRQcn7ccnrUUpc7JDulzVmWzmXBRat1S2ky21Oh5tDv0SR2bI8rdrcKtLJ0a03rA8YauhhFWNKGoi4x/Y6rFOWQDyc1uzsTCnvJep1xztGmKBs1yc83xqokvagtIsO65PBgxI/emvLOWxN2RoHQzoXdZh0xV5xeBD759DP+37//Pd9+c0S2Y4wpMcrKpo6QSQQwFmMEkRWSQpihur+9/6gyTr0JtF8d9P/34wWvTWOtI2vbJ8Lki2VhIotpJ2Vim/BtfD6tgJ6Jn8VBlpCHc+6hitrIdSppMvr4KsKly9B2nv+vvTMNsuw86/vvXc85d+uec3tmpBmNRrIkeyTZAiNslpAKEExRUGCoEJxyJSDIYkg5IZDKt4RKJd/yAcopEyCpEBsIBAIBk4JQAWPKNja2bGzJm5bRaJt96fUu55x3y4f33J5FYyMRA4k9T9WZnr597+nb3ec57/M+z3+R1lMMhgzXJyiVdeNKpXAuYGPB9u6CK+dmzHdalAUxnOV+XcgTFykkthgSBYTg8d4jVuKgISKkRcmSqqrplg3nz+xw5VLDsOpvTtYStcPHxLiqOHZ4ndsPDbh0eZckHEVZ4DpP7NF4iHTl2t+hjsGyNhlw7OCIGANd9Cil8D6ilCWlXaKUNJ3DKEW72ObYsWN84xvuYVgsOXTbkFLvIWLkTd/yMHfdcYX5bsX7/uQTLJYtSIsLYGJiOJYcOjhCyxmtlyg54TNPnOS//8bH6dp1jBlQGUNhNEpogtjhtqOGb/32r+b+e4bYwuJZcPiOAXa4hV4cQMYKKQd0LIk4SF2/98qjLYHDxNXiEfMeUBlCsiyaAU+9sMmVnXsZDSNSKeya5vUPH+Xpp1/g5MmLJHWQTg3opKTtPGXhGFWRA+PEXYfXeONXHWcyiTRpjzBItG3i9JkFW9uBJHOJmBuZCq1Vpqmmjnp9wMGNCYWJSCmyrayRxOSAkD/KAZWtiESMtUjl+g6+7qWL82qYgOFwwKGDG1j1HHnYtKpE80UsUu5DKBKVDVSl5/DBMV/5wDEeel3NkcMOKxuSy4o3UZbMZobPPHGZ33vfST7zlCfIe1B6iG9z0ol+3KXIsk7BgVRFpsFiMyT0miwWQvQTsr4WvgEff/WxnhgjBD5kNVlM2RPfZF9H90keU1bs7TXNQ8wz9DyBXyHwe855zGz0fJ6s3Z5kP2JLecwmZRbNiJ0npgapYDgoKa0mhiXeR7Q0aJWBDc2io5lHRLIUpcRbj2+zzXIhC7wv6NqM0ZDSEmUkiYQXEGIvWhJz1dD6wNbeHleubHFwo6AaWtAFMUV8m0VDh6OK9QNrlHYTrSVVYYhe9KAm0ILrV/DgHaPBgId6yUkFAAAgAElEQVQevJsmzDh9foZGeBnF+2IIk843r25dOND5PFpwrmEyFjz00JRhMcc1vcie9jx0wnDf7cfY3ax4/FMf5sIFRVRDVFEiw4x63XBwOkCJvexN5hTPPL/N5R2LT+vEtkDogCFRCCAVnL14hXvvWXL30TVGlaVq4Hh9hMmg4pIRNDEQmgbwJOlI0WV0llTEWJF6J1Gz4i8kSC6waGaMRkNOnznLZz7zDAfGG4wqxZWdyxw6POZbv/lhDoxOc27bcn4HtIdiWDAYlBwYSY4dLPmqB+7k3lffQYpXQGWaoV/C+fMzdvfarA8uNSJ5hJQYpTPQJHkOHTrIdGOI6ueZJPA+d50bt+i76jpLLgvQUoBoECiE1AgDTWyI/SogZUc9XWMyKmkXiaQytnnRdlmlpXfxLEtLUSTqaclddx3lVXcd5VCt0OISRFDK0nZzdvc8J589w6Mfe4Lnn7uAkutYOyRGie9L7pjIzc5+W6ulBZ39z0Oy2UVEkFfUjGLpV8q4v3qv+N9Xo5+L028nEHjXEbzEB5dHWmTQSC6uQ4821EjpEficy6sbh5a955u85nvSu+usMPmqh7TmVigiN9CUSsTY9SMpgdVFrg7TSgtQ4jzZBEGI7GArC4K0PSQ2VzfJZNHJFFfz+qv3trxlyjcnHwNt27K3O6dtHcNxbmwTLUJbhApoEzBVxJZzlF4ihEerhkEpSN4iRHnpml8mOviAFnDnsTFr9Z2894PnOXv6aR2MfdPmpYs/+ebvPPG1v/zrHz9SxvKB6Lv7jZAPPPvZJ0+8/w/bB+uROmiLrFk9GIHRDcGvsb2duHIhENoKW1p00BBhPK4YjCQRjXcdy3nD2XPbFKMpMY6RpiDRIYQidJG1wYjl7oKLF7dR9hjbO7tMlGB9sMHaeI0kGoIMBC1IIWa9gRSzJI80pGjy6EXm0pQeDEEMJOEZDio2zzV8+CNnOX7nMU7ct84wPo0uWr7m4aPceaTixXOXeerkkq2dSIdhuFZxcKPivqMb3HdsA2m3ib5hTziESjzz4h5Pfe4MnTeIUtEEj8BipMYanXHIccHhQ0NGQ49rd6kGAaLi4qbghefnzJYKt5QMRyOsLdEqa85XwzWkdAwGJdONEUWxxjJcJqWGJFsOrBsOHxyws7mk9SX0bClFwkRPKaEeRiZrgdfcN+X1rz3EnUcElZ5DdIDG6DWaUPG5zz7HR//0WR771Gma5RBVTAjBZH/0fi6ZwTGS1OSklNZixQR0wsnQo+ly8iXZT2ZS6KvnvOqIawbaV3HoK81TQe4KZRCC8x4fc30ipQbRV2sy9a7UeXsmheyTJr9VqTQqrWblOfVjzGM2sVLI6B/zfXNXp773pLIuedMsSalAYAj9VlBKi1QWISQudnRSEVK2Ig79zxRkIGTwf6buxtUqI/peiM5ONDGv6M4FQvKZ6x0zV0HpLIfmfcQ5T3SeGAOV0RiTaBauJ9ZEEuKGEr3rGFjFstnl7jsUb/3bE06d7FguG66c+8SP/+xPPvb4D//4W9791u99+CzwB9e++JG3/PxGUoPXRhFP2FI/YFW6X1lzf+c5Ops3DCqJjw2agNaB6XQNqcF1CpFK5ouGne0EcYJP2U3EhSy2r5TBRU0IYy5vefaWM6aVRssh82A5uHEU8dRzudveSawqAQsYkkqkmIUPEba3Ze3vnirPlZPUbAdJqg7xqc9d4OiHnufw9GsZmvuQaRdTOo4dtxw9Oub+uw6ynEEXAkWlObBuGY1LQljShT2cbCnFkO3tgg98+I958uktRtVxmlhk5JrKHGhrLbHdQ+GZro9YnxTENhLbQGUtFy5s819/5X8x367oXNaGr4YV1UBidbaxNTZSGMnDDz/IN/yNh9DlEO9mSFWyMR1y+5Gazz35JDFWBGcxSqIDVNZiVWIw0Bw7tsHrvuJuXn3vIQZyQXIuJ1pQ7O5Gnnx6l4988Ck+d/Iivimp7AipAjEt8aojxYBUwMqKWUlS0kg0JuX9t5LQuUAMoHWBVIouZS28mPJMXEh1zT77mhW8p3OSBEpolGyzwGj0rLTvhVRclSLOfQyRMtdBrlRRIau/rBRTZb5VJB+zD3kPrBH7+/Us8dTFgOgxAsYonG+Z7e3hvUbKRNsGtJSU1lBVYwaDIWiBI2MAhBL7NytBZrqFSB4Tyt5RZQWc4qpmgtKaclhRVZaiMCgTcMFD7EjC5krDB4KPyKgxqsAoi0gZgkzqELK7PsG1Urh2yYFhQWy2sQlec6el8xWLZSB2/j/+7E/94hM//GN/7yPcEO/61R+6DPxRf+zHm7/nPxy47faD9/tYPbA3W54oRvLB+eLKic+evHL8nT//KTEqWipZsNgtabY6/GITY2eIaDByiXEG1UmUr5gUAy6dv8KFs0fxG+ssJ5aQFPVkDdUumNiWaCqapsn7bCCICCpmUH/UaCczrjmDtImhI3YRFzpKKVDG8qEPfxwZd/jON30th4qavfl5qmFDpQXTg0PiekE5HKOUIKQZy8Wcrm3QlSI0idm84QN//Fke+9STqGIdy5TgBSZGKALCRlQFzrUcWFNM6gqh5gidGy86Ks5f3GF7O6BijZIjpFC0TWA2W6BU6GWpAm2zye72J7jjjqM8+LoDNKkjBcVgqDh0cIxMLcZIDHofBJQTPKBFx5EjY47eMaEstkndMhM8pGI+b/nU48/z++/9GKfPX6YoatY2pii9hvMSW1YYXeBDNrr3+5gJQfCK4CB2iaQ9XjjwDT7l7YVAo/BkTZeEDytl21XTrYetCrGf8FLILCWVcnM0+L6JqrIp4X5u9/Db1XQk0YOeYsIHj5O9d3yPf1+9MItLrNxEBQidYaBRZDSeCKQYmO8tme20iFhhpCLpZd5ECEFVGUYTjdIh02JTyqYcImWRx5THYrlukBnBl13P8vvoffSkKZgMFAfXp0yGBzBFhaBFJIlIGiEUEk2Iia7Le3djVLZM7h11ExIh0j4XHEC3zv3J2siOlEyT2IaBa9vRfLEoQ5T4VpBisgL5W//l3//qG37wn77l9I1JfrN4z2/+4y3gQ/2xH+985++Om3Z+QrTyAdGI+70p7x9//X0P7HbhVUkh52GO6DIe2DeS2V7HsplhSsn73/8BxmPLuBwh9YSzp3eQoUXRsehmeB/xUpCSw0mfoZkyYfxa9hvTod/T5T+uIfXKLqCMZhk1H3rsJJtt5Bv+2qt51bEhRVEQpMQ3jug8SS6IIdDGOdYMEEaxtejY2hF89MMXeO/7z/Pi5Yrx+DB7zTbKZs6uMRorNCMJ8xQYrxfURyY0aZNEx2AwZHu349lz2yx0BarFMyT4THQJ0mT8tZSUCJJXbG4GLlxoee1DQ7Qu6bqIVY6771zj8EbJpdmCSo5xLpMZknN03Yx5WlAN7qYsOkLYRotllhWKgrbr2JltEuKcO+7cYOPQEUxZ5upDR0q9RKnceHJR4AJ0PuGcp3Mdvkv4FloX6FykdbBYwrJbsmwyniH/RDp7xIXsB8eq+QaI0DuMsKJ0ZtOA4PuVX2Uud0i5N0HMnAGR8jjSe5eTT2WtNpd8Bj1ZjRKREHqzACn6kVlOVNHPx1eOKoRAjAHnHbO9Pba2tlnMF4yqNUpjs4tM8FQF1Acr1qdjLm+1+BgxWuYb0upWItT+7D8CKWXJaElOfhkCqoC1yZiN6Qbj8RpaGQQdWliKoqLUQxwdbeNoFxERKwo5QFOQfO4vZMXWbvPanNNCiK/LeL981+y1ANSoUkda1R6XItwTkzmWQvOD/+0n3/Xv/s6PP9K+nCS/Wbz97d++BzzaH/vxrv/0kSpJcaJLeyeKpB4cVesnkhcPzpbmXue1ltbSitPMd3eIy5bZbI+NqeXbvvkELSVLL9mcN3QNdF7gvKRrA513dO0si/3hCSnzufMfsSQsNL51BG8phCa0go9+4Bme+vQLvPo1Bzlx7wFe+5q7GZcarUG7OZFAFyKIQNuN+OSnT/PhR09x8pklu3ODLY7QOp0tkWRAqojRIuvdNQ1h2WT99cmYqOYZj21KtmZzzm7u0QWL1lVGXwmdCRTGkWTAxez3XY6GNIs9zp69wO7yGKLS2QFkmdgYTrjt4IDT568Qi5osx6TzhZQ5klSlxtiIEI6Ez80rZymriq94/T3ceffRzKojj+nmszlGSfDZe9p1ni4Kun71Tikz8vA9TdJ7YtBINWTZBs6e2eb0+W26NhKSIYqMuUgxZXHBa8tZudqIZ5OKFBNaZHEMRETrvJp5D6XOCjyJmBuPQHAB12Wn0LIsWRIInce5ri+dxb6zSbaW7g0G+v1xCilTObUiBYVzhsuXF1y8tGB3ZrHWUQ2yIqpzHcYqjh1b48EHD7P12HkubrVo4dFCZk2EfkiopcwsPhJdCoiQe19KRaxsWFtLHL5twuEjFWt1QMkZPsyIqQVZ4INnb75ka3uWWYQJbJG5AaH3NIBIDP76Lvr1qKK0whwFIXhRCM5ImT4iwKbEQKo0Aa7r0n0x4pF/+DVL4BP9sR+/+QvvsajRq6UZ39+p5f2xEg8Uc3n/zKcTO9sLe67dou1gqkcc3xiQyDpW3svd6HXlnDALlnRFog2CuY90qaPzGTOu5QhCiYmGsHSkznPbxp1473nh+T2ef/Ycn/7TFzgwHlINBINJzDNpD+fOb3L+3DZnL11kr7UMhq9hrT7MrIt0KSF0gTARQ0R7zUAa7MJQNmN0u872uYTwFSoFnIBnT21y+sIeTpQ4L4nBgByQjf90vsh1zIg6lVGBZ7Z22V12jKoCXZSELqKN4LYjE/j0CwjZIsOQmCyd1BTeoOwAKyZYP0HJixjh0cMhrszAonE95K57N/BR9qOjSAgNMnYZ2RWzVLX3gi7IjMoi9tzygPee5CEFTecNO3N4lIbLlxcoETFylCsnNEYpuqiuyjhBxqFDhiXGHhocJSJZUjB5v7kil8QsMnWtMETqNccDmTeQBFdxECu0pliRF7JmuehdXFYZsG+h1Nf6nWs5e+4Mz5x6BmtuoxoMiDHm8acx3Hb7mIe/8hgXthXLnRl+16PLrGOgnCYIRVISj89jvF7sYVhIrILxwHDs9gH33HM7d911mLU1i0h7dN0eIc1R2jFbtpy/MOfMuR22NgMpVBg1QQlPCOR5PxCFv76LvkrwnvaaF/L9fVB/WwAnEvNI4hd+6mf4/h/7kS92jt80vuf739wBn+6P/fjln3u3DnH7VRfOPf3gxXNbJwTFA10nHkjR3J+CrpBmV5ni3bIYNqkop3Y0qKXV9cCqaVnIOpZyqqyxSQWskQxtpFKSSlsKlQkEkQI/G+OXHSzBR0kzEzTLlqZVxLZmYtZRBw+xTC1oRxvOEGcNKnpc6kgh0klNiIokhriuJBJ46tk5/+O3HcOqZa2sKIXg9Lkr7FzWlDrPjyMtMXbZnTR5BAoPRKGyUGRhaFvYvDxnfbqWvb/TkqVyiPGEYMus+yA9dIHSlEi1xGgoi4yqy7vRxKJZ7ZXJpXbchSQye0xk0oiUWYUWAVpm80SrekFHelUVkbJSrFSIIGjaxO5M8tSTkeS2oROUpkRIjROSFDMuIPU00tX2if59IbITbCFSNhqQhtVIKyLwEUQy2WIYm0lSGEJSuAQpJFzIe2tN39ByAUymmqaVGFyfyHl1z9DVmMDLAlnWlGLAzlLw6admrI0t62sHGAw9Sc4JqcEYOHbHIb7+jRWGCzx38hKzxQyhBghV4slOo60PuAA6GspCM5lohqXnyJEBrzp+kHuO1xzesAzL7IOWkshw1yBYzBwXL25z/sImO3tzVCyyx3xMOOcIMaBkQoh4fZNtHzPQx/UdzdWDPTCh/33853e8k7//o2//v83fP3e89W0/4IGn+mM/3nTizTIg7vKk+2Ok+eBT73nv5zvHnbf/rVE5GNTOx6k0qlZGbhQDWduCqRJlPWJUrx0w08HI1KNyMi2LST2o1urbpwfUgZFhaDNP3MiCLliaboxDMHMNi+BpVGKvadh1jrZ1dC10TuKcZ7lY8tzeBfzmDjJ14ObgJeWoQmtNTA7XQNv0oI0Eros4mYjOIiL4Hc/J2Vn+AMcddw+xo4pYCBCKC2eWpFBlg8UuEDtPEGCKwMBqEEuqUcAai+tgGSIdFisVRSx6plz2MM82P76XfIKYJFJEIl0PKMlabilCFNk6qemyxLH3liYOaVOkS+BRIDSRXGKHlLI2ulypul7dKgrZ75MTxC4Sk6SwRSbIRIkUun9eRqQJKYghi1okBN5Fog20LgNAjBJopXsjjVX3nH5s2oN1egFIAdlfHIHRWR99d2+Lk0/vUg8FdxypODA9QHLLzGGPkdIWPHj/lLWx4tnjkgvnd2hmsGgatmYtXevpYm+CKAyj0YjDhyrW10vuuqPmjiM1owFoucwmnCJmdqMXxBC4vDXnxYsLLlwKzJqCyXiNqEqWztGErMYrJEnr8voEX0EI97l3XJ1H9n++q1DDfZQRvOsdP8cjP/q2V5iaf7Hx+0+8JwKn+uMLxgvnfmMGzIAXXsn3+JY3PrJeRDEd6mKaOl9LoadJljVqo1ZFOS2HutZlUTsppo0UtaiGG2ZYrQtpsQOLNhbFAUjrlNXdhNDh0wKVBNZmNRKfOoQIiOBIscN3gfmyY9l42qaFuYBZpJ0tuXT6Oc49uyCh6JREmIpFjKRGUxQGJzzR9PjnZDh/oeNDH3yRrU3P2rilKkENKmRRUOEYS4Eq8rgoBo9RuVurjCL4Xs1GmXxoiZI2j3ZF7kukFEjSZ5SW0gSpCUnihMYlS4iWDkNQio5Vzydm0wSyYIHqNdojIEOCJFFJQ0/aSSkhU4FgSQqQlER4STPvcF0kJYkyJbaYUOBwXaZ3Bh9A5JtBhqT2yDiVkD3gRvQJkc2nwTtJ0GvIYOm2Zjz6mS3s5BxvpKRerxgMFbJskNJR6chdx9c4PB2zmMF8L3Bpc865C5ss5g1CC2xZopVlfX1IfaBkPCw4MNEMyxZ0AFweFaeI1JroNVc293j61DlOPnOO3fmCfbtjlfF7RVHgUMQQNh9//LFw7fXal+hX03e1T7npQn7D5+9+x7sICaSCR/7JI68kT/6/jT/46Lu2gW3gmZf7mm988O/KpqymnRZ1MRhMK1PWla1qre2UIOqYQm2H1VRrPVVGT4fjoi6KcjoydlSZAUWhkAckWIWQEo2mEBqTFIs2X8Dt9gzhOpayYyk8u61kp1Msl9AsI13jskifS3z2c4/zzNOPo+QCYkCoGm1GjERg3WpsqbGFYFAaioHEVJKy0igDptCUlaYoDabUmR1nNdpItM5HEoIQLSFp5vOA8wZSRvEpIjrlmbaSeY6OzJoBadV37mGXIiYIAYvBBINr54hoKZVjoC0palzIM28pDEIZEnnm3LiOqBt8LzQpMZBir7Dao9VCRvchMpMvksEvUfaS2j7SITDKMCgzxuLsuYt87GNLqqLl4a+6l3JQEoIjhF18nINMDEcD1iYTUiw55koW8zHz+ZKUBNqUSG3RvZhEoSVaBlJq8V2bqcVS4V1kuWi5cHnGE0+8wCcf3+LF855WDGEUYGBywzEZUIogIjFcPwOH7EF3tUTf34PnT67V0hY9vi4Jbhq/9NO/iEkps4qMpPGBtnVYpbEi8Za3/9DLzYcvufijz/xSJDcnX1GD8sRd320rOahLYaZGyVoZMR0Uuh6Uqh4Nyul4NN4oR+O6Gq3Vw2I4HY+H9W2T9dqsVZWXhkUQWG0RCVwIJJEZb9vNLkFGomiZLxe0raQJBXutY+4Ss3lHmjvEbiB0Ed+EjHeOWQAxxEQImWMuJUgtESpk3IFKlMYxGEh0OSJ6zaUrC5qtGWmpSLHA6oQQCi1KAhlAFBJIobO4hhR9KRvASqJKdNLjG0UXBE0n6BqdeyWxgGRwSbM9d1zeXTCfu2zOVwjKThCNxIs8mLLGEr0jdhnCnBtpIvPKib0ZQm42Jy1IsWQRDCkYVFR4Z3juuS2k/ByLZccDDx3i3nsPsDY+RNNuEXzX91w8pIhRivpAyWgoCTHkvoaWxOAJPushEHpkXfAoNSGlAYtZy3MvnueJp8/z1NMXOPXCHk2j0NpiC4M1miQSbdv0JT2owrw0wffL8RVON3fRX8YKvlrlV3cEcR2xIO0/K5/zF9/x0ySpScEiPRQyYHVHTOAoCUrx1rf/wCu5/r/k44nnfqsDzvfHy46vf803DVC2Jg2mRo9ra8u60uONajis7bCcCitrVYqpWRM1haqVtlNblvVgzRpXagplMb7CJEkhCoaqREe9jwdQUSO8JDpwPuB8FnJtPDRNh19s45ptdrdb2maBEprjG1PaJuFCRKg5URicdHilWIbAsku0iWz3HAUxWZJQ+fqIjqXwWDNka6Z59JNnuLI1Z1IGjG4YDgzSlrx4dpvdHY8QBdVggC00i67LMFYh8CFLJCvApEwd3fdD8xKJRWqyn3zwGdhsAsE7FjExUIrhdASu4dnnz3HhwvOcfH6dr3njfTx4/3HW1wtKPc7MtuSJweFE17PVspRV0ywRUeSFzxQoozOePwmsrnDBcmW74eSpCzz2yec4eeocW3sKl2qKoc1chWZJQ0eTlnRxQRuXyLhEpe7ijdfCNWOyHs6XVqgirnL8eOmyfT0X6CbRN+Sy59PqQXnDi67eHAB+5Z2/0rN5WjyOEAWaAUPZocUOuz6yCBBd4h/883/2si72L8f40JPvWwAL4GUBk1bxjW9626QVsRZJTHUUUylNrYydFraopSmnQopaGV0Pq8F0bTioh5Wtq1ExnZRaWCspigJrKoasod3dNC7iXBYRsWZE20m2duYsl46IYOE8C++YdwsW7YK9rmPetSzajhCyPbATnmW3wDcCgmHmE3/6xAs8/rRnaKBUMdsGYYGC2U7EMkEGiV/uYXyXy3TtkaLXiBMKUladEX1JmgEoWcN9tUePIicqShAtLFQgqEhhJsho2d6b8/jHPWdOnuGTdy848dqaO++smdYT1tdHVJUi4fBxjlFZGkrGkPXnY4cWCWMLAoG9uWNzc5fnz+1w6vQVnn1hi1On5uzOQA4KTKEQJvcmaGKvre565Z7UU7bTzUv0/UhXUy7dmL6JfexujuuT/urDq/38ta9P190Rrr9lrFBM12J9boy+ZFqpcabET/zYv+BTTz7Buc1N5rGjCyFLFDtB4SU2KlSUFCnwvmcfvck5b8WN8Ue//3O7wC7w3Ct53evu+5tTXeraDk1dVeV0XU3qiRrXg6GdVkVRD4tyOiqrejga1hNbbtSj4dTYwUQaS8LQijWatM4ywtwnGu9xAZyAJrbM3YK2CYRkcAEa1zBrO3zyNGlO1y6JbUTSoTcMYy9J7YLQLhBlP+d1bZ5BC4OPhpR0JiWRFyGFyF23CDImTAh5L656T/kQoNd080ApFKPhBOkFe5uexze3OXXqLIeOjrj9yEGOHLmNw7evsz4tKIuSwhiU1ShFRkM2La51pJDY3Z5z6eIVzr5wgVOnznJ5Z0GIQ9q2xtgxyiSCjrRhifdLXHCIKiEKD22DNpFKFohQbt74t9HXdsz3m2y9b9SNIJir/94Q19X5K2xv/yXEzUdv/fNvLPuvDiavvn5Fp7z2udlX7Mb3dLXfv/r4eVoGt+KLGJ96+r1XgJesHl8oHqr/utbS1FU1mtrxsDbVqJammEatamXsVJuyxppp0HIapa61GkyralyvDw8M5XBCN0p4At4e6NVcVLaEMhqDpkgqd+C9x3hP7Ob4pmXRJZYefJAkL/Eu4TroOnCdzNBbL2hdxEVBF7NziQ8+S3AnoPM0ocWnRCkVVWVISrO18Fx+8gxPnXoBawXDiWIy0gzHmrK0WKtRMl/zrYt0naRrBLNZpGsFrpXM55YQCspiTDEag8h+eiIkRMyYBZMca6OStXGF8APKwqJDR4zywo2/Z72vkHXtmAx6Gfo+Ya7Zn1+Nqy24L5RE4poV//pX95HkdSe42WZA9EbX1/T/MpLo89w4bjzHt9371fzeyY99gXd5K/6y4/HND3jgYn+87HjDV/yjUghVR5/qBFOpZK20mUqra1UVG0VV1ErZuiiqaTUa1NbaqRfUhQrFsDCsjUuSNiijMFKh+i1kijEbIvgVjFXiXKJxgaaDZRfy7D5KXJfoWvB9AzJFgZeCljHNsqF1Dc63XN5ccO5yQ6LJc3cCKWUXUqVUdmBBZdKOF2hdZe8xawkJlu0ydzEjiGWLTDPqAtYOjLjr+JjbNgTPLQNS7eHEFiHuvXQFX/2nB/Nc7aLvJ/XN0/clj66q9/37RdovxWO64Ys3PcH1j61y9+oALyOmetLdfoLvr+E9Kklcm/Pp1gr+pRaPPvYfG+Bsf7zseMPDPzy0Vk+1tbUubK2t2TBGT7VWdaFMrUwxNdrUhbZTW1R1WQ5qY4vpelUqa0uk1BkFss8fz/2k5BPOZSWk1rdZwy1kzbXlsqPx2dLahYTrfG+/JPAuZcIaCh8SwYeMJ++dgLKWW0MkU3NHA8G4LJhMxtT1iEO3FSi5TbNsaJoGJR3GqJt30W9MghVoUOxnS//DrBBA/bOuf83VuHnZffO4+Q3kmuf3yhv5BtSne1qV6PEm3++l7+dWlt+KRz/+s3NgzisENr3h3u9aM0U5NbacluVwaquqNtWoLgfDaTkY1uVgVBdFOTUm1kOdpmsjUwuta1RuLqJKRG9VFWLEJ0FKBucFPmS3We/Be0GI4INj2WbkW0wJVIYGT3RiKCOCjph2afcaZs1l5lsvoNwmhQWr1Uu76F+sXyDQL5+9ksZqBV5V+Nc12eJ1K/NLz7H/yQ0rOPvNvtALB9zsHOLz/P9W3IpXGo+e/O0dYIeXgY5cxY888m9kFKJGmqkwthaqqJPW0yhVnTB1EmaapK2lVNOUxDSEMCXJWio5tsqjrSONsoeZMIZSKyofiPOGK5tXuLx5ASGXaNkQY2QwGCJVRwrNn8fGEscAAAFpSURBVNFF/yuOz6OYzWr3v0rl7HRytUS/tpwXq55B6k3v+1N+xz0P8zvPfPwv8u3filsBwM+86ycicLk/XnZ85/f9KxNjnCZBLSRTIak9scZ1U9sua7p2o3XLunPtdDBQtSxkXSg3lUZUIml81P9vJ/gXP672Ab7w0P5W3Iq/+vifv/ZvHX8OYNO3ftN3VFqm6e/+8R9+uSX49fFdd78ei+TXn721kt+KL5343+/7nSWfB9T0ZZXgq/je468nIelEyownI1imSBc88+Ro1BKhNCmZ/YW/UIZhkgxax1oIHFSKscgCBC5k87txm51HFzHSiQil5qdP/clf5Y96K74M4nu++y0a+Ne/+Vu/+i9v/NqXZYL/ZcbbXvN1zFJiJg0tiZkKzFViIVrCvj2mzqocnafUMKVgXUpGXlB2AUtEitjDHHt56JB6u0iJQOMVvPP0J/7M93MrvrTiLd/3yLAsB78WQxzd7Ov/B9mDtLZqv+sDAAAAAElFTkSuQmCC;" vertex="1" parent="1">
          <mxGeometry x="233.26" y="658" width="163.24" height="52" as="geometry" />
        </mxCell>
        <mxCell id="6W5GAz7soycN4FFiyWhJ-9" value="" style="shape=image;verticalLabelPosition=bottom;labelBackgroundColor=#ffffff;verticalAlign=top;aspect=fixed;imageAspect=0;image=data:image/png,iVBORw0KGgoAAAANSUhEUgAAAPgAAABPCAYAAADGHgjGAAAgAElEQVR4nOy82a8lyZHm9zNz94g4y715b+4Lk1XFEskim+xWs2ckjDB/gfSqf03A/AF6kwA9z4OgBgQMhO5ms7u5k0XWnvt2l3NORLi7mR48bhaL3RxBEISBRhVAIpEnzxKLm9ln3/eZi7s7Xx9fH18f/1ke+p/6BL4+vj6+Pv7fO74O8K+Pr4//jI+vA/zr4+vj/7OHU/NMLQVwvBoll6+8I/6nObGvj/8/HA7wBxSPiODu/Eu0z9vXHBz/yut//H43o5aCmSMCSPtuaN+Pt9faZw0c5nmmVqeUQq2GEdr7zUhdRwjgbrgHcjb2+5FqjnvAENyUUoxptuV8DJZzy3PlMGXcHUEwA3Mnz4X9fqbWipljVKw6U54Yp0qYKl1KqBq1VnI1+n6g71eYC2aVgGAlc/7mBRf7M1yF3TRxcdiRx5ly2JFUufeNU77x4BY/+lcf8Ff/+i/oug74OsC/Pv4fHFeBN44jZrbEsr8NynGecfO3rwHMOVNyBfMvA1CgzIWcZ0AwDHEwr+TS3u8OooI75Mtz9i9fcJhmNARiSsSUCKHDEUJQYh8REcZ5hwAXZ3vOziZePHvN69c7auqZJ2OeZk5OTjm92XH9+jWQLV989oqPPvmMw2TU2mH0mHfMkzPmigGBilhBVLDqHKYZq46KgCu1GrU40zRTzei7Hu0Eq5WpHJhzob8srLsejZn94QKJSoiRw5SZxkIMynbVk8SZ5zMqGRkCu3lkxggiTK/OoGaOrkf+7Pvv8/77d7/yjL4O8D9xOGC1YmYIgqgAUM2wYm+rjLnj5szTTC757UK+qlY5z1g1QHAxFCjFKLXibgQNiLZCV8qXVYCrKmbGOGeuXjJznFaJcs7I8j53cJEWKNaqjIjgAuIwjxPqLVBMIqUYosY47kHK22sTj8y1UrJTzHAzRCtQOYx7zIxMxd1RIu5OKQaAmiLVEAnLObVzqxgitMAVh9IRXTFr90DwdnneqiIaMHFqLcjSRLoZMXYYxuHpU3aPHrOfJmLf0a16UteRuhXdsGK9WbE5WTP0A5e7M0QVauLzL17w+aePefbkEuuucfZmx2Ec2R4f8+CbJ3zzvYeInPLTn37MRx99xpQV2GKsWsWXiAcBBXFD3NAUiCHgtPNFWhKq5oQQQKQloeJQ230zEkig9IlJFSRRh4EQI2aVkT01VmJKeBhQTRS9QbuDkENBghCj4jeecTh7zt4qHz+6ZCxXibYd//cC/Ao+LX+78xam/OED9T96zX2BP+aEoPRdR7X6tl9o0Ki9L8RASqndHNWv/LiX0m6iO7UYKkpMSimZ3e7Abj8xFcg5M+dMLjPimaHvGboe3JkOMw4t46tSamaeM7vLHZeHSy4uLlHpOL52gxCUXDMlG2ZCyTPjYcf+MLHbH7i83DGNc/u9KWNmaMOLqAqOk0urTCKOBiGEQEqBEAJdnxj6gRDbZ8BRUYIGVKQlFwFDEAGnwTYYUYdSKrUWVBRRxSXgEileEQ2ogkhAxQkmqBXcnaqtuuGOmL19VqqKmVO8nU/2gpvh1JYsuEpg2q5VQVzxCiIRIUIxHOi6DvMW+KmdPC6O1YpGbSi6fvl8rxKbSgchUN2gWrsv2j6LOkhFtsoUA7PtiKvEpDPZnM4d94JYgWlmrg7St3WyWkF4RbfuufNwi5R7XF8VPCont26wvbHifDrn1YsdL847NL1DF3vUT6jSUbVAUOgMx7AlEYGTvb3mzJiDLUm3Sku/IUX2pVDrRAgdqoq6oAlmMyQOdKmntCzLelNbIkQQSbh3uCnzNFLmAuoozphnQjeh/QGXwtnlzJzrV0L2bYBP88zP/+k3FKscDhOlZEourfqYMR0yNZflQTtmlWmamS5Hqs2IVYIEuhg5TJWaKx46cs7gRikzng+8/+59/s2//i958vQJH338EbiTa22LQYXrN2/w4OF9Tq+dsN5u2mJQpxx2vHr2lJevn1NqIZ85d2/e4947p7x+/ZS/+ftf8euPnvP5K+f5y1e82b2ilJGj9cS79x/yzTv3WKUeYYW5kY6P6FNkdzhDEN68OePJs2d88fgRUdd897s/4tbtmxQKeTLGfeHi4jXnb17y5uKS1xcXXLw+Y54zbR0LSRNRExohBG3ZHHBKS2yrjm7oSR0Mfc9mu2K93tD1gRgjIQRUlagBXUqXqqIxtMBagl7Dnuhg3nrI9j7BNeKaqOKIKKLS0AdOQtGlgswqBA1gTlqQSTtS+/6YAAgLKkDDUmFb1W3IQFt1NUVogRhFwUEIhKDtnBbE4eaoChIChqOq+NIDiwgi0vrU6i2AcKovkNeg4ARzPCru7bPTXHApdAP0Q1vK1SrTOLUgWAdwR7sO3Om6jqHrWQ0roqy488EDjk5vsD454XI+58c//Se++OIZ8xzpho65KmWaqdSWXF3IY8a84qJcwQtvV9Liwv1tgEsIDcLjiESCKooSloQ95aklfjOoBUVRAxdazFTDa0GCY5pwMaoUMAMvCJlaAqQjsp0h7sSuW4rFHwV433X8u//hf+Rsv6PrOqZ5oh5GvBq9dkTpoBrmFVVlGDpS6hhCIgbe/miXEimtEek4VKdUo9ZMtcyqM8bzC86ePOXRkye8ev0aRDEV0tATuo7UfYb9h58QQmS9XuNWcascxpHziwvOLy84TCMb3fBXP/xLfji9x/n5a37568d8/uycZ2/g+cvXZJ/puo7V6RFDdx3zjkrHZr1dHlALPNxYb7eAcJhGxvlAyUrXd6yPNrhC0I79fiIz8eryJVNRqm3QBH2ohNAWuYo02LaAD1Fd/nQNmXStV0ypJ/U9MfXEbkPqEikldEEsQVpyEJVWVWWB7kGxakS5Rq6GiKKxwzGQDo0RR5Crzy+9r4ojLiCt0gRxogZA0ap41oagoiAUypzxoJj2lNLIHy9K0IQQIEXMlepQMLI18ggXqjWYHQ8BdUddwStYJUgLYJMFqpojEgghUmbncj/jolSPTJMw1XYtFWMqhVpyQ36TMJ1vmaZKv9lzQxO3jiPdOiAxoiZET6y6NaCIOHWqbIYBbp6iKty50/PwG0d4uM7vvnjFz37zOz57MrOrJ0waCCk0QoyyJL2uJRaLuAVMBkwTYA3a4khwqleqV3DQ2IJaVNGQECpSDbdKqUb2iRgCKbTvCg4pBCRUlEqMFa8wW2RyQZYiIPOMWG4I09dNCysTHiup7/4wvr8K0Y9v3+XTD59Q8sD+kBA5QWqF3DJ4kB6V0CBTVkzBg5JChOr4XBd42hZMCUu290itQkodUgx+faDWUyonVCIuUIJQG5bH9oZNhWAFcqBWbURHuIXFgIVAX8/5/LLw+TSRwsDnL2/w4nXh/LXiY6SLAds5db+iTNex3LOrhf24o9jI8bUBWStQqWXCawGM6pUYIzEFZqu4CwFjqjP7OrOzkaprQhiI8RyY0WR0wemioqEQlgoetFUyCaFBbFGQQBdWdF1PNyRi6hENNNClC0Jqla16RQ2KTy3wNVKtohaYs4EbApiAoqCVWivVl9ZIbEkYThJFl/bKNLdqNwtaEtEb40oA94kqmeyVySpmdWlPhDIbVmEsM5mIOWQxqi88BS2xNOjvYEaSAGJEF1JsZEOxmRAitVb2h30L+iLsx4kxK7UGxgxzhhASRKV4xWpr0axUNFfcDqzGiSGuuXa0hfWavutYhcSQOlJKdKlHFKaxchgnggZyKXz44Wd89tlrxrzl6ZuZl5fn1NrRdWti6si1UOvSjl4RgsgCmxtia9Ct3eMF4iALwS4OvnAvLflnpBEtYAWpheO1kjolJcG9FbLkSqeOeGlFSBUfZ9waaooa0KGj5kqtY+NUrLViIkqKkT/EZF8J8Af3b/M3//QRuVaqN8hBztjky8mO4Ip5YxKJAQ+KuJAk0mn4MmOJNjJAhGHV03WpZas+YHMmhI5xnim0fquIUQxUWrbzoWW04F2rFgamSnaogMzCR59+DPKSD77zDtdOjpimC/KYefP6DAmBkgt5PmGeBqoHghilzkAlxUAXE0kF0chmPXC0nkjhNbBmPAjTk0uqCHN2zs4uOdtNjNMGjz1xu6LbDqQgiDpJnaFLdF1YIGu7pyoCYSFecARlHitzjfiUmEvr4/B271Qi4kIpLcBFhOztvsQ+NMllBjMll0LJ3nq9alRzajXmnMHaSguiJIEYIjEqIQRCasmI6kSUPkAIQugFlTUVYzdnLg4H8pyoJuQpkKdCKTBbY6sL1nrO0CC3qjdCCSeKoBgeIp22300eASH1igsEMmnTAO3ucmKadnQpkDXhU6FUp9gKvMNMqcUbgVj3iL9CJNL5hlpXzIdI6RMpdaxDh1anM6VHmfYVrwGpA12M7HaVz54YszlH24HUH3Gj7zgNxm5MvHxZuTzMVBFCUYoFsilCxBbZDNHGt9AIRRyoAXUItTGbUYVAIFFJboRaUK9EHKKgek4XI6uu3T9EWwwh5Hlq6LcEupRAB6aijPMMAhoi2QS3QCESQ6BUGIZ+kQz/hQC3EHm5D0zzFk1ral6qsQS0aw2/mWDiEAIaKkohSAQ66tJfpBjoh8AqORIMia0qBgIaI2XKzGXG0ohbRT0Sq+IlY67MUSiqVByv0vgAK1Bag2KlIv2WfPNdfnf2Bn1y4LvvHPP9H/w5r549ogvn7A/Km2fP8P1EHSfcBtarjpmKlcpR37FZrXEyZkKelFXccPPafS4uEx99fMZuKkjfM+bImB3XFS5DQzARxBNVEkkDGiJzCFgWzJo04gtsdzGq1UYcYViJiEdCBJGF5LJIkJYXxKHWgJsiAlnaAohdwKoyjjOqgXGuTFOlONTZqAspJaIEa8RUp0ISIaVIv46k1NF7ZRV7UhdIoiQRRCshCV3Xka2QbSKoMxZjnArz6JhFxDtSDAsqbfC1SF2Y/7oseKPrBvoIQ+xZp8gQE0NKqAbohdgnVKGWylQym/VEN1xwsZ/Zj9JakOAUTxRXrHhDJ7VFU1QhqFDKzPn5RBeUdVqz6aAXIwZhHA+oCLvLA7u5MI/GWDKPHj/l/GzNsD2mHzpS37PulcvxglIKIUZSjK3gBH2riDSCoZGB/kd6/dXR5LyFhGZpSXDyUli6qPQpsln3hFQZ1onN+oi+74gpMqQEZhymHbvLA/vLwjwJpTguMJemqpiCxtRaQCoqCctCiulPB7jjpK5nmoWcC1EHYkrgjSzAI7pA6SpNHglSWw9VC1acPkaiCjkbEoQUhZwztVb6mBDxtzDCrFKK4qaNVKnWkIOHK1K59ZCqxJCaPGFQXCilcHS0wi4uePz5Y+6eKP/9f/ffcvP6lnzYcbmv/K///q/5+c/+ETPj7PwCCWvCShACY8loztQ6krNzeTZzfrEjxB4X4fWbcy72BV0NFFtRiYTU2hNCayvMDFcFjURNVBdqbYvcjBZwNBa8WqCaYK4NNopipclpQmOh3QXxRFwIMrRJXVEDok6IiqRIpwNzVmZg9ECuTl5+L2ogaWOp1SvFdCkyieA9QXsIEZMBDxVJztA7GhztIIRAmQZMErMptaUkqhRybQE9WVgWvWDuaANzqPsCxZ0hDXRRiCLEvqfremKXSKp0fcQ9U2oGnwk2IvUCuESDoWKIFCREhAFKJCQlSlNisq+ZWSE+MU2vmcc90wjBj4lygoaeLhXOXwurWZF0yvnc8Xx34MmTzCePD6xOjqip5/7pDTZrJzJzvF1z/+aG50/3/P7TC+bikBO1rqh1jYlCXLoQvQp2Gr/hoalK0lCbYwtrbnQpkjyzioXjlTJ0iZvHznv37nJyvePk2pbNdkUaDCJMVrk8JF69hOdPLnn5bOLVs3MkKzV1kDr2KGYKUyFWxfQNQTr6rkP1T1XwIoR6jPgR+Ao0MU/Wspgt0kBwQop0KSCyAY2IGp4LwZ0UBzQpnjPdsKXve/qal0AN1FKoy+It3qpFtED0wKZrQX7IM7NXqkIVGmOVILogrqQMc56xcWbV3SdZ5sWzwiePn3Pv/SPe/eAUJPLq8i/55PknTJd7zncHSthzErasVpELCuO4o8wT01jIozLWxDgK5xdQ5iO6uKFKAl+hrGlLWcgimBixF7QPaAxICmhq5IjljJeCmiHSESQQLVCWFaBURCG4tgWxLAyRSKyRgBKCYNIkDxNDtJB6RXqlzANPX1ywzzMHCxRXqjfYa7WZKYJDWhJxjYZpJFgiWE+tA25bKnuKV+Z6CV5IIYEKTkeuE/uDczg4NUdKobG65sxV25rQJgdqan1+UCEFR7DWEqjQx8Bmu2XTralWyHNmvztjGi9Bnb6PxCQcb7fE1cBmVvaHQroYuTgohzkgcyO3NBXEDDFlniteja4fSLWwvzzj8ed7OhvZDDdY3xxwlJevnzOZcXY+8PEnL3jyaMY6QVYdsQvcvH2Hb717i3V3gYrT9zd49Nk5z1//NS8vzwAaItL27F2aYmHUxo4jbwvR274MeStd1lqav6EUjlaJ27ducPfOLd65d4vvvLNhs4V+1TUi0A8tgaSIqzAdZt68nHj86Jzff/iE33z4mLNXB0Lq6EPHuB9R8YYoTYia2G5Wf7qCH8bcMr9EVGKDG6KohKWvhthHYpeadGX2lngIi7Sj2lhLtGm9ZouZYyHfai2LLKJ4cSQsto7abIfNULJUriCLrqxgjlq7uYpAbD39tRg47iPqz/mf/uf/hX/42T2+/d77bI6u8+LRU169usRLYb0OzLMyl4AWxWelBsEtMVfHJFExLg57LieHbmjthAkhCZIEF6dijVQMCZWKvNXw2wOu1RFvHESMSkoRDRFEKaUuBppm+AjaFkhYtGORQkgJcaeaEdXBKsUnAtCnIzSs2ddC2WfGS2N2p4gtbPNCBmlj000LQRRTRUUoNJKvBuHge9Z1z8XuFXvZU8rMZJWj4+uUvOX1WWY8RMapUGRmrgUUqoSlZQD1rpF7tVUt5YoYyrgnYj+wXg30XWAulxz2L5inHbGL3PnmDW7fusGwivSDsN70EAL7ceT1+YE3b/Z8/NljHj15wfnFRJkieRqYdx1jTLzpCuXgZI4pssLTEfu85+UXld+fTxyvAjE64yiME4w+MuUj9qGdr7wxtsx8c9vzvfsnjHlcjDXnbPuXbMKIHmaSnxJ0TUEo0kC50ip2YyVlMRVpW9PWFAs1p9TKtjO2nbMaRt65Jfzo+xu+994xN28LsX/TFCbR5gZ0KPtClzqGfsUmBLY34fqm48bNFd1pZPzxG5692hP9m8Q6Nek0VeJ+g2dra40/EeBBBno9YmeOxJaF3StDD10UNFjz7EbH+4ibYaVQbMZDppM1sUC0yGq9hliJvYFl+hBbkEqlCuTsBAlUK0y6x6LirHBtNsbOHCkQSWBQ5YB0YDGBBtZ9gAjXM/QB0PtU7vOPn2T+w68+pe5+wVCFNy8CaOTmgxus6djRE/vMZhvo+h60werJjMvpwOucOKTGR5h0iA+LLNL02qAB9YHAgOmE6IwHJ3sFS01OjI7PEWXG8kgt1th0AUQJcWFUgxE8sAqySF4FkQPEQK6FISYiBfdD8wuEyOUZvHqx4/DKsWmgBmPWAxKMUgtJAlUiJtp6cDFCiChCcKESmNyAyr3TDYMoQkYl8Go/cnY+8cnvHnO5U1brOxSD3M1kN1SFyWDy0pItibiQyUIgDgYoKYRGlKJMcyGXS+p0zmpVuHf/BvcfPuTuvZts1yvcM6a7JuWlyBGJm3dPmSfnG+/c5uXLC37/+y/45OPnnL1U2MFunqhamwKBNtdYHAgilLrn6fMLXtZL+qEnLLLbHAwnEbqBVd+j+Zx5Gpn3O2oewY0uNudZVEfdsVKWuAhoALGKBn0bQKq6sOb2z7pxESHEyLCKnF7r+Oa9B/zF9+7x7XdvcLIGDZnD4dDa1KX4931HJwkrzSFptclkMUbu3LnPj9a3MLvN//Hjz3j+bGRYrRjHcfFIOCkF1kP/lfP4SoBrCCitEttiPggp0HWJVWqusdRHLAZyENwKedpTplZ9a63UeUK7puemlBCpaGjV/Ip82I8jh/0MNWBSkdBumC32TRVBwzJFsLiqRAOxE6Tr0dCx2iRMMsNsdCJIUCRG+n5LrdewcSTMFSkjF/sdr1++5CwY166tOboWcRJdnptFtDZVoMwVzAg0MsqkB0+4BVx0Yfgbw+bW0IfGiEpFcQ67PevUsRoSx6dHbHpwRiQUggoSm+YbQtO6RZvzbRM6UkiEaM2RpsJqsyHaolknI+fMy4vMz37xlBevn3G2H6hsG5tdBc+N0Q5BEGtGELQx4LhSLeCpVRhq5do68IMfvsM372+wctG8Dxb42x//hk8//oI5O5q3ZC/MkhvctGZxbTq24mQEJYZmRvLFrRaDtqGO2ShRUNlxdKR86737PPjGda7dOkaj4X5BcKdOew7zRMiRGEMLWAJ3b0bu3LnJvQdr7t874Rc/e8Snds7+Uki1o3rfeI2wuPdkRVpt0dSkrUNZ7ol2aApYEaxEsibUdlRzZoOpVrIVLBohdtg2MPfKQYxRHVNt5J474uEPXJy6IKVmGpLaJMKgShRHqBytEzdvdnzz4REP7m25caooI/v9jjAMxCRYjeAr3DtUApXWyrhmnAmNI32v3FkFPvjglOfPnzHtXrDf90QGyjTjuRJTeDtk8i8GOG5kDtS0okZHkzAMK4II3ZDZrgWVTLGZbVghHDPZMSmPzGWm5Jk6jwQxUp3oPBIlI3FsbHwNlAJjqRxmKKUQY0AlggluEfxLmx5hkepskd5U6TTSdYneld4DiQuintOKsXM+wpSbY21iTTp+h1XaM5WJOe84LzPTeaD4mn7ogTbJoyJUp8kbUZHQE2iuqSptAQdpvSYy4x5gCVD3SJTAeHlgVy948O0H/PAH73DnZs+qm+iGCQ1Lv6pOKwyKahNMO9LiM5/QEMgGw3oFc+t5kUqKkX2N7MfCz372O6baqnQp4LJaWoQDWQJS41spxwsNpViCGpu5xAvrvnD3bsftBzBPMyKFtfc8fOeEu3dPOTt7QbaJKkZ2W7hxa5NVy8SWeSNFGx5o1uManFoiGjvEIAbl9p1bfOvdGzx8sKEbMhYvG3GHEQViLI09ZV7Y+ea1L5OhQ+La6YbvfvCQGI4Q+4zD78/YHTqKrJiKL0pIxKx9PoSAiGM1U4oTVek8IRKbK67AEAO1LjMBLNfgjlWjagUV7O2fJXhR3K257dyRyJLooN0QQd0bsy0BcSXGwMNvPOR7H7zD7euRoLvWonF1nZmLyx3nZy+ZpoxZc9ydHG84PuoYVq2IjPOeqQh379zmr3605cmzv+XVq5ecnJxSa8HzCCKkFP50gI/j/LZPvGp93f2tayqEwDzNoNpY4ikjPpBix2GaqGUZl6tGKZmgHcfXToj9jIhweT7y6NFTLrKjNjQjAY6KoR6bZsziS5ZFhlhMAyxjFVcTSPNciGrcu3+P+3fepdoeVSHHnpdvKh/+9guePnpCKQM5Z/pVxzAcI8MOr5lSK5oLGlgGABrfkFIESZiERliZLOaT5bdpPbSGxk20sSdDomBuvH75gg8+eMj9+/e4faMncEFIe+wqcXmDX6UYvujclOZZb0MbBULisJ9JFUKIzGVmPEyQthxfO0LCMnEVlgd1ZSUlLbaKdj1UQczb2GNcJBycPE4EWaEivH71EvwCM2M/KZthy+n1LSLPmmegGzApeI2497gJSGzBUpcK5krJ0lxpudJFiF1HTMr2KPHetx7yrXdv0PXnTOOO/TQvCkGPW0RM8NrIqi51dB2MXELZoW5ILvSd8q33Tqhz5fnZBa+evIGkWOmYJ8ViIyzHWlGrRCIaN5gKU3XqwotIhIgSYk+eYJxzuy+pufvMlx5aIcR2/7y+7bypi/IBUIvhYhjalKYWs+1JhEwfM9c2iW/e7bl3Uwh6QVnkx64P7KY1n3zymp/+4lN++9sn7C4ruRibozXvPLzL97/3kL/484dsj2emcY+7sLmmvP+t63zr4QmPPv6c+fKMUDNumW33VQ38nwV4ngvqE4ENuNASWWVAuHsa+e63rtMPhRB6PvvsFT//+afM+ZTiW/LUvlikDRHYoXC6WvHD9x+wPnoDGB99NPPrH78kH27TnQxYLM3FVQ2VBKKIhRZES1AbhmgjdaTQhg3UmM5fc3q64psPT/jBD27SxXNUhFyVJ08zjz79PS/PXjBs3mWukekQ0QDrPhBiYraAlUBYfNFCXRxBimi88iy1FgNDDESWxCMNPiE9WISagJ4UNnhV1CopFMRHcn7GNL2BksGbVxpvpKPEhKhTcqscMaYlsUUoM3UsrYJQ2rzwXDHfk31mDsLQBbSmt8nH3AiNx28VwhLBvRmuQgfEZh8txrX1ihgqeX5DGiZCEJiczWrN6elA3wtTzjgrZhSxjmCbVsEooIpYxEUwdBnvBLx7m4CvXzvlvffv8fAbt+i7TLFLhJnqufm3PTHtC5dnE3mXCQS2R0dsj3qGzZZhMOZ8SakNYRwfH/H+t+7w+MUFjy8+5OmbC0yuod3AnA03QUJCtNlMTROFZZxOA8HbiroijtvM9cJCX3XR4nR9asqINu+/2dX/KSwmJl2mxpCmi0C4WrRAUxS2mzUPH9zl/t3bdAnGeU+MgaCw3+/5xS8+4ac//YKPP3nKs+cTsKJkOOwz+4sdZ28eo3LGD/7iHtvtGrOAWSVF5XsffMDvfveC3/7yNat1jwalS/98duyrMlmtTduTq2AV3ECjcuf2bf7yL3/IZgNOoORf8Hd/8yGvzmZiMqo01rJaxdWYpom+67h37x7XTreIwNlZ85SP48SgR6gGQgyLjti8ydS6BLS+HXlsfmVBZTH+mbHf77n27l3u3L3LZtMTyIzjgZILJycnPHz4Dn/3k0dM40gticBVn280FHMFzOQtXGqjigIY7ouZwb5kyGVJ0bY4FEWcIIIhb0c9zZzdfs/FxZ4utLbBJaDLZ6HbT6IAACAASURBVEptGwKEEFENy2favW7hKUxzJYTQiEk3cs1NkoqK6AIBUVCw6m8HgN6uUVnuHfVLR12AsFx33/ecXLtODK2PtdqQRJciXhN3bt9ms/6IszelWWNjs9sGlFxqk0tZPJneWpvmfNeFbxE0wo2bW9771n2OTzvGwxOsVlLqUe/ZT87zx5d89tFLnj/ZsT/bU+bMZr3hGw9v853vPODOvRMkDpgdQNu46M07Gz743h0+e/GM88tnHGqkD30bby2lKRfLs6vFcFsGX0RwGlcSAkjoQRK1Clgz7gRx3IWVJgYCoTqdNRTnCEjAdSHQRPHF0SlXFmNtED1QSGqcHifeuXeN6ydCCoWySFqXk/PJo5G//t9/y+efZTTeYnN8zFwidc5UgZdvLnj9ZmS3/x3ZO/7Nf/NtNByYpx2iM/furXn3wU1+/4unTWa1zGp98h+v4IFEItKZEw06FVYBNuZc7zI3jyZKfUaxwNFwhvOK3TSwDrdQXeGmuNXmwpoV2Qsxz3T+jKAw8JpU9sy5I9UO7wtdTFhxqErNBS9C7MLVSE27gSEiCwwVB3JlNazoN4EaZy4OO5hfgRsqAz2Z+7d6bhzD88NrkNuYxBYkuUdCoKayPJhWha6iw3yJCb9qF5ZK7o3wc5oPwFUoCDUvk1IhkvoVq6NjJF1jrBt2VQmumB01Bta7Bs2ZcTP2ZaRSSDos1aCwHRLXjo/b8EAd0VhRtTYf3Rdq3OGRZqqRmYmr+eIGnc15y2EESkNiKqgYSQz1QqjO0fqUIGvG3CFmpHSlv3fcvH7MahCQGQuCaEfNimSoRbAQGnvtix1bFw+bdZgKHivHp2tu3j9ifQTFd8x2iQBdCJyfFf7pZ0/4x7/7kC8+3jFeJupUKSWT/Izj6y/4za+f81/919/hO99/wLDtKOWcOWdid87tO8633zvm88fP+eL5Je7HrPqBsWa0+LIOFFyZUdyaXx+x5oBLQIjUGjCntQdihLhIXyL0BKJBNCFpbO9BGl/EcrsXR9uVVcObII24kwIcbXtOjga6WAmhEmMrHvvxwM9+8SGfffGaMt+lT0fUumWcKtkCqDSFZ97xxacv+Puf/JoHD495591T3IW+i9y8vuL2rZv0fUTcmKeJfuj+4wHui7meZQg/OlCazXI67CjzgalcotqjWjHLhLRhGFbNkbYESKkGeZmEGSdKnsAhRmXoemoZWgULFdWAUd/CzD/WG/yqskIj1b054Go1+qGj63pCdFapTYnlCTrtuX37Fjdu3ODZZ7u3U1pD3xOCNShr3mRMaCOLV4ilNfwNQZi//VuW7CIiFGvkUoxtNO/q+y93e16/es3HH33M9Rs9x1sH25HnfRva8dYjH6ZLaq1cTgfmPOFVGA8TMTnvPLjDn/3g+9y/dZ1+lTCDLvYUq0xVGPeVnBvs9sVkcTV33UYzZZFvrrTZZeS0rcj27+Bsj9ZtfFN4O6du5pgXttsVq1WP2wWqjWOoZUYlEDtdZDEad9J6gbfrJmhPVGG7XXN6/RgXY7+/pFanSx37Q+HD3z7if/vrv+XDXz6lD7dI4Tpdv2K9Vco08uLsgsuff8iLs+ccyr/iR//qXbrhiMN8Ts6F1TBw/85Njtef81neEbrmJutCI01lScRtGqptvtBQTMCLU9zI7sQUKbkhkth11FqbwcjL4pr8EsmqxGWW4OpSHV1wy9XAiThEaUqG20zfbTi9foTGmWJgBPo08PzFa375q0dUX5OOjsl0bf+C2AZHZnW6mIj9ETbNPH1e+PSzM77xjTus1l0j1XzP9RtwerLi2dNn9KvGefzx8VWSbSrLJfS4dMylVa6iy/ibW2MJrbbdGt3xeYTq1BlSaixeGQ+s0o7qZwxDIGpHFCEQ6VaBs8Oe9dENtv2Gec7NNCCN+fQgSGnBR1BSl6gOY4bU9XRh8SXLyPbGlnUShhQZZ4NS0dBRPLOOmXfub/ibn/6GG/dOyWzZW2EozQjgGgHFFtcYNKY+iWLepqagA20wG2u9p5uhVwaHAuBUm3FN5Ard+hafP8s8+fe/Qvs2Hmi1Qq1NpqmBoIF5am1NqZFN3xO9B3/NtCu88+4A91cQIU8T+xGIgecXlV/8+pKLXYLuqA0beAvKEHpqhRSaUUYpxCh4LsRBCeoENbyOHN/Z0G+Fi90Zq6MNpTaT0yolxvEN66Nj7t4a+PtfnxP7U4yWAGo9Q4iobBAMDXNTHKRNj4WQCLpmvXZu3jzm+o3EnF8RwkzQxH4ufPHxG378D1/w2SOQ/n20u435ESMRfIRwgNU1asr8/DdPWR9/wYN33uPd927Q+SWlHBi6xJ3TjlvbSPSC4kxjoYvdQsIGiuVm/V0SuAdvfobaRjVnq5wMPTm3XXtW/cBhfwkByqKLK18SaqoRsYrzBxsquOJeYIkPAaI0mrOUiRiN7bYDXjGXiKGUKjx+csabN47EIywO1BIo2mzPVzv2uDkmisiGaZo4O8uMY+Z4UHLOeC0cHSlH2zWPPj+wHlas1x1/aHL5ZwHeSKVA21mjVYLg2macVVBvGe6tezTFZi7IGbyjH1atj5OAzAeCRkJoO32YFSCw3hyzHrekfsBlBtoiVu0XWLzsWiL8wXwzS7Vp1dTNly16GsHU5oq/ZLoFCBrYbDas1gO5FKoYURvPEELzUXPl/LpqB5bNExrhIlxtRCBm7dSsMeXmsthW2++1IYjWf6s24mbOEzXv8VLarHQpYAEhLTJOws0Y+p7T60dIzayHwLe//V9w994d+l4o8znuzmoYOB8P/Pxnv+L3v/+UXGTx/7dx1queWzVcSQ5vyaG2sYMQUiTGiFdYDQMghNhkH1kqe62Fvu+pNXB6/QZd14O0ZCaLKanhtCsE4RQMjTT+XpoH30zZrI/bnHMdUUmIwmH3il/98iN++9uPiemI1XDCNLYdecwKIjMpCupC6hLrzZrHjx/z0Ucfc//+dxDtWjGwwGaz5u6dG2w3ey6mjEjf4PaCVOqieFw9w7A4IIO2zTWU6S3PUt3bMFMAU8dDwIJSAlSTRiQusEUXmfBLxWcZFpJG37Qx34Knhlg0hjZ4ZAUJicvLkRfP32C1zfJXEUykbcVEwZZhlka2tiQyz87l5cw4Zla5oJKIvbLdrtisezBnmkdSHxri+lMB7lIpOJOCS8I04qX1FNl6ZlvhbHESVi7wmnA6XNoU0ubI2axHjlYVzwduPzhnGF7jNpJL5vpp4s++d8SvPv6UoYNiRxxyYBwrMVRcBPVApJF7UkNjRGMbd0QTpWZqzRxve66velaaiV5RbTPlbs1t1w1w69qWk+2KyzxDH9p+XmasWaM54dLheuVCag/QFpkJbX7ixptWivmyM2aEIqhHkNoe6FIFchacIy52iTkXNLbNHOKwoJ3GpnE5NoPHdnPMKvWs+i23T9bcvmd857t3uXZ9JKTKOF9iwZjmyEefFf7+Jwd+82GHyzXS9holTxQCEoRaIcqALXutiUWsQlRHSKQw0EuzWw7XIt1GEM2ND6BVJoltnrvr4P437nC8OeJyr8vWRIsKHgs6t3KAt5zcpDPFHfIM+wt4/OgNt24kTk5PqFUoNXO5dx49XvPs9UDa3kbCTfaSqWEBcRoo0SEDPhC7U56/eM5Hv3/Nn/8wcHx9i/uI+sDxeub6SWLTRfZj24egesBj23Umo4sxpVXEIIEgLXmoJ4JWnDYAlN2ZMYoKMQqyWmF9pATILlQEky+Lx1VwX1XtRgo3UlPwtrOU6PJ/bSKtAqJKqc75mZHniKSBglJFqCoUqRi2bJLhFJRIm02fZigWcSkEmqt0tU4cHa0J2pBEHP4vILq8ZQuUYgLWhqfalFRjz1UTIj0prZrrLbaMmHNlvx+5davj29++y43ju9y+vma9ae8XgXv3bvFv/+0NNrc+ZZxP+NkvHvPm1YSZNkglgai0DRIWjdelVSZZMqcj1GoMqxWr9WrZu6y+3Sbnam+3rus4PTlls95yftb88LXUtzuO+MLGXz2Qt82/85aR9q9859XQvy875jarRq2FkgulNANLrc21F12ontnvD+C5uZtSbK2Otrnfbui4ffMOQ4DNZsv3v/8NHjw4wu0FpZRWZUPg6bNn/OQnv+Tp89cIQ0tE1nZFaTuNXu17tyQRb845q3UxAgoxpSXwhdWwYrNe4/ViGTFtlT6lnnmeEOD69ROunVzj/LK2CUJrU4MibdcWkSvLZmOYDZjngpQd837HP/zDKx59Abfv3uDuvTvEGHj95pI3F+cMqzUmMM/T20TRZhValS2lUskcrVYwB87P37DfX3ByQxtn43VxFYZ2Ctbcj42QhVzsShtp2x3VFoQi2gxV2jZCNHds2aeuFWHFXUgxtgk+vgS8foVc8Cv+d+E02qQfsHATSggJFWecZsZx4uhYUE3E1DHGuUm97k0VMtrsAoJaxeVq083lvgRIUem6SJcSUQtY2wcvMLAaBmKKaOjYbtf8Ecf2Rz34YQ9k1IxIJgVnSJDKAStjMwFIq6oeDdOCl44UC9gl87zneHObb79/iwe3HI0z/Tq3IffohHjBu+909Ec3ONtt+Nu/+x1Pnr7g+NaDBYo3uKIW2kZ9AlRp02l1SYdSKD6y7Y456hIxZpzyB5Ia4DMxwMmpcLxxnj3dEfoCxSF2TJ5IIkQLmLQxSxGBsCwMF2T5vyZjSXMsLRm8yv9J2Js9R5ZcZ54/3+4aC7ZM5FZZ+8ISJbWo0VCyaZuW9czD/M2jh2mbMY1apMQSyWJVkbVlVuWOBBJAICLuvb7Nw/FAFpfmwAxWMKsEYnP3c/w736JJWYwqYoIpKWICnxRDMnjjCCQylmwjORupdNZiksIZRTu37O1VdLMrWh24d8/x/juOxXLN+XbFNCSqep9hrPjt9y/5+aeel5fvk2sn3Pkpk7QYCuYUEcjNo1QipSAuoGhyqojeYFRP1CuC8vR9i7GJpCZUFBqwNhqUxYcRXUE3N9w8WvDgu6dUqmcdHdFm/KAxVK+rdxY31SnCmBUDMvI/feX5zRdXhPCUgxuPaBZzlDJcrGuiOWb0hqgM2hmCmsS9JgdZ7LpCYbG2oe1aQFiPmiVa9/g8oYnFgcajsseqxKghlZFh1js0PQqPnCymj6pjUobKOHSIMj/PiAQ4I2IhnYRLrzVZaTKZmJP8PomshbIqd3D5/ahVmbOLAUpOmXEKDGOQ3idNmOywDtqmxqFkTKobxmCl+qeIUhS9g0InhXMwX3TsLRe0dYtVAgrmUZPHBj9NhJSotKHrfl9J9kcbfJwmskpUVUU2NZVzVDpSTSIiV1pTVS2+zF5d1ZCzwVlHXbes1itQma6r0G5DXSu08aRpS9+1bDZrvL+ibRyXmw3WWobtwCwlIqJ7lspaWrbrzkLutVkX49icaDs5vZwL7M5rIawgbVkWJHe5t8SHx8RpwiiLtlZ008rIfV7/gLDwuvMqft47fXq69vEu2HX5h68l/7s3dlfpY/TCVCvmiykFVNJYZaiamsWyZzbriWHL4e1DPvroI/puRoxnxVYoEbzn62++57PPfsPLkxOSOSYqmVmH4NGVuX5vlHpdCXcbwlpbnFIFWxCU2DBfzOX/m2IBqIXeOUyCiRhjcNZwsH9ICo/L1cJijBYXUC24h9zzE0nJ4iZBjKAJKKdZLpaELP5+VyfbYrio8bpi8knGn6ooDQu+IoBXRWsbtIHZrOPwcJ+ua3DWoE0lCzxDVdVobYqbjIEog9Wd0SQUlsP1fbbYXJc7dExCVQXEMFIrpiB+50YbEZmoXTXN18Oc1++zKuEIxU0XWzob0Q5cXo344DHWMK4HjK5o2oaDg320hawS1mimqFC7v5kUmHLXTwGUZj7v2d+fY408D/Hp00yT5/LyghhkClTXv2+4+Ecb3JlMrzRBJbJOVDrR64muD3SVh3SFtZohjpjZwK1bMKw2HM3P0XYgDS9x/oBadfTVjBi3GKXYTGuMq8HWpCkxDjP8ZEB9RdW3+Lyz/NVobcupWfqgLCwybRRKZWnrVGTZ9tR1RcQKUJE1LhsMiZwDSQWqWeLejYa+CuRhi6qWGGq5N6sJbwJWqUKbzOgkgFXKYq2US2UGhYrmeskEZZiUeGQlZZhIYAyTTgSbSSaTFIScZeaaDDqCsQ6lHE1fMZv1DPGMe4cNP/6rQw5vbIj6DD9u0XVDTpYvv7vgn/75Cz754ilXtoGu3LVTJmdLRhOjXGOUiaCmMspLqJght2hdya1LWYa44WBp6RYN4rQahHOdREYaskdZR9KB5NYc3LBU3SWDctjmGNQSUw+MegcsSmcDChN3PP1MZWbkXDOOAjDpRuGzZ6tWoBPZi4xYGS9dkooYqyE4bDJURnzVajewnFfcut3S9RMxB2IaQBs8lq0XwK3SFiK40WCcE1RaeelGrVRYpR0BS0QYk0lFwQ2UgqxRxb4qJ9BU1DiaYBizISJmFlkhe4NE0oaURBgkaLtU+5S1fDZxYhxGNsOIqWvcZFDK0zQVxzcWdJ3m1bjCmj2IBgIo64ozdBa0PntcZdjfrzjab7FmIKcJS0MMFcNVJISRxtUoDPwQ4f/TG1yTQ8BU0HYzlssFB7Wmr664edjirMbajPKZftnw4Y/eZVmBa4/wKTGNJ2wuz/n6i895/mhkb3/Gu+/cQSvLOIxoU7Fabfjkl19zdtUyDRu6tsaHhG3FeDBpU+aPCoo7JQps8araBo/O0DU9zlbisqENWhl0lnFQKH7ixsLRwZK+rRg2SvzDoniz5yxNdMpGpgS7s393l4XSml/XAUCYcFFpMYgsETU7ZlfKRR9fgBVScRlNEWsNddNhcHR9Tz/rmMaBN+7f5Z1336Y1l8CGDFytrojJ8vDBt3z99VeM2yu67oCtUcJ/n6Jo8lNBwfUPEd3ywVpb3DKgqoWjPPiJrmvFHsi6YvcsV5SUJox7zR60znBwsM98Nmfa7LT8UrEpLMNd56KUloWZZNoSY8Sq11OJmISNF3Uk64jO+vfYklJhxemnUo6ua5nVHYuu4fjmktu3b9F1PaitvM6UGIYtF5cXTNMklNJxF/agS8HN18XsD9tW6XoStgiYFMIlyFk0Bs44KSha2u3fC6KQP1D4GalgB0Z08WWyoJRgI8M4cvLylM3mCKulultbcffubd57723+/bcnkBPWJFwlltJeR6yWLqOtGm4ezrlz+wZHNw5wVRTSTs5sxy1n5+ecnV3IFcvqQgv7MxucNAIOvz7hzTeO+PCDA24fb+hdw9G+pXMjNnR0aeR20zL78X2GtzRKH/DVNy958LuRz75+yNPLwHYY+Ku/vItZvMHNg2OmENhsJ/7P//v/5V/+n6d4dYOnqxpdz5mCp1I1LmdsSGTjCDqinBKKaZAxVbLSbs77mmqhqbqAToP4t+cKVzWkuMFaMe1XKPaPbtE0LdvNlrZdcpEuaE2PVrW0cWYrp64uUtlU6Au53NuI4qemQQVDTi3GDpg8lPZd7HlSQkZg5CIsCViVCTFgs6VJLV21ZX/hudFk4vljPnz/Bu+/1dO5MzJXTH6DMhBy5LMHL/n57054dNEzmHdwaYajlvuekkWU4iT0aCXdRtJCO3VMkBSuVuTsqZqerBPJX9I3HYe9w7mBqDJ+8uX+WFEFWYQ6QqsUN29klouaqxDRIXI+jJC0SF2zlfl/zgQlLj3JyO+rDEP0VDlClvcm6wRqBtmgKk9jtOiovUdnRZ0tSmVqnTjoKg72YFZ57t9ecPfOPk1r2Pot2U541fDiZcXjl5ZXa0fT3CDolugmUBPZBnIMJXWmlgNQGXS2ZBVRGYyy5GAYjcUbW3gYBXS1E8nCVGfyVkhCqiqe7VksxkxymGyIKhFiJhmhyfoC4FqVObmMPDs1nJ4ecbSX0Wrg8tWaw8PMP/wvBzx58T2r1ffYbsYQNYEGPwEEKqfZW2reuz/x4Xtb9g6ek3RLNmLRdTIEfvvkjEfPI12/j1cjrv3DKfgfbfAkYokcWbSKjz+8z/GtF5gIi74iD5E8ZWpl0Ckzv7GgutswbDrWlxN96/ju+UA8H9hsIw8fn7HaZm7pGYGRcfJ89+Q5T5+9YnF8B93sYWtNmkZCHKlwMg7b3WNJKCwxRDAKYiIHuXv18xkxjegUqYwjJkfwRZSiKA6lioPDAxaLJU+frLCdRznEGMHWpQrtPLql5Wa3sQtnNZfKnFJCRyVV0WRgIrMz4c/X9j1aaWF4Ya6rkw4Gqy19a1n0InBZLBa89eY9bt8+xug1m82GqtYoldhsV3zyH5/w7YMzQm7JugVdXXcWu3s3ZKyxxB0YmKXT0WjSFEX1Zi0o8MGTYqTreqypCGFDVL4EThjG7YB1Pa7S+OCxxrJcVNx94y5fP/odugJyxjqHFxbQNYMPDUllMuYag6Aw7JT64TxaAzteeNE+FMcfo8UBZ2+2ZD5f0jSBea+498Y9jo6OgEupozkXo8UrLi4v8SFgpgltelQQJP2Pwg1LV3YNtiA8AaMU0zSVcI7d85UDaceRkH+bCxfDYICchBuQklRqo3WZbBRGpJGAgxg8D779hrO/POTerVuESToQrQz377/JX/01fP7FKeebkfl8j0DNZjORsqerK46OOu7eO+LgoJdrVt5ZOWamaeL502dQfo4m0Lb1n0fRo4YhbFCm4WKc0G0Hdo62gcCAXNU8kEnRMiVHiktUv4dewDoajN3H5D26yqByS/Qt27jF55GkMpWboWgwLOiIqGTR9YIwDsI2MpEYJ0wWgpCyu3GWoMOoK5qmYbGwBD+g9CTWxaqSOCPtCCGSTCIrxWJpuXVnj88/fY6fRkw1J/hEjUTvkCtIGh2tvC4TpWUrhomSS4awmHSCLF5g2TdoNCppUvQyfsm2IO9RiDk6UAWRHfa1YdYZnJuo+sSHf3GX+3c0s/oUWwcYRjw965Xj3z55xpdfXOJXDfN8KAaWITMUUYMyXpBzI2aVO8CLKJtV6R3pJ2KchhRJaULpxHLZUjlPihNjFC3+g68u+e7rh/zdT/6W27ePCP4xVdXQtY6bhy2TX7HoI3WsGKYoNM7rDVs8ypTcX2POqCg+c7qM8DSgkkEVfEUFi9IRFcGgsMi8vq81+z209opajdxcttw7rui7kav1FTlYcIZhMjw/XXHy0gPttUdcKgd0Lup1yNcgnspAwQs0ihgyTjuGrSdMoLN0QVlTMBiRiu4OFaVlyqOzAaOIaSKZLJ4AGnIWLENhyLEipEjwC56fJL75ZuSd+wtqV9NUAyoNmNby07+7y2IZ+e7RC7IeOT17RaMH6saxP9/jg3du8PH7+xzsZ5JfkdAk13G1sbw42/Di1RrtesrIn6Zq/jyKPvlR3DsrzdZvODl7Sdds2ZsLU8aoGqXEBcXVjlevLtist0R9zuPnr1hdrUR0Eiv8pNluYLOJTNGLIskanO1AabTqaKpEMhVJOZQBpQbIUX4GdC4aJaOAJHbJKtHPGqpKLKO0VYQYxPJHy91dayPe7gmM1Rwf36CbfSdMp6L4ykFosfkHKKmc2gWT19KSiTGDel2ldSD5AswgDA2VBKCTBURZRK+/2rqmbRvxLANu3jrm/ltvMJ97YAsqUdeOIWa+ffiYf/6XX3B5AZVdkpljqNgMiWytiChUxFmFKuEB18jqLiMrc70ghfYor6mua2azmbhuKiUtZgx8/tnv+G//9E8sZwuOj29jjWEaR7IyLJcLlouFvP4QAOG37yr16+nB69er1O+//t0/kCRRWY1JVDHFvae4BrUNVVPh/Ui73/LeB++zt79kvTllmkZcVePVyMX5OY8ePeb84hWuWkI2hCRkI+vs9d3/emy626S8Zifyw7XAa2Qa5Hdeb2y5h5dfKNe3MnL5Az8+vZsGxEwMEWssw7jik08+4d37Mz788LYU0igEqTt371K1BxzdOuVqk3j+4pwYM4vFjMPlIXdv7bG/EP90OVU1MSdOTk748svfcXLyEq33qWoH0TOb/f+Mya62imx6InNOTzM/+7ev+GZ/xUfv7PHRBwdYbUQOCozbzH/86oRff/qKVWi4XMP5+gaz7oDWVtTmgsoC8ULcKrVlTBts3tC2I0d7RzRdxxBrTtY1k4YQt0STsQqpjroY5FcG7yNjDFQqsZw11LUlu0BWkZS9MMeUJYRckGPRdOvac3y84OCg4uXFQApLiIHoNkKhLCYMWe02t4yhFGXOGwAtLK6cdRENJIk0AgECjQclo76YDFWRV+YpY/Ds9Q17ncbYyPFhzYfv7vPW7ZbOXBD8BpUtttKkbWRKW4yeuHfrGFSHSuJCcvpyy3nyjFkLu09pYRqm3dhHY1KSPGkjMUFKZUxM2BxxNtHPa+aLmhivUMrQN0dcXGwZ1nOeP1N8+puX/ORvanQjh6dt4PCm49atBY+eXoLv0ZUiXlfHHxxoUYC2nEDlWNR3gmcIUg4U8YvFYZQg0w658cwqzX5X0RlPX2159+6C9+4bZs0lp68uSGkkYbi4SHz22ws+/92K1WpG4w4JuWUaxYUFJSYM14dtrq43J6oIRHIWi6VySGtdo/MWiyZmCWtUKIhC4RETYAkMjFkOJmUgUQhGyNRH/rYhZJEQ17oj+IoH37zk3z95yt7iBndu1NQGtF7TuEtuHkx0rSEEw3v39zGVpdY1XeWo7BXTtEVFoTT7DCcnI1988ZQvvnrBdqiZ1x3GWOki1e+7ufzRBh/GRCgSutXJOav1b+jrl+j0IR98cIxPopQhK85evOLTT7/lX/71Gbm+iXJ7aLXH3t59Wh0Z3ITVA7O+o6on0ig8466tqeuRxUxQeUfLOreoIZCigRzIKaC1IJkyIJT70RQDtUrM+46mrkBvC/oZRTGkMyoJ3dS64uXuNIeHe/R9w/PTiRQMikDOEnigokaxq0S7KrNzyjQyUklBiA4FfMuqqN/kwod8nEK1ldghiuOLpnGOrm6oraVpM2/ev8k7b93DOo/FQePk2wAAIABJREFUo23m6uqSXFW0/QG379zlH//xf+P8VPH0yQadlyxmPa05Z3y1QmUn7V8UVdSunYwpiQ9YRgC4Qn7RShUqo6ef9cxmM5zdcfE1F+crVpcDVb3g4nJL8ApbZZyt0NqwfzBnuT/n+6dnGKUJKb9W3O1igtX1sOMP8ebriogSPXpWshF0NhgtG84ZTe0cTeUwOnD//m1+9OE7tFUiThsqYzB1TVCJZ89O+PyL3/H86SXGHKK0+MvvuoFQmGnXj14ePOfXIYfX7IW86yKKfXX5JK91D1AO/dddwO61y98uOIRSP4g3Ktc6JUw5q2uia/n009+yP4O9//Uv6PYsKhn8tCLnQN9XKFWxxMgaCgk1jeSYcDahtaTSjKPn2bNn/Mcvf83TJxcs997ABknqjSlSV/bPz8EzLSE7UmzJGIZRo2JHTntMQ01TgasVk0+MU8XZRWIKFW62h2oXtFVHvzDc2d8ybK5YHjR01QVtqsgEdPD8p3ffwIRnZHvGFB2nq8x2O+DjFTkHck44bdHaiRe23dFkHYSIsg3L2R51Iza98k4bQjS8PNtQWcetGzfISmiQRisWy8ByWZPZiITQVCK+JxN0kriZ3bhG2DSQtRArlABulRzo+KhIqWZnF5FyFq22ETdYpaI8LmCdZlE3NJXB6C1HRzUfvH2DZQdM54Q0oklM0YK3dHbk7g3L4eINtleJbx9d8PzJQJzOSNuRycKlN5xeToSsGZNHaYdCo0Ohb6pMQhxVdRn7mZxI05q+bZn1msQkVNtgWK3g5OWEMUs2m8zzlxe8vd+RlWfrL1nuNRzutygmYMLgrjfG7u63S1cll8cslVqshWUnSNsueuucJ2zOoBJOZ+aNo28UnY0cLjXv3NvjznFDyi9YX70kKI2rD7i49Hz25XO+fbjBxwNad4NATc4KZeXzi1Fa7lRqw25lU8ZXIG69WYGyNcnLZ22VIxJRUWGzonZOSCjjxLVHILtWP6OyFTtxqT5QBFKJIOmyKCprCDnQNDNWF8/57uETzl+9xbJtqet4fZUwGHLM+Li9/vs5BpzWtHUrM/yc0dphqJmuPHFIdLOaMYoDb4qO5g+CB/9og1duQYwweujmC8T6NaPUjBgc9aIipUlGMdUCY2fYOlG1N0i2JqpMVVe89eYeVXXMzeMDbuw7ZrXF1gaPY/4XH3LrzhGXA5xfZX7+q4HT06e4RqFcIodEXTdFKCHWOj6MKCwaSbfsuxl1LVG3Ssu8ebVe8y///RNm3Yz/43+/g60kKSTFQNMrDg4XKPWKGMTcIOuJqFMhO+zY1AWjLB1d9hGbZOzjSqLmNCFtnBHaYsqQVDGO21U2o8RDMEVca0lhwMdLDg/e4M6tJX3jsSgYIPqIrVoRdKSRRV9xtN+xXk30+/d443bm299+zebsihsHLZsXAWvAOEMe03XFsFqioVLYCu1TC6c6Azl6oh9x1Vyy03QWpFzP8F4zjpm23efV2YoXL05576MjUp7wYaRuWo4Ol6KG2lW+sop2rDCJmK6KMaYEO+QsHP9cDuBdwdyRl7QqOu2CPzRVRW0td28fcOvGIUZ5EiNGB5Hies/Dh4/46ssHDCPU3QFxrAuFGFCFT14qtlKZ30fTX/8s2I3GVXXxwZOQwxTHkhCrqSrhCjDKYpAOTotVeM4YW0vSTRSxkQa022EeYuJpnCP7hLE1R8d3WSx6tLbECDF46saRc8R7OXDJSVJmySJSyZnoR2KemLImqRnHx/f48V/8FZvpW7ZXE0p3ZZ2Dq9wPGBt/YoMnNZE1ZF2TchRySXbYktVE9qQkeU9NrbEmk1jTzrZMasRvVyz29vjo47fYXxxhjKIxkMMVGdAWZnXLvcVdJhRPn2/4xRdfcnFxylzNqXWDygaVXGFqyZuRolSElKGpG/quw1qYpiRvVoLTV1v+5b//mhtHN/np30XuLQ9YXb1AZWhqy507e/TtY9aXE3XXSq6y0nKHVpqsK1QWxFln0VepPKLiKxo30teKrYcxJ1TuILUoU4n6LJtSwcAEJWmdWSC1dUys1wPKb/n+0cijxxNNVZNpcWkPTUQnBxhSvhIO+7QhjCN7fcvR2wuafAub4dNvVqh4hUqB2syorBgWKIQZprUiJMR/TEsOt9PFpS0Hln0tbXIhdSTgalMsi1vHZlrz6OkzBn9I09a4JMyqw4MF+4uOl8MIyrEFRD4ayVFe/+sNJe3uTlewk+MqRQGsMlZXYqaIp60NlfGo6Ll54xZvvrXPfJkZ06VQaNuerHuevAj84jfPePDYE/MxKbVERBiVricsGWV2Joky+8679a7lQJYxVi4mIyJcikGhdCYHGYVpI/Rrq0R+qXKS+3ouAJ0qn3dEfOBKkSAVxhtl/BoHnPUc7i947+0FH79/xI2bLXW1JqUkeXcZEi0qt6BrIlKRVQooIqRATCMRj60CR4cdf/uTD1mtNvzyk4fkqDEmgop0zZ+p4DklRj+BcaioCSlR1zVOV1hTid9yviRnL1nHOZdFBbYKJKPxwxpjr9g/hMN5g58COYz4cSOnapYPQBBgja1GMGtSnsr+UGWBGFR25KAJiAlFTJGcoetmdG2PMYqqsvghMo4jq6vAajVgzZaTlyvu3FnIHToHtIPbd2+yv3zIszOJ2JW5sgEGUlbEpNHBkFOhHpIhD9Q2segyfadoksGYitXGsBmTpJ5S5r9KF884XQgxmWQU63EiTBvC+oJf/epr0nSB+q9vc+eo5rB3MqLTNc42KOXJ4ZKYr7CAiqIHP77RsWjfZ52e8eLyMefDGU6J8X+cUpG0ShUz2pJ0Lk45oga0WjGFkcVsjilMM2MMk/dcrlas1mvqpiZ6w/dPnjKM71P3Fq2FaHRwOOfwYMnZiae2Bh1FnkkSP7msbEGm5eDIhRMgz2x34y0oc9kkCk3lHF2j6ZuKvaXhzTePuXPngKq+IOZBsBgFl+stn37xPb/89AEXl6C7Hh8sZCPMrvL6jRLcIedUWIimTBSKdl92oOSvZ5lvx5BIIZNLTJS4B4tyy1kh34RpAt1gtHRECVkn12GPKJSyKLzEJquSyQ70XcWtW0e8994x771/g709wF8wbILQs3NivfVcvhp4/nLF1XpLJrGctdy+vc/dOzfp3IzN9EomIylz83DJX378Ls+eXPD8eSaXUV1V/RmQTYIAJwEN8oTOYrqv8DidaZ282NFvsUL8oWsn9ucT+7ORbGtebeXN2F7NWCVLTB5Nh1GWMSV88OAVVzmTjeP80pNyS9MsqHSLjg5JP5H0kpgofllCIiBPzBYd3VxjlJesM13hvWG1GlB6zjAYnj255P13F9T9HJ/O8dPE4WHP/mGH/n5Ligqj6gLmCTCVUywuLqoALwOGS/bnAzf2N7TtgK7mDLnm0dM1z14Ytnh0rkqVMLJwisVTzpFNGNBT0Y67fU5XI//6b0/Zbgf+899/yE8+uk0OnhfjgHWJphH7q7a+hXaRq6sVdQUmZxZ7FX/9N+/w+OKCk8uXnF9taVXFlOQDVgpC3iWoaPEkVxKZFAkoE5jPKqxOpCQbfPSB88sVwzSx2N9jO2x4/uKM7QDzIMKRpq7YXy5ZzGusPUc5sFmEeburjEgxxWxiN15KSEsr76dcIzQU9Fz83p1TNDUsZoo339jn/v0Fs7mYZaScUNqxmSq+/PaUn//iIU+eB7A3QTXSLaRiFZWSGB38AACTj1FoxZKrUY4ZrUnFWCQS8Snjk4xUKQQpozVNJUVNIUaiClAlNFMGL/H6IMuF2CTbSawzXVY4PbK3cNy86Tg+rukaD0RCDmAUnsyLl2u++Pw5X311yvePztlsPZDo2oYP3rvH//R3H/LeOzdpu5qUPD5taVrDj350h8ePn/L8xVeMmxGNJPr+mQ0uyKsyEUMWXnqUwLt532M1hOglTN4omtby8cdvs3d4k/mtu1xtPZ9enHHy/Bn/8YuvqHQmEXAGjFmRUmQYR2KKnHoBQ7bbFU+fXOBcRxwh6oQzhhQKeaJ8huJXn1E5Ml801I0m+YHJD6RsMabh7NVzptGgoub0ZMM0WtpZg1Jyj2nbnoODOVUls/bkR7lDogVgC6X6KluMnDKzOnOwCNw63FK7C0wbCVXP6COXF5YQhP2Ws8IHZFSEJpQqFpVkUGtq6noPcuDqYuJnP3tBmDQXzz0mZ55cnLAZBmYLw517h9y5fYPbN+csZocYvWEaZaPv7R/w0Y/u8eDb7zl/taG2Pc44fLlrhiSjwlxQXZ0VzlVkRpb7PX1X4WwmJrmpJaU4v7yUQ0mJjfOrixWXK8/hobShWSn6tmY+czg9MaUJo2VcSPHKV8aVjmFXwSny3tdkGIMWw8MsAFRtLZXN1DZydKPl/ptLDvYyylwyDiu0hbqacXqy5ZPPnvHNwxXZ3MRUtwjByf09/sABOMfy2AL+qazlXq5kK2pV+AFJE3QipN03ZavKtcIoGYc1zslmVglXV/ho8TGTrXQlqFTm+QlMCahIFh1LFrvRVHpkf1Fx717L/iKhuMTHQEweTOLB90/45a+f8ptfP+Xrr67w0x5VPSOEiclHnp884sGTE37603f4z//wLrNOkRloOkfXN3z80Q1+8ctvOb/YUFVzusb9XrLo723wa8g/S9CgNQqibPblrMGUk652Fc5WLPqan/ynd/nR6GkXBzw/W/Py8bc8+OoR/+3/ivhhIisv2VpcimOltkQUK19xNY34MBHUDNKSMQQqk1HGME0j1kLO4l1toxMhgIb5vMGYiRAnpmnAmA6rey4vR0IUMcbZ2ZoQlLzhymC0Q1Wa4+MZpn6En0TqmgqlckedzCXFMyZPUhOuc8z6noN9MMrjkfD62ayl6So2G0fKlhggx3IPzFnYWgqqyjIxMY0bUvK0xmB7RfIdn319xoMHp6jsGdLEOI3YKrDYq7l5dMjf/OW7/Jd//AmLtiKoDV45ctrw4XtH/PL2nO+enBPDlkpbQuEmpBQJSubzu4UvfnOZ/aM92tYVhp1w+lNIXF6uUaZlO2SgYhwDL89W3L+3AKXxU8Toir29GdZm1ptLlN1D512scUUu4ZJkXQwgS9XW+jXbTci7aBLOSuVubGY2s7x59yZ3bx9gXMaHLQlwrmcILV9//4TffPGQi6uEbReErPExIh56YtusrrswVTZeSRYBUpb3Jio5eFLOmCSWysmWMaPSaJ1L9rh0INq46w1c15Y0KcnlLqNThYCVMSYBGXOEKJ+Bw6GNpq8dRwdz7t0+oO8yqIGUIwnD5fnEv3/ygN98/oLzVxlcx3x2E20qfJjokkax4Zuvn2Kt5803bvDB+7cFYyDh48CdN27w3nv3ePr4FFOMIf6HFTznXLyqRPiecqI1MpvsmxoVk7RChhKKNrGYwf5S0c6grRvee/MGT755xvmZJ3iDsYll36N0TYgJoxtCNsTQMExrvN+iqjlGtSg9YJTGaofVO++zIqLImhQ1rtYs9jqMm+QaoQQwGkdYrTxKt8ToePLsnPU2cpgkU9xZh7YVt28vqOvIanVJ17eSrFLaOsHRAyorYhqI8QqftjhrmXeKHCfiOJCYqOqbVFWD2kKOmVz0vBS3152HVyTIAjOJKUl7apxG6X1ebROvpi2ukgWvXGSbJlYvBr57csbTZyOu3eO//MPHmLrlchioG8WyG/novVv87sunPHp8iTUNO31z0kg7nrRkpqFJ2ZckDUc/q6R7QXTfl5dXXK1HIhUhV0LTVIrvHp3y1x+/jbIWPybqTnH79iGLZc351QqVl+gIKCNO4ztWG2m3vyjAtnARhMoggYUpYJxB6y19r7l3Z4837yzZmwH2knFao21F0B3fPt7y758+4+GTke20h9YzAUN1EjKNMJQwogyS2f5uxE2p4FpQ8rTjxGcl04bsixXXDt2/LnWl4IlTEQSIk+TTlSTRcosTMo9QLgUEiLqQaAS72O8rbh1ULNoNii1KTyQcIVm++vIVn355yeMXFUrPqRcHKHXAMEWmOGKVoVF7GFfx+Okl//6LZ9y4eYfjWwtiOGcazumWFW++2fMz7Rm2G+raXD//3df1lvfeU1UFLCGRY8AYxWJe0zUyTNc7hlf2hDxgjKGpe7ROzPvE++8ecnyro2krZvM5+/tLPvr4HX769z/ixx+/wcc/vsebbx/QduKH3i7vY9wStMHaGmeQEYFKctLldM3xzUlRu5rFYoarLDmLWD6lzGq14fJihdUVRlmePn3Oy+cviSWwPkaJDTo43GP/aM7kJ3zIoKy84Vk05VEZvIZkDJGKzUazHQ3TNCeGA7xfstnMWG8c25jxURFCJqZAJpGU3DxzssSgiaMmTwaTKnQqgFCITGFLVBtoHW6xh57NSK6m6ntm+wfMlvs8fnbCP//sP/jy4WOynoMSV0+TFe+8/Qa3j48I05acIopiCqkp+mbxIMOIVDORsFaznPWCNaSMtoaLiwu220H06sqhVIWi4uGDRwyjWEalJHTM27ePOTzcu66WOzArpyhWWCGSYy4xwhTTjXw9SiMXkCuDMYl+VnHn9hHvvH2fW8dHYtscZHMo5Xh1vuaXv/yc3/72W8YtQstNEzFNULzPSt9VGDbXcDk7E8pUZvQ7qy+5Mhh2iqSUEXuoEH9AOZW9qo34DCqFKO58QhVP9J3RoozlhNBkjME6sesCIdV1s4bDwwOcU9K2F/LQxcWaX/36c549vQAqlHaAYr2+ZBo3KBWFXIXHWMur00s+/fRznj8/pbI9oURdNXXPrZu3mM1bvJ9oavdHKPr1Bk8J6qYillZYIUBR2xr6rpKTKYuJncoJ6zJdW5Rf4YquWvPWmx23j5dSPWzNME7sHcz4m598yE///q/42//5Lzg67rm4eMbqcs122mfYtoDMrHWOqBwIUVROiUxWlpwkdsdVFd2sRVvxYSt5E8SQWK8GNI6mmbG+3PD06QvGaSr65MA4rakaxc07B6BgvR7wE4RUEaLBoxmzYsyKWDt0M2OcHOdngfOXmXHb4Meei1eOF6cjZ+stIZZ7KhGSJyEASUqWTIPLPSa0mNhgY0VOmUAkmkRyiUtVceItLybNyxHOR83VpNDVkmp+hy++O+Nff/0N56FHVzNU2KC2K/YXNTePepwaMTqhbSQRSToUsZsiecEBMJopBbq+Yl4btBIyUdIwTBPrrUfrDj9pUqwhNTx/9or1NmKsRWvLsNmwmFsOb/QYE8WaKBc6MZB8lO9UCJvZFFbYTiuP8PVzxmRF20X2j+De/T3eevOYvlP4YUUOQhP2SfPg+3N++avHvDqvqdo3Mc0+qjZkG0h5RDGhsszmy/YtjFQFBfjMBVvISrzpJGZJkZ0hWyXBiiGUdSaHRNai9RedNwWRl0mJFL/iGoRYXMnYrFR9rdBOYTUQRmK8kPBJcwp5KoVG8eKF5+GjiWn8AFt9hM+3WQ2WdRjxOpCMIpWuL+VDnH6Pi1dLHnwzsLqqSTRkJ950x4c9d2/3KBVwf84XXStFjcZEOf2cjkzjihuHt5nPHWixmY1aEzFS+YIlj5lUJWBiPpvxzgczfvvZBeOgSGGksT337i0xWjFpy4Mn33O5WhFTg0qXaO3l/hMmYkFClZIRDTGi45ZKJXKaOOhm1CqBn1BGbH6z7RjixBAGEhXGVGhT8fjJCTH8GGd6NknGJlWluHXomPUTU9zizJLRZ4wSvy1DxqhQMtkSUSueXUXME8Vy1jLGyKthy8sLxbRWBBLRGKK2ol/PMkdNUZx3Qtoll1KUa0rmplocYiutMbaQRoLkloWcGYg4N2OzOuf59y9J64heGLneRLFU2lssr+/XLltSgpCleuZikijUWkWOkYPDQ7wW95eYImkaWW+2hCAc7tFPwnUwme1my+pyJQvHKlarS5r5nP29HqOBINa9Pk1kKowuLrhlM2t29E51LdRQSgv1uLjeHu4vuHvngL29Cq0HUpqIIaObjquV57MvvuSbhw9J6SZNU0u0WynYKSl2Wr+MKvFQAgheG1GghK2GuM4IGU1ANDE+kbY6x2JUqXXRjYue39jS4udMVTnCpBhTKlNcXdJGd6PdIkXaCVq0IibPNAa0cbhKdOTDNOIcnJ68ZH21wtgFMEFKqJzomq548idUlMPFpAnn5L7/6uyU1eqSdhZxrmKaPNa27O3tYcwL+s79jze4UhntAy7OgEDtxJbn+GhG5WQsoLUjGEjKEWMtCY/rxNG9WuZwbeLdD2r29hQPvz2jtsL1zvllcQLpcXVJ9rQWpdYoI1XbVoasDVEpDDUaT5U9+JHKRLLfcLM/plWBHCeUEzOFoDSvNluGcSLmiuAzVd3x4vmKMFTo2KJCwDSOuh64vTdycLjm+cuaquvZXMjIApVwKlIRRDWlE7npeJE7zl44qhc1WUV8GFBYDJlVGplURhlL0hYbFSFZknPS5wXhOau8lXqmFRbLkBtASBQ5BBQjlXFka1FRMYUKZWrqFLl6bsmnBt20jMZincWkxOFiQVcbttOaWs/IWRGUHNTRQKosWMN6CMzqzM3bN1lpwS5aKzrol2cr0A1joZoKAyuSg+HZozM+fvsWzq0JbktrNbePW9omMg5rGuu4HNdY09OZucQYKaHrkqMEXURLTjARwWpsY7Em0dsN924q3n/Hszd/gh9XVF1kDD2r7YzPv33ALz57yskGmtoxefC+IqokLD0k1y2VHLmwo85CSaEpfvEZchJBqo1gjeSUxZDQyVDT4EImb73gKCYzskVZTb0AzITJGUeNV2BUYT5GJeBcCcU0hYKbkvDds9EMQyRqTdvPMPpSKL5orG9Yn0XSUFMtR8bpFU43GFUzDlYAQrPDDIQCG1MCnzhfbdisPQcHS66mKzQW6zJtr+j79Q+4en+iRQ8xFtmll0ghm9k/mDNbNKQcSDFgtDygUeIX9e233/HPP/+E7x+fM8aObHvme3e59cYbZKPwxUwxRktIhpASKE/VatABkiVng9IOpx1WW2xJ+swRglIkq6XxVZmqhrZrUEZL6F6WUcnVasN2FAOGiFTP7Rh4cfaSKSRspSF5tIKD/QMW7ZLtekMYB4xRFF9EwUmyIitDROGD0A5zmBiHS4btJTEOZIIopHa+bbK6JbkzewwelbzkpDuuWzuUxSdIKhKZCCkQciyu5AVz0CKXNRZMrbhYnfH89AVV5dAJ8hRRytDNevr5jLwTWGgJNBSEV/zcSRGjM11fY62mMsVaqKjuLi+vmKZJFqm2gEXrmpwrTk7O8UE6JVtp0JnFYo/ZrBf//BTpuo66afEhFmcZs2N9g1LFdVbCC7WGlAKLecede7d4++236Lqe7TCJ3l1bqrrl5ckpP/vXn/H06RNm/ZzK1YTRSzUzSmKW9I6QWaq1+kNo6Q+/5FmlIs7ZhUTsrK7S9X16N61/DbwJr14VIlYRIyHVNcYoKaZJyFM7K+sYAilF2kbcZMZiZqmNZvITIQSqSg4pU9xcd48v0ujd184SSqy5xmFg2G7lc1GSPS7hF5m6rv7ke3C9wWMQjg5pRKmAcZGDozl7+z1VpSnkakEtSKgUePHykl/8+nd8++CUKXZM2bINES3BjfjsCTmX5AZD0gldT2gbQXticiga8VrPWuaaKQujS0WC0kSniDqirWI+V/S9KwhmlpiYpHl1vmIzeLKyBKXAGM4utzw+eYX3Gu1AMWFyYH/ecGt/hi3XglzUaCjESA9N1AavLFNUDBE2U2a9he0EY9Bsp8TWR2KqSKmCaNHRQMwYRirW2LxG5TVGe/GAM4ZEQzAtXm+Z9BWT2TKZAa8DXkeSEhTbZ08MA8rBerji6Yvn6JxpaKlShUJjG4erLZGRmL2kuyVLjqbgGWCIWLNhb2GY9YZGBZggpJqrLZy8WOODAeNJqSbFBZW7Q4x3efi953JITCoQ7ZbIiv2DiptHDbYeSHnCVGCsEZNJkwWoRKF0RZg0OieaytDoTO3WLHvP3Xsjf/mjI96621ObgSlsmDBMqeHkIvLpb5/x2W9fcf7KotlD6wVQl1Z6ROst2kyIrNeX71hEh6/Hcrv/yoYs7rlayC0xh+IgI6GWMWQoLi3s8KeYiuFDGfvtqDq52FQXYc3uRg6F5qoV6EBmQgOVs5hcEaISUDdZkrIkrQjaMinDgGLUidEOjHZkMhNeTQQbiRaiEgqyT0k6aQOimEkFC4Gu7vhTx9z1BjfGiGmeytQFpe5nDYu9OUZnsprIWZhfuljTJhTPTy95dhJYb5Y8fqz55N/O+ObrV2w3iuAdfsqkZMVvGkWlKkiZHBImp1Jz5YzdoZG6qI+UFp1tSAFtAk3jqCrhCedkUdR4bzg/W5fUTkWIkQhshomz0wuSEmWaqCc1tWs4OrhB1zQEP5JDeO2LrjRijCKwTcoQvHifoy3KOFLWhChVSmmFwqJSETxkCRDIaqeXlnY154BSGaPBml0ssRyqMnvV5bsslgxTCGijUUZzdXVFCAlrpUXPOUs1KxXIWnM9s91VGEou1zSM1HVFXddCLS6ySu89q8sVMchzNbrYEhmonOHlyQnbzRZrLNMUmaZE1zXM+znW2ALCZmIU77tUHn8nuxU6sLp+SUZr5os59+7c44MP36fvemKQbqSpG6y1PHjwkM9+8xkpSbCF9yJsMlaXgIt8jXbnP9WPlq/dc/hTX2LyEMt7KFU8xohClwotiP8OPNvlrsNry6ndY+gy57+OuNqp5oqZ4zAORZjlXvMSrNg8T5OXrPjff+byGe5yxvNrtx6tNXXdUFWu0I2DdNzFANNa80cIOvwByGY1OKeJRIZxw3xe089rCWEPayqnMCahcyJkhWs6xtzy/VPNv/38isdnD/j8t485fWrIwxJjMz42hNCSCbiccVpSI5w2LLserycJHEigYxlTpEjMMGlxdDEqUPeBrlegtuQMMchIbNxUXL3KKNWBNky55IMpy9MXKzbBclj3DHGNtRXzuuLe4RFOf8M4XmHmoS7TAAAgAElEQVSbnogMXlTKZG2lBc8ZaMhokrIY22ALbTGlKLLQ5ArzzWJTxumAzYkxjBgLVlvCKFpyrRwRIRG5ZBhVJuYKpUwRrCh0LORHA9lovPPklNgSGIOiL+6xOWeqJuFajbIR4yJ6qqWLUJJr7ahpHaS84WB5xLJVEDcYldGqZRhmxMlRxZqcB+p6RhoE+55Cxq8y3z87ZXm8JBtpcTWRd9844Ge/foiuKrKvmZInOUWOlozh/2vvTZskua70zOeuvkRERm6VtaKwcsE0F7F7pDbJZGP6wfoBMknzQWNtEkF2k02CBEECKFShgFqzMjN2d7+bPhyPLIDNZsv0QT2jgZuVZVZZVlpmhF8/957zvs+LNuSUqVyD1QXiBusTB/XA7RP4/ntn3J4vMWmgiwllPJg5l+uav//4Y37/OUR1H18ZyS1LmsKANQbrIoEVOTaysPYb9fw1Vv31g/KPF/i4tVaiXAthAO8ouUhGuBKqr0ZhlMKMeep5lN9iNTqLIDWNs3Px3Av7vmRFTpmsE74UvFOkOLBabchRClwp4F3DZNKia0hkUcaVUbXJfgCoUUWUdLLYI00z4Wh2SOWnUMCphso0BF2IQTFrD/hTFfxrQheJ4zVKsxskKNBXMwqerBPKVBiLJJpEoIhjKZXAJ5895MXLjueXj9kNa27M3+LgeEYcFli/hFLjXcZomNSKGyct663n+MSx2CX6JHaJGMZRAiAAvxFgnyOTumE6nQCFmGQspCisNgs22zVNXY3VX7Za3jjOX71is95x46Ai5UClLXXjOT49oq4cy02k0nI+FvRRxo73Ri5j53ucqaYi27J9BVAkskqU8QCvkKdtDJmqbq5D53Ml46KIYjdAHFNRZHI+7gLU67nxOGKWZlBIpH6Qp/jXQu5SitRVTVV5Sl5d38v7KpFTwng9xslWnJycYJ0nJoEhxDjw8uVzttsNk+kZ7ekpbX2TYVthjWW3iuQ0sO02pDSlrissmjgobt+5g/cfoYPIcksYOXCK6/mzGaua1kqEKNowmx9y584tbt2+Q4yDNEq1/P6bzZqPP37ARx/9hvWyx0wsqFrifnO5vnFzKWOUFahr7hqjCUNdj+Re39N/uoorpQjDIOPMlEbb8V69MlpejUJbc21UYVR6qlF7TxbcdBGpDxSZXJDlHtJakwksVwuUOr6uxKaxzOdHktY63mTKKMkdHnd2I/ROBEMBUtZUVct8foSvGhQ91noq33AVlwx9j6//YQf9Gws85Uxdi7/VaAfG8ezZBY+fPOXgu2eobMUSV9Sop9VY6zDe8WqV2XQJyjHHR/e5f+8WjRer4tmtHm82eC/jjBsHNT/+wV3Wq4ZiMruHgdU2yBuUIjEk8YF7y96ZRR5ofMO0qTFKmmgYSy6BxXrFarWTLYqWLC+tNTn0LK96zs/XvHHbo2287i8cHVlu35ixutrgSkemGc+OWvoFWd7UWApJQVYamw0xydlMZ2G0Y+UEpo2IXXS2OGeZTD1OFzQdWg1YZ3BWsdkFXl6uoHg5toy3rtbSFDM5yjYxQ7BibkwZkjKkosnFilIsDxi3Fc3AMJBMGufM8l66cYeUhy1eRQ4mHpV7ChFrJCoopuccHwVm047JfENbv2S17uRmv5mJ3Yb50Rl1PUCREan3nqbZcnracLUbcMkRnGJHHEdgVtxUpYhDy0QmdWY+tXz37gHvv+s5rheY0mOVohhPH2c8/GrH3/z8OY+eViR9gxRrClZAiOxHXQUVDNbOUKpG8ky/tpD3tJZ/dPsu22s5N4/qthxIMTDEgFKWgohoCgarpccztnwpWY+qx4Laa8/H8/nevCKDczmSlZLpd4nlZYdhRu0jIXZolTg8TDTtgN5ZrIrkcYxX1Gv9QGJAx4IpEWc3HBzUHJ8avN8R0pJUdnQBFguJFm7r2T+1RZemQ2KNsYfgW/7w6SPO5pqbJ4fMqoaYNlifKVlcM9pq6npGjC1NPQGlMTZyMDd8/73bzCY3uHPb0kxAE4kxcDif8q//1Y/Z9jMefbnm8y+XbLdbKluLxnFPJMnj4lEZC7RVxbSdYEyUuJmxqq7XG9abFQrJDvd1hTGW1W7BerXl8vKSGA9xTvKuVFEczKec3Tjlswc7ckpkldFORAuFUdCjICdJeFGMQMOxY1mS+G8zZkw+kUmb9zWHs4bJzFN7qEyg5I6qsRweHnK16LhaP4JB4IhK6esqdh1dMy54Uhb9vpVUzK9Xo/25K0Y5hyn2HWD5OuccvvJQttRNzcHBgUQHo3HOEePA3bv3+Df/5gStWtZdR+2nHB0rnHO0E0dlNW+9PUfrQdDLUc73BwcHnJ7e4JPHzylIwIKKIyZp/zMWSXExFpqJ5e69M9577x537ziqesDkQMmBnC3dbsdXT5/w4LOHKG2pmpbha32JkvN+ryPJMLbIpKPor+1I8x/tyP8Y9vD6QbDviF/3CnIkxdd9BEaBF2UfW8S+CU8ao4HZT0X4ZtCAGr3wJUdSiux2Oy4vF3TbgcnMk8d88uPTA958+z6P/3Al7r+9vqEoNJaoRFmqS8Z7y7yZcOv2Ebdu36BpDCHsCGVHjpnz8yuuFiuODo7/1FPtawtcS1601oFtzDjVsNqu+Oj3L7l96ynvv31C3SjmJzXlmvQCYbAMQVE1jpwD/fYpRdW8995dbt726LLGmEStHMMQaLzmR987ZhdnDMM5hZds1gF7UKG0Q7sGNZp8tQKXE7b0TK1j6muM2RIiZC1jrPVqxdCvmdQtN28cMp0eknNmqQKLi+dsljty8WjlRH7hEs2scGNa4VVHSj3OVAw5UrQdQ9el8VJQkETEMeREKQlbRuljVug0CvwLmKyISbK7jieON27U3L+XOZgaZrOW+WzCT3/2gN9/eIFTU6HXqoTRgloqViTNOmZKhlk7Q+WBiKJxFd5aDDWFLap06DLgTA2hIveSL6ZUlO2lSpQ8UFKmqQxtXeFsZoigTYJux5u3jzieWOpqym49AxTNQU0MAV9bjDX4GvERhDRmohtm84ajwwm69Dgt21TGB0wpYpXURZJNmiYym8IbtyrefWPGcbvBqYxxLd12TWTCw8dLfvbzh1xcGmKaY1Ql1b2M3zsJwEFpjS0NrswopkiEkPQHUdqREHdYUcKKiypdo6/3y0/y5TUOh6KTypwKEUssemSxyZBRqYTWGW0KfYr0Q082BuMEdJHpR8+BHEPUeDTURRJKUtSs1pGnzxasNpqie6pKstAPDyt+8sMzPn68YHG1ozYTbFAMUWpcLAmTEt5qDqeFO2c133nnBnduttS+0PeFgiUWxeU6crFIvPdezZ8q4a/P4MjsFZ0Yhh3dZoNRnqvlwAcf/JbnX7T8xf9xxvz4HjFupTOoR3GDGjXPuWB0i9EtlZ/T1jD0iTCsUCphbTX6uitiMng/YRgiMQ4CDbQaYy3ESBgZY8ZofPEcHM1wlRPahVE03pNWPSkHTk+PmM7PmE8nOGvYdZGDA8/hwU2q2ki/f+zCDkMkZ8vd+3dR6jeEFLC1oxs93DELfme/3cvsjRT7KjlW0JSIOZNDEPjFuJ3cpcRqDXfuvMcPf3TIyVxe2xgzt25tx7llxleevg+C+rV2lDHqMYo5EkNgPp9g/CF1U1N5z7Dr0Tbhq4qwvmKxWGCdCGSGmFHWjt+vwnlPWsusejqdkpLw66Qja6gqT1NVGF3RVnJjRAa8M2gru4NrrvnYFe77SFtV3Dw7w7lPiYOWSl0yYSTLiD9c431FVRlunM64c+cm03YCak0KEe0EIvjFkyd89PFXfPn4K0KY4JspMRpCCBREv22MeNvFCWMkkcZCHqWfWpsxhilCFO9BIUm6KK93RWNdH3eF+x1QGvsb0tfxmnGqMFZjEbJfj7/ynr3Ga066SvtBmrru3ewXWt9FXjx/wZdfveCdd2Z4b8k54BvD++/f4vu/T/zm79f0u4TPLV5PiErRxR06w6SquXFiePedI9568yaNL5TSCXwlCeDk6csLtrtC3bR/voKnlKkaKGZHzJa+L3hn6PqWh59Fnj38gsp43v3OGzQHFalsUC4IRWInkS05Q2WPIbWsFgOLacB7mFQTiImhj/T9QMgdl9ue7XZLjD3WQChjdzIV8TRTpBusMxNjOTmcULUKSKPss+Bdw1v3b2L/rxqjNH3XY6zwqJ2dUdWeu3cnWB0Z0vWJl8rXnJ71TOqO1cUr7ORY2G/K7ndj400FZEm6yMVcY5KDyRIfpIOAIZPFFYMuhRAKu6tLvFpxfGBxqiMMA47IrNnR+szLZU9tj9glKNGi8OQhkAwYLT2ImQnY9YrjJnNzaqjVluR6+qFD2ZbtQrFdJ5r6mEEdENQwjqoSuSRap9iogcbXeJ8xOsjrmjpqrwW9pRMxrSllgjEVNss5O9MznU2JGEn+iD1aF+rGkVlwfOSZNYnlsMWhsUrTx4hTEZ0itbUcTjKHs8zbb0+5/0bFpNngyGQFmhmpnPH5Z7/gdx8+YXkJFosrW3QGQ0DbJI1KrVCVBqykfbIT1WQZ6PIAqsKqlpIyCTm6xTyOulDXg2BVpBGn9kxztIzLlKZkQwiKymtyHJNFtUUVSDHhaotVNaXrSCGhzL45Kqho8aWPpwQ15qUrhzYtq67w0ScvJV9tYiWCq/Qczo/4t//a4tXnPPr8GTrBUALdEBnigDKGsxuOd9854i++d8rd2xXa7Aihk6N+9jx7dsHDx1dEbfCTPy10uV7gMSeaprn+IZWWqtPnSFN5LFbIFcYINGCAyhti2rHr17jmDOsk5O7psws++NmHtLMr7r8x5Qfv32dSWWIJxJL53ScP+PThBV+9XHJ1scFVh1greurE6NEtou/NJVO1nsmsxfnXaKIw9DRVw/vfe4+37llAYbScv7XROKuJMePcRqgtCZyTeaQ1ltlsxo2bZ3z54iUxBLJB1GTjWTaPHe1rl9Gen1720H6uK4QZtcn7ON2+71kslgzDhJR3mBHsP5m0nN26xVdXa1BaZr3D11xMOZNKpvIebRRtPeHwsObk9AylpNNvlKGLA5eXF/R9J6jgKPPQmCPOe/k8Jax1nBwfM51MMSbKAxTpQmtViKEjpTCq115PAjI9280OUx1Q1RYTPX2/JSWFc5bZdMrpyQnrlRrPyPLaWmXwWmEUtG3NrbOG9955m5s3T3BlMYIEFTFkHj58zke/ecCzr15h9QlNc0TRntmswTsDqkOywpQEORZDSZo8SPpMKgqrNLGMoIks3eyiFbrI4hUy06iKz6OIpUgTy6gR3IAU5ZT3NhL5H84bgY9kye0u6pt9jpIZ88l53f2+ljEYivEYM2dIWz7+w1e8/+5b3Lx5j6QGlFqhiuX977a07g5fvVmzXWmeni9ZrXpcUzM7OODu7VPuv3HEzRNHW6/JagQwhsTlauC3Hz/hybMeqhbfev7smAylaBov0AML1nnCzoGfEhJYXbMbCtp6hmGDKoGqiii3IhrPoAZUtJTkePqo5+Xjh3T5CT/+0T1unL3N3XsVvd6yKZkPPnzEL3/xhCEfst62mInIGsmeoDIlZ1wpeC1uId94qnnBNWsCO0xJVE5R6cBkmilth9YKXw30cUtKgRgjdW0w1pFSxtssTSdnSaljMkvcffOID//wjKJ2MstMRd61VNBJoIGgpYejxJSgkpBa0phJZbLQcOIY3p5QLNc9L16tWS57DtoeaxNDHzg5m/Hd7x3w7MUrVtsVnlqysrOSCNyyxdvIxBemTeLWieV7b8x5605NzBdEH8QFtvacn9dsO4vSDUXZUZSRMcaJVTQnKp85Pm4wtofSoVUmRsVumGDMlO0ust1EfHVCHGR0lFLCukyIHcZoDg8PmB/dIKhX5PyKnDNnNxxv3JvzxaNHqHhKThajLSYGalvTepjUiXv3Z9y539I0S0q/YVSQ8OLlJf/P3/yczx58wmw+4+7xjKp2aFVom0zbaFCeogRNXUqWZmgKY2pIJBdFTBXLVeTlqyWRRC4OpWq0NYQox6Z9H2yfg5BIojgsCoUjRUWKEBOkZFDFoorFaI91fhRPZZKSam+VksZcgevcB2TMKX+Xh39Wiqw92z7w6MtLfvnbB9y+f8rBgcWbKSih495/84xbZ3fYbRQvXy1ZrFZUdcX8cM5s2jJpFJWOhGEl3Dk/Y7Pa8tnvn/G7j79isYo0VUvb/sNcsm8scHlqVRjjISmUl0qo1NhgKeEanStDftCqwqqanBQxJlQcU6FUZrvp6YqEoGccWjekLCTUL58858nTl5ye3aSZeIotdCNgT6sRYJwTyhgJD2gaptMWazU5a7EdGk0/9OM83o5a54FQEtYKdSbnzGazI+eM9xUgsUbbbY8xNUfHR3jn2YVAJJLJoIpkWhekMuwbqdcKqnL9er3+N8EbGm1wGjbLgYtX54ThNtNbU9Kwoh8Ck3bC22+9w8d/2HL1yUAxCuc9OcqRIEUZPVZVRdNkDg+nvPvO2xwezlmur/Azz5DFVrW4WhHCQFVrjLZjJdbXFaiMaOKmaYgxMOSeZmKJceBqseI3v/4V5xdLLs7XlDKTs+3YYAzDBlQihp7vfu+7/Nt/90OMlweI1jCdOo6O5sS4QXMqhhqt0BmayuNMoJTA0dGMqoEQFthrqKHiarHk2ZNXGOM4vXnG9OBACkxlaZzC6g5lEXmp2avDJbXFaENOGqsarJ/z4nzFsF2zWgskYRj5bMbI1nuPfLz+WARcUopCKzduz/Nr8KayaGVRyuCc3DMpZQKZmAtOgRlprYVxBp+0jN5GAEQumT4jkyB9wDAU/u7Drzg++5y//qs3OfQHGHtJ6M5RujCZzJlNPWc3W3ZbOcdXVaKUJTkIq50UUMUxpDmPHm75xQdLnj2doiuDrizG/akN+h8RXZQyONOKOSQojDUkAhhDyVuK2hLTlrZyhFxhdYV3U5nR6oKulGCYgkbbW9g0Z7M7YbE75apTRN0yGMWgbrBTliG9R8krlHqB1aCo0DrJ9jwGlE5ApJ1OqA8TwV3gorDTfRhHZbkj9uLjVabG+5rSFeFeG0O2jlJEKrnfGUxqT6o0d+4fcHw84fFloBgB5xWtZOY/0l706CHORXTyRsk8X1pqmqLL2NSBaD06aXo75dGzFZ9+0XN2Y47VS6q6Rrc933nf8+Kpxw7PWYWaIWeWnSZliHmgnVlmky035p4ffP+QN9+ZEM0lxUZWAEbxaq15/mxNTjUhKjoTSBm8bzDKyvFkWNO2PafHE2ZTGDYBFTW1rXhxvuQ//MffsltN2XWGPqxwrgOTUFpgH84U0rDj6ZPfcOPsLv/iL+8S9QvICe8Ld+9MOJgatkOiiZ6YRcJMzoSwY7ce8C6i6SnsUDaTkyfFQj0p/Piv7tDFO0xmh1hv6UNPWxlqo8ZIIU1SBj3Kc50TdLdVefwda5SZ8tnnnoefP0LlLU5XZCKpVCiEcpvKa2MpIKMKRKiilHzvIWQoI71FabQ2xJgl8QQR8GgsQsNJY3KtxDjrPWzSyEOoKClwOScGFI2tMa7m+fMX/OKXH3LvdoupJzhvyLmSSpmUiKysQRsPOZJGeIa1lhIzWllS8Tx/9pxf/eo3fPLJA0KqqZoa6/WfxDV9Y4GLdtiiHZQSSClglaB0izOUbIh9YegyTV2wTpoVotgqxBggF2w2IuBQBetB00PphWSqRahvVMCUIIszdaiQpeupkswix4dRTuLpbZuGuqrIcSvqplJYrVaQC8ZYrG3QWrPrIiXKOTizl6zqsQNqcM7Qdx3aOaBwMJ9TtzX9s7WELozB60aPEUqUrz3592dx6cLmrw1e95LJnDNDSNR1zXp9wYMHD3j/HcPxYY8yisvFJdq2/OQvf4zXJ3z1MvP8UpEueukaV4XpgeP01PH2zUPeuH/M7GBCP1yijTxsUwo8fPiEhw8eoK0Dowk5Yc0oe80Kbytyt8BbQ+1lxFaMZeh2NG3Narnl4tUWk85QpcVogyqKvt+gbUaVSm6MrHn+9JJnTy8h3cNaRUoDKW65eeuQ+cGM7YXc8LmIpzkPgZI6Qt9hfUbriC6BohMpaHL23LxzzNntE7KSkatWiVi2WDVQFTBYGJkDKCt8dGdE/kvCKQtF0feG7drg7RbCEl9NKdoxZE3I8vCVeKW9KEXuy2IUqU+UbDGuYgiQk5EpQBZCbY5JRn5aRmDWeCwJkohjyuhD0OPZXfIERuAkhawhl4ZNcrhsKAk++fSc//h//4K/XN/kr//ld5g1x6gsysKUAjEMaJMpBPpdwGOo2wOKNSyXiUePXvHBrz7jw1+fs13foTqqWMYVuCQ4rj+3RQeF8g2xiLDBaEVOBkM9crcacldh+hqrB7rUg1J4V6H8GkwmRU/UlkZbKh3HMcOGXC5QaoZTNYYdVVlyoDp8o6DTFA7I0RBNwBoJDFDaYnJDbSoOJ45Dm6mAHGSskdtDnj4dePHcUFJLjBFKixrGUYlSbLcborrg8Nhx596ct+9P0D7I75cCzazjxh2LfXSJTsfkIkeJWHoGGyj0UAZA4ZSiUBGwkAZMzjKeGZVnACmI172tLEPv+eh3S77/HU/dnDGf7JjwBJ2XnN69zcTd4Gqx4smz5zx9oul3kWwSh0dT7txueOtezemhoeQlA2uSyfgy4dXVAb/+6COeXmlmk3fo+po6ZbRTZL3DeIOqHP1mRz03mDYS1RVBDVhn2UU4X+7IviISRIefLaAZokVboZljDVrBsBo4f7VluYXZZEYXFH4Hx82UN+9N+PLZlxTVQK5AVUTlJIpHW1SsUbFBlYLRCtdaYhTbZFVVZKSxKrbNA1SOYond/1FmDE8QK23KcoQqJZJjJuaKojVZGyIWlCUW8SOkMWlGqUJRItLZ1zjhigh9ppRETLIvVsUQoxQWYyqUcZL0M/RE08MYVaSNvO8pl+swBNGNi9BFsu4K2sAQhO8+n7fkQfF3f/crLhYzLl4854d/cY/jwwMOZlOaZkZMHSjhLtQNpD5wtdrRdYGHnz7jpz/9PR89eEHmFnXriDkybSfsduc481qb/48scGQLihAvlBm1RHqsYmr0LI/0DNCjM2nsPuaMdwbjK3zJNM7Rb9dIoHqBoq9HC66q8M3ApLU0vqXoyJAN294yhA7jDK6uoJd44Olkiq8qStlJ4LvRbDdbfv63v+Tn/+0L+t6K0ydb/NjajHmcc/kNZ7da/s9/9T63b/2A2mbhOyiom4YbZ2c49yVZCwYqdgOF+M3O+XW1fj1bVVLWgRFjpWBPAKmrmu1V5KvHX/HrX/2WGyffZz5t0TpgTSEMOw7mNfN5w+lpw9t3DslFY5xiMquYzwxtXei2K5TNpCLxzSVZPvnDYx48/AJrK0xuMRhMjqRYUFXBWoVyCnShah3Tg5qYz0EntK7Y7QaulitZ2CoQlLDBlcpEA2aEKOScmfmamGq+/OIFi2WPniWUqSlR0xjD/dsz/s6s2JYdutQkLFE5dHEUMqbU2FJjQGbMBNCZmDpyL2IhO0qLpcGlpFOekUWtCnvBmjSQCkMpqJwF72RmJB2FMqQdBUfAk60Zk2lAQubj2D8aF2MsOAyVqlj3K0pa4JPHFUNRNUbVDNmy6Ad2O2ET+qxBaQaVKUbjFNgU5IHEHh4mMdgRKUJJd2STURND5wu2v03u5zz4febZHwYe/otXvPVO4v7bLWe3K5rWo1QkoxiGjleXPS9ebnny5YLPH1zy7Kmn291h0h7j2wY1dOSFFMubh/9Ek00I4YraOqoxD1uzfwImouoZUmAXd0yiPKErb3A2YHOhsU7Q715zXAda22HKJZNJDblDa9kVWOuZH82ZH19x0j7EmTmLoeNia7B+xlASiShkVRUwXjOfOZxEUwoHvUzp+i2ffrbhkwcdypxhmzkxJhHLIGcXh2bYLlntOm6cKv7qJ3OqwyWmVBwFcQfdOz6isoqd7og2sBviGK+jUMmik8iLlHKU4snFko14x+MoGS2j3JSiKBY2KHJzTL9O/PzvH3Pz1j2ODu7SugZrt2gfMNUOayInh4bDVo5AIh5SxLJi10cWmwVNU1FcS1INDz9PfPC3L/nyecLXt3jVrzFWMrOVMnit8cXQoggomrrBtVM24QKja7xr2C13XG4zPVPQLSlXoFvZWiohs0psQaJUNUx2PF8uuVpvaTqYTlsCiWIVzdExuplSNuKAYxiwRQs0hAGlxnhnZejzwGLbob2nphqrTSElPVbsccY0ss+0FlukGFle45NySeQo9wi5HYEdDomcGv/kiOH15EN6XwJDzKNCMutMVImkNLuucLXqqVtF30cKkcV6YL3cQFFUtUdlRR8SotoNJDJW6Wv/OOMIUswowtXPpeCdJQ8Dy+2GqdLMpzUe0CHw8e8+5NHjwMGvpsyPWyYzsE4sz9vtlsVqy3IRWC0yObdM2hvMD2ekAH0/yDg3weHJnKOjg2+Iev7BAg8hMgydVGEjip0UA1Y3gprVNWX0S2slwH+lRcEWk3hrNVDXltt3jzieBnYLz1tvzbl144TKK1Loqb3jr37yQ07nd9ltNTBh8emnLC6uUJUHJR7wkkQ5VHnPZDrjOrReC9ur63Ysrq5wlcO5Gl1VaB2vFzhAHCLtpIHU8/TZU4ZhwFnHarliog3WaI4O57TThs0qo6zCOotCEDlaIU6ffeIJClWM9Ar2GdJ7189Y34uGbdfjMfh6wtXiJT//2S+p2PAvf/A9Tm42dP0Gq7ciN7WWnDVhAKUblDb0YYlSmqqRJNBtF3n5csff/uIxn336hJAlM65LAWch64CvtCCFUiB1O8LQU9Ve3mEr6ZXFaK5Wa15erRjw5KxJUYNyoBShFHQe2WQmso4QvWNLz/liwRvVAcY3BDo6G3AHNaq25HUi50Dcqw/1gDOJIS7BHIPVDCGR65psHSpqnLHkHBlCL81PbdBWE6JEI6vRvknRpDLy7UblWSkwZEdIcHEVoXgZDYaAU6ZWir4AAAuNSURBVJGSFMZaAok4bqO1tSithMCiC2GSWJktanrAs4XiP3/wkJOpQuU1ZPEZnJ87KneMVZrClkZFUumpdZLjQzGQhOSzn5npovAhj3QeQ+p3aJ3x1qFCZLe9pCjNpG3x0zfYDmuWL3sePluQVTfO0TM5BbS2NM0M2zSklOnzDp06MpL+olTgrbMJb98/Zjr5J7roIrjfoXMg9h269Ch1jM0OpwxKzyjWUfwE4xQ5rcg6gwdTLCpHSrnEZ8W9OxN+8K5nNrnNjWNP06ww5QJ0x+lRw+FfOt6905K2ByyWhlevAl9+vpEtsRUnm0OhU0fjYTqxGK1Ba7LW6FxYbzJXW0jumEHPCaUFp0BF6T5isFYiV3NnuFplrpaRk5uRfhjwfkoqDc5H5tNDzhcDJkcIBqM8umjZ2hVHNmO7TWVQPWSFS1YQwhRQWeSqKZOHkbiRQTmNreZ89uSS7oOP2OmWH5l3mE6PmeoaTZTY2F2GrFAukkNPnzJ1W9FWN1mu4Ncf/paf//Ixv/71BS8uHMreoY8OnLjdipb6pJPColCdwg41Jh6yu3RMZrfJMbJdwflXz1hcFmlkZaBEQCpVyp2IROx47LAWj0INmqefv+LOiaGdFLZhSyhw8SyjomxpBW0dCCnirKUbAo+/uOTk+IDa95CjTFBypA4DlRKrcYpRzDvI6zcMgSFKDl2ImZgyMcGQEsOYjBNDT0iJYbBcXAxcPL/ElkQpPd43eKeg0kSlGFIghkgmiLa9CJstph19SLRac7l4wU9/+oDG9Hjbs92uSMmQc0MuM/qhI2bBnKQYKES08Ugqjh6732Y0D40kGYVQXaXUoFPGWI9vZzQj2GRwPcYqtJW5eFY9Sos82znRcDjrMdojY1glO5hcaCcNB/OaIxtxZQVjLtsfd9pen8GLjMVm04pZk1kH2Q7pPa9s1BunKE2AHPMYF2vIOaIKDCHQdz3Hx6e8+95N2qqjcj0h7HDekiMMoVDXE27fmjOsp/iq4Kqaru/ReqCMEcFjJBnOOarKoXUSQ3xKKJVZLBb0/SDd5TISabQWyoUxkLXEBJdEiIm+D5y/esXb702ZzqbUVOhY09Q9R8fHlK9eIAI1TUmaokb1VBakU9Zy5C4adFaQtZhiRhehyqKW0wVUFAWWRANrlPW8ulrzn/7Lf+WzLz7lRz+4yxs3LHdvzTgYVWbKaLTZoU0iabhYvuT8xXMePd7x0599yEef7hiGm7j6BqE4YslgE0UlXGVgKDhV0WiHC44qzHjxxZq//ZtHOHcpu5o+8viLp1y9ApVrUf0lTU69UG1IIxBBdPE4g86W1csVH/3sC5794QF1XbNSgaw8m67n/GkgaEeKmjI2qQaruHhV+G8ffM5nnzzH6R1aZTJzcrHYsMPESAi9QDZKJIQg/mhEYJRyph8iMYosOJdCCJE+BnTeUOkteWTNV37CvaahsMG5Aesc2ShwhkBPnwN9SYScMdZiGkfSPSFECjUlFwKJ3leEypJLhbGWSV1R6wqfFbZkWq1pjMUUiCiKgcoayZEXSB9OSdCGsVaihnNBKYd1TpjpBUhjjJKvibGFkYIbiyhFs9rvYOxoZpEJDWRiToQ4jh5JlO2apy8eE/rv/vkKrpVl0tbcOm1YvkxcbCObrqckge2XrOk2it12IARFGrvoxlYYOizyQEjDkhyWxDihywviVsnTJVbkZFEmkYaBnAb6fspmo+gWibQxVLbBmhqjHCbmUcVmwCm2wVJiw9BHonIszgsmznF5RkgZqkHwR2ojkcfFkboVk2ZG0xzSb8/56sslf/GDQ7ZFs3Ueoy3We+a1p4ob6tKga88QMtuuA5PBRFSJaDU2a3TB0mBpKHoAXUYA4/75aYihiFkmF0iWSksz7OLJOReP/8AXnz7j6Mjx7ps3ePfeHaZNJWdMtqAyuz7x7MUFjx5e8PjLFzx/dUGipmk2YDSrnRhcUhlAJaxx9DlhTA26Yhc1wQ385ovHfH7xKV33jMpqVImkPrHuLdZNMc6inKUkUQ+aEfiXLWhjsHlL3SpiXLNaLFlcXcnZUoG2DtU4DpwiVR2Mlk6bZXteGUvfPef5i4gxO/phDXpOLAZrwGuDpeDUmFlmNd758bwtW+wj247WVzHP+NpjXIVXEVsknkorz6Q9oGkO6LtENwR8VZGtJOQGekIpDGqvNlQUq9mlFcMQ0HoixhyV6WNkUCvimL5qrMEWR60crTGYWDBhJVOUqsJUDlPk2Oi1EtBGEQm3WI+hrgTnFWPEOYO1EpTgnaWoQCkJ4wSOIS5NgxqxXoItk+1gyQVrAB3JI1NOqYzuOhTf47137/35M3jKGWMMpyfHbO9PyE9hvd2RyxaKnG9zTgxDR4pWjOkxivG9FHIMVM6jteLqYsH5ecXEd/iRCNl1F8DA8cmMEHq2u4EcPC9eRtbrDc472umEmNXoSgPnPU3ToJSj77eU2BPHM9pyuZCKWjQoI1G6qZDVQC4S52oM9H2gcbIrePb0GU+eeJyrsW6HouLyqpPGShYvdC4w9JF9oorMMwupRIqKKAI5OkIfKWakumhpTskWzULxsu0cIsU6hj4Qu4LLpyiTuHgZePp0yeefnvPhwSPayqNMxnpxkfWDod8pQmzpuwnOeKwF31i0U6AVUSl0U1EIaKOEIlOUhN45T1GeklsUGW/exKmMrQYcmvvWMp02EuXsobEKqwq1FV5bHhWFJitabanLG9ea8NQH2ozgmKYK7TU9MsUwah85JZnsm7hFe4ufKfoy4F1LcZ6V02RraZXGjQCNia2Z+FoWCZnKWgko1FmYgGSMzThvqHDYMJpFENWhJIoUEahogzIwhExSNWgtkJKRXRZLJpcDqspRRlFNPab3FBJtU4EScVPb1BgjCsG6cthRh7FfwHwNMPFNlePYdFN7l9lrVjzAPkEoi3p3bDkyjvaUfN/rr5NvOGLiKIVrayslY42hqqs/X8FDDJQhcDBRfP+dlskkkvonXCxXELL4bdOc9eIVYePEWbTb0mI59IUmbnHKY3TFR7/4HS+/+ILjdopWigFDSokhB0p5QQ6BmBORT+m6yPlVx6SF3D3GjT+RrTI5rXh5ccF/+ekVjd1hiJQukQbPR7/5krLeEYYtxlhMZfAGPD26aOqsUdqTgyasI66Gx4+W/Pt//1soGRdFnjgkiTGe+x1DvKSyB8yOKvpYqPx+dAGV81S2IZeMtgZXa9AebRXGC4LJezk3WVtRu4rGaipjqKxIHL2VVE3jhAmm4g43AmvFkCLHHcyIkLatoJCNQBitr3FVTR9FcGMbS0GQQ5V3lNEK6q27zgQzplBVFkXCO5n/auNoa0dGqnZbW1nQWuHsGApUZJGRM95IdLTWwk531qBVAa3QBuLY+BIQ5H6UyHhmzOMC+V98fX28+Y0Pe+HSfvT2zc8pfKMSqusZ3T883/5/4bpe4MZY2lkDSqFVzfzmIXfe+D4ffXzOq4tXxDhwejJh6Fc8e56wdsnFecdkarn3xg0Mh2htKFmT1ZLnz7/gRUhy0/ualDK20pLfpBSVd1Q1zKYV9+69hdE1xs7QJtM0Dl8pUBucjdQ+UdUtlZWq4s2En/z1u4RosZWXFEuvqCqpRNZoWm/H4EJw16o7has7cWUh3LMyzkaNNWOguzRKUspoJTNaEaVKdSu5oIxIE+WJK0/TjEgL94QWsayKWMQahMqiJDF7n+FtRp+xJKLYkQH3z3Mj/OPXfnHufzDzR3//Ojzpm/8uX/3PsLjHH+Na+PGND/+zL/D/696Y/6FLlXFfsV5uWC2W13lMxhiqpiblxNAnseyNL5qzjpwL1mqcl1B065wghr5meP8fuST3SV6+/Qhkf+23PKXkbzxtQbbD42ev30D1+k38ek6yUt/8+O317fX/l+t6gX97fXt9e/3vd/0z7Z++vb69vr3+V1zfLvBvr2+v/42v/w4y0rJ4rfM01wAAAABJRU5ErkJggg==;rotation=1;" vertex="1" parent="1">
          <mxGeometry x="224.00000000000003" y="503" width="175.8" height="56" as="geometry" />
        </mxCell>
        <mxCell id="6W5GAz7soycN4FFiyWhJ-27" value="" style="group;fillColor=#FF9999;" vertex="1" connectable="0" parent="1">
          <mxGeometry x="218.5" y="207" width="198" height="37" as="geometry" />
        </mxCell>
        <mxCell id="6W5GAz7soycN4FFiyWhJ-16" value="桂" style="rounded=0;whiteSpace=wrap;html=1;fontSize=20;fillColor=#FF9999;" vertex="1" parent="6W5GAz7soycN4FFiyWhJ-27">
          <mxGeometry width="22" height="37" as="geometry" />
        </mxCell>
        <mxCell id="6W5GAz7soycN4FFiyWhJ-17" value="A" style="rounded=0;whiteSpace=wrap;html=1;fontSize=20;fillColor=#FF9999;" vertex="1" parent="6W5GAz7soycN4FFiyWhJ-27">
          <mxGeometry x="22" width="22" height="37" as="geometry" />
        </mxCell>
        <mxCell id="6W5GAz7soycN4FFiyWhJ-19" value="3" style="rounded=0;whiteSpace=wrap;html=1;fontSize=20;fillColor=#FF9999;" vertex="1" parent="6W5GAz7soycN4FFiyWhJ-27">
          <mxGeometry x="44" width="22" height="37" as="geometry" />
        </mxCell>
        <mxCell id="6W5GAz7soycN4FFiyWhJ-20" value="3" style="rounded=0;whiteSpace=wrap;html=1;fontSize=20;fillColor=#FF9999;" vertex="1" parent="6W5GAz7soycN4FFiyWhJ-27">
          <mxGeometry x="66" width="22" height="37" as="geometry" />
        </mxCell>
        <mxCell id="6W5GAz7soycN4FFiyWhJ-21" value="A" style="rounded=0;whiteSpace=wrap;html=1;fontSize=20;fillColor=#FF9999;" vertex="1" parent="6W5GAz7soycN4FFiyWhJ-27">
          <mxGeometry x="88" width="22" height="37" as="geometry" />
        </mxCell>
        <mxCell id="6W5GAz7soycN4FFiyWhJ-22" value="2" style="rounded=0;whiteSpace=wrap;html=1;fontSize=20;fillColor=#FF9999;" vertex="1" parent="6W5GAz7soycN4FFiyWhJ-27">
          <mxGeometry x="110" width="22" height="37" as="geometry" />
        </mxCell>
        <mxCell id="6W5GAz7soycN4FFiyWhJ-23" value="1" style="rounded=0;whiteSpace=wrap;html=1;fontSize=20;fillColor=#FF9999;" vertex="1" parent="6W5GAz7soycN4FFiyWhJ-27">
          <mxGeometry x="154" width="22" height="37" as="geometry" />
        </mxCell>
        <mxCell id="6W5GAz7soycN4FFiyWhJ-24" value="-" style="rounded=0;whiteSpace=wrap;html=1;fontSize=20;fillColor=#FF9999;" vertex="1" parent="6W5GAz7soycN4FFiyWhJ-27">
          <mxGeometry x="132" width="22" height="37" as="geometry" />
        </mxCell>
        <mxCell id="6W5GAz7soycN4FFiyWhJ-25" value="8" style="rounded=0;whiteSpace=wrap;html=1;fontSize=20;fillColor=#FF9999;" vertex="1" parent="6W5GAz7soycN4FFiyWhJ-27">
          <mxGeometry x="176" width="22" height="37" as="geometry" />
        </mxCell>
        <mxCell id="6W5GAz7soycN4FFiyWhJ-28" value="桂A3A218" style="rounded=1;whiteSpace=wrap;html=1;fontSize=20;fillColor=#FF9999;" vertex="1" parent="1">
          <mxGeometry x="249" y="64" width="138" height="30" as="geometry" />
        </mxCell>
        <mxCell id="6W5GAz7soycN4FFiyWhJ-30" value="" style="shape=singleArrow;direction=north;whiteSpace=wrap;html=1;fontSize=20;fillColor=#FF99FF;" vertex="1" parent="1">
          <mxGeometry x="295.99" y="634" width="44" height="24" as="geometry" />
        </mxCell>
        <mxCell id="6W5GAz7soycN4FFiyWhJ-33" value="" style="shape=singleArrow;direction=north;whiteSpace=wrap;html=1;fontSize=20;fillColor=#FF99FF;" vertex="1" parent="1">
          <mxGeometry x="296.5" y="557" width="44" height="24" as="geometry" />
        </mxCell>
        <mxCell id="6W5GAz7soycN4FFiyWhJ-34" value="" style="shape=singleArrow;direction=north;whiteSpace=wrap;html=1;fontSize=20;fillColor=#FF99FF;" vertex="1" parent="1">
          <mxGeometry x="295.99" y="481" width="44" height="24" as="geometry" />
        </mxCell>
        <mxCell id="6W5GAz7soycN4FFiyWhJ-35" value="" style="shape=singleArrow;direction=north;whiteSpace=wrap;html=1;fontSize=20;fillColor=#FF99FF;" vertex="1" parent="1">
          <mxGeometry x="295.5" y="404" width="44" height="24" as="geometry" />
        </mxCell>
        <mxCell id="6W5GAz7soycN4FFiyWhJ-36" value="" style="shape=singleArrow;direction=north;whiteSpace=wrap;html=1;fontSize=20;fillColor=#FF99FF;" vertex="1" parent="1">
          <mxGeometry x="295.99" y="328" width="44" height="24" as="geometry" />
        </mxCell>
        <mxCell id="6W5GAz7soycN4FFiyWhJ-47" value="" style="shape=singleArrow;direction=north;whiteSpace=wrap;html=1;fontSize=20;fillColor=#FF99FF;" vertex="1" parent="1">
          <mxGeometry x="292.88" y="251" width="44" height="24" as="geometry" />
        </mxCell>
        <mxCell id="6W5GAz7soycN4FFiyWhJ-49" value="" style="shape=singleArrow;direction=north;whiteSpace=wrap;html=1;fontSize=20;fillColor=#FF99FF;" vertex="1" parent="1">
          <mxGeometry x="295.5" y="175" width="44" height="24" as="geometry" />
        </mxCell>
        <mxCell id="6W5GAz7soycN4FFiyWhJ-50" value="" style="shape=singleArrow;direction=north;whiteSpace=wrap;html=1;fontSize=20;fillColor=#FF99FF;" vertex="1" parent="1">
          <mxGeometry x="292.88" y="98" width="44" height="24" as="geometry" />
        </mxCell>
        <mxCell id="6W5GAz7soycN4FFiyWhJ-52" value="" style="group" vertex="1" connectable="0" parent="1">
          <mxGeometry x="224" y="359" width="183" height="37" as="geometry" />
        </mxCell>
        <mxCell id="6W5GAz7soycN4FFiyWhJ-10" value="" style="shape=cube;whiteSpace=wrap;html=1;boundedLbl=1;backgroundOutline=1;darkOpacity=0.05;darkOpacity2=0.1;fontSize=20;flipH=1;fillColor=#FF9999;" vertex="1" parent="6W5GAz7soycN4FFiyWhJ-52">
          <mxGeometry width="32" height="37" as="geometry" />
        </mxCell>
        <mxCell id="6W5GAz7soycN4FFiyWhJ-11" value="" style="shape=cube;whiteSpace=wrap;html=1;boundedLbl=1;backgroundOutline=1;darkOpacity=0.05;darkOpacity2=0.1;fontSize=20;flipH=1;fillColor=#FF9999;" vertex="1" parent="6W5GAz7soycN4FFiyWhJ-52">
          <mxGeometry x="19" width="32" height="37" as="geometry" />
        </mxCell>
        <mxCell id="6W5GAz7soycN4FFiyWhJ-12" value="" style="shape=cube;whiteSpace=wrap;html=1;boundedLbl=1;backgroundOutline=1;darkOpacity=0.05;darkOpacity2=0.1;fontSize=20;flipH=1;fillColor=#FF9999;" vertex="1" parent="6W5GAz7soycN4FFiyWhJ-52">
          <mxGeometry x="132" width="32" height="37" as="geometry" />
        </mxCell>
        <mxCell id="6W5GAz7soycN4FFiyWhJ-13" value="" style="shape=cube;whiteSpace=wrap;html=1;boundedLbl=1;backgroundOutline=1;darkOpacity=0.05;darkOpacity2=0.1;fontSize=20;flipH=1;fillColor=#FF9999;" vertex="1" parent="6W5GAz7soycN4FFiyWhJ-52">
          <mxGeometry x="151" width="32" height="37" as="geometry" />
        </mxCell>
        <mxCell id="6W5GAz7soycN4FFiyWhJ-51" value="&lt;font style=&quot;font-size: 30px&quot;&gt;......&lt;/font&gt;" style="text;html=1;strokeColor=none;fillColor=none;align=center;verticalAlign=middle;whiteSpace=wrap;rounded=0;fontSize=20;" vertex="1" parent="6W5GAz7soycN4FFiyWhJ-52">
          <mxGeometry x="61.5" width="60" height="30" as="geometry" />
        </mxCell>
      </root>
    </mxGraphModel>
  </diagram>
</mxfile>
